<svg width="1920" height="1143" viewBox="0 0 1920 1143" fill="none" xmlns="http://www.w3.org/2000/svg">
<rect width="1920" height="902" fill="#D2EAFC"/>
<g clip-path="url(#clip0_0_840)">
<path opacity="0.07" d="M-111.582 818.914C-0.500854 848.045 103.854 1070.56 229.883 1138.07C355.911 1205.59 572.265 1164.51 834.188 1077.82C1096.11 991.135 1257.78 1008.47 1442.7 1109.82C1627.62 1211.17 2039.47 1226 2039.47 818.914C2039.47 818.914 2041.94 781.918 2036.22 727.076C1969.26 768.175 1873.85 788.522 1737.93 762.512C1288.12 676.401 1275.31 460.772 563.788 583.216C122.517 659.153 -149.442 578.215 -292.382 505.762C-331.053 686.66 -215.083 791.75 -111.582 818.914Z" fill="black"/>
<path d="M301.264 796V783.792H305.808C307.013 783.792 307.957 784.091 308.64 784.688C309.333 785.275 309.68 786.139 309.68 787.28C309.68 788.219 309.424 788.992 308.912 789.6C308.475 790.101 308.027 790.352 307.568 790.352C307.504 790.352 307.419 790.341 307.312 790.32L307.216 790.528C307.333 790.56 307.424 790.624 307.488 790.72C307.563 790.805 307.637 790.928 307.712 791.088L309.84 796H308.272L306.096 790.816H302.736V796H301.264ZM305.616 789.536C306.459 789.536 307.104 789.349 307.552 788.976C308 788.592 308.224 788.043 308.224 787.328C308.224 786.624 307.995 786.08 307.536 785.696C307.077 785.312 306.437 785.12 305.616 785.12H302.736V789.536H305.616ZM315.4 796.16C314.568 796.16 313.821 795.963 313.16 795.568C312.509 795.173 312.003 794.629 311.64 793.936C311.277 793.243 311.096 792.464 311.096 791.6C311.096 790.779 311.267 790.021 311.608 789.328C311.949 788.624 312.44 788.059 313.08 787.632C313.731 787.205 314.493 786.992 315.368 786.992C316.125 786.992 316.829 787.163 317.48 787.504C318.131 787.845 318.653 788.347 319.048 789.008C319.443 789.659 319.64 790.443 319.64 791.36V791.84H313.32C313.245 791.84 313.096 791.84 312.872 791.84C312.659 791.84 312.461 791.829 312.28 791.808L312.232 792.064C312.328 792.085 312.392 792.123 312.424 792.176C312.467 792.219 312.499 792.299 312.52 792.416C312.552 792.523 312.584 792.624 312.616 792.72C312.84 793.403 313.197 793.947 313.688 794.352C314.189 794.757 314.755 794.96 315.384 794.96C316.024 794.96 316.573 794.789 317.032 794.448C317.491 794.107 317.821 793.675 318.024 793.152H319.48C319.192 794.048 318.701 794.773 318.008 795.328C317.315 795.883 316.445 796.16 315.4 796.16ZM312.552 790.944C312.669 790.837 312.787 790.763 312.904 790.72C313.032 790.667 313.187 790.64 313.368 790.64H317.336C317.539 790.64 317.709 790.667 317.848 790.72C317.987 790.763 318.12 790.837 318.248 790.944L318.424 790.752C318.317 790.677 318.248 790.613 318.216 790.56C318.195 790.496 318.173 790.416 318.152 790.32C318.12 790.128 318.067 789.947 317.992 789.776C317.768 789.275 317.421 788.885 316.952 788.608C316.493 788.331 315.976 788.192 315.4 788.192C314.813 788.192 314.296 788.331 313.848 788.608C313.411 788.885 313.069 789.275 312.824 789.776C312.728 789.979 312.669 790.16 312.648 790.32C312.637 790.416 312.616 790.491 312.584 790.544C312.552 790.597 312.483 790.667 312.376 790.752L312.552 790.944ZM325.095 796.16C323.975 796.16 323.063 795.893 322.359 795.36C321.655 794.827 321.228 794.091 321.079 793.152H322.503C322.62 793.717 322.892 794.16 323.319 794.48C323.756 794.8 324.353 794.96 325.111 794.96C325.729 794.96 326.22 794.843 326.583 794.608C326.956 794.373 327.143 794.037 327.143 793.6C327.143 793.259 327.031 792.987 326.807 792.784C326.593 792.571 326.316 792.411 325.975 792.304C325.644 792.197 325.201 792.091 324.647 791.984C323.953 791.845 323.393 791.707 322.967 791.568C322.551 791.419 322.193 791.184 321.895 790.864C321.596 790.544 321.447 790.101 321.447 789.536C321.447 788.736 321.745 788.112 322.343 787.664C322.951 787.216 323.724 786.992 324.663 786.992C325.623 786.992 326.423 787.243 327.063 787.744C327.703 788.245 328.097 788.933 328.247 789.808H326.983C326.855 789.264 326.588 788.859 326.183 788.592C325.777 788.325 325.271 788.192 324.663 788.192C324.076 788.192 323.617 788.304 323.287 788.528C322.967 788.741 322.807 789.04 322.807 789.424C322.807 789.723 322.908 789.957 323.111 790.128C323.313 790.299 323.564 790.432 323.863 790.528C324.161 790.613 324.583 790.709 325.127 790.816C325.841 790.955 326.423 791.104 326.871 791.264C327.319 791.413 327.703 791.664 328.023 792.016C328.343 792.357 328.503 792.837 328.503 793.456C328.503 794.288 328.204 794.949 327.607 795.44C327.009 795.92 326.172 796.16 325.095 796.16ZM334.369 796.16C333.537 796.16 332.79 795.963 332.129 795.568C331.478 795.173 330.972 794.629 330.609 793.936C330.246 793.243 330.065 792.464 330.065 791.6C330.065 790.779 330.236 790.021 330.577 789.328C330.918 788.624 331.409 788.059 332.049 787.632C332.7 787.205 333.462 786.992 334.337 786.992C335.094 786.992 335.798 787.163 336.449 787.504C337.1 787.845 337.622 788.347 338.017 789.008C338.412 789.659 338.609 790.443 338.609 791.36V791.84H332.289C332.214 791.84 332.065 791.84 331.841 791.84C331.628 791.84 331.43 791.829 331.249 791.808L331.201 792.064C331.297 792.085 331.361 792.123 331.393 792.176C331.436 792.219 331.468 792.299 331.489 792.416C331.521 792.523 331.553 792.624 331.585 792.72C331.809 793.403 332.166 793.947 332.657 794.352C333.158 794.757 333.724 794.96 334.353 794.96C334.993 794.96 335.542 794.789 336.001 794.448C336.46 794.107 336.79 793.675 336.993 793.152H338.449C338.161 794.048 337.67 794.773 336.977 795.328C336.284 795.883 335.414 796.16 334.369 796.16ZM331.521 790.944C331.638 790.837 331.756 790.763 331.873 790.72C332.001 790.667 332.156 790.64 332.337 790.64H336.305C336.508 790.64 336.678 790.667 336.817 790.72C336.956 790.763 337.089 790.837 337.217 790.944L337.393 790.752C337.286 790.677 337.217 790.613 337.185 790.56C337.164 790.496 337.142 790.416 337.121 790.32C337.089 790.128 337.036 789.947 336.961 789.776C336.737 789.275 336.39 788.885 335.921 788.608C335.462 788.331 334.945 788.192 334.369 788.192C333.782 788.192 333.265 788.331 332.817 788.608C332.38 788.885 332.038 789.275 331.793 789.776C331.697 789.979 331.638 790.16 331.617 790.32C331.606 790.416 331.585 790.491 331.553 790.544C331.521 790.597 331.452 790.667 331.345 790.752L331.521 790.944ZM343.077 796C342.362 796 341.834 795.84 341.493 795.52C341.152 795.2 340.981 794.619 340.981 793.776V788.352H339.557V787.152H340.981V783.792H342.341V787.152H344.325V788.352H342.341V793.504C342.341 793.813 342.362 794.059 342.405 794.24C342.448 794.411 342.544 794.549 342.693 794.656C342.842 794.752 343.077 794.8 343.397 794.8H344.309V796H343.077ZM350.655 796V783.792H355.199C356.404 783.792 357.348 784.091 358.031 784.688C358.724 785.275 359.071 786.139 359.071 787.28C359.071 788.389 358.719 789.264 358.015 789.904C357.321 790.533 356.383 790.848 355.199 790.848H352.127V796H350.655ZM355.007 789.536C355.849 789.536 356.495 789.349 356.943 788.976C357.391 788.592 357.615 788.043 357.615 787.328C357.615 786.624 357.385 786.08 356.927 785.696C356.468 785.312 355.828 785.12 355.007 785.12H352.127V789.536H355.007ZM362.851 796.16C361.966 796.16 361.262 795.936 360.739 795.488C360.227 795.04 359.971 794.427 359.971 793.648C359.971 792.88 360.259 792.272 360.835 791.824C361.304 791.451 361.982 791.173 362.867 790.992L366.019 790.384C366.03 789.701 365.848 789.173 365.475 788.8C365.07 788.395 364.526 788.192 363.843 788.192C363.299 788.192 362.824 788.341 362.419 788.64C362.024 788.928 361.774 789.317 361.667 789.808H360.307C360.456 788.923 360.862 788.235 361.523 787.744C362.195 787.243 362.974 786.992 363.859 786.992C364.382 786.992 364.867 787.072 365.315 787.232C365.763 787.381 366.142 787.605 366.451 787.904C366.856 788.288 367.112 788.731 367.219 789.232C367.326 789.733 367.379 790.251 367.379 790.784V796H366.019V795.584C366.019 795.317 366.072 795.013 366.179 794.672L365.955 794.576C365.667 795.035 365.331 795.392 364.947 795.648C364.68 795.829 364.376 795.957 364.035 796.032C363.704 796.117 363.31 796.16 362.851 796.16ZM363.011 794.96C363.523 794.96 363.992 794.859 364.419 794.656C364.942 794.389 365.326 794.032 365.571 793.584C365.752 793.264 365.87 792.96 365.923 792.672C365.987 792.384 366.024 792.208 366.035 792.144C366.067 791.984 366.11 791.867 366.163 791.792C366.216 791.717 366.296 791.675 366.403 791.664L366.355 791.408L364.291 791.84L363.155 792.064C362.494 792.192 362.008 792.4 361.699 792.688C361.454 792.933 361.331 793.243 361.331 793.616C361.331 794.021 361.48 794.347 361.779 794.592C362.088 794.837 362.499 794.96 363.011 794.96ZM373.126 796.16C372.006 796.16 371.094 795.893 370.39 795.36C369.686 794.827 369.259 794.091 369.11 793.152H370.534C370.651 793.717 370.923 794.16 371.35 794.48C371.787 794.8 372.385 794.96 373.142 794.96C373.761 794.96 374.251 794.843 374.614 794.608C374.987 794.373 375.174 794.037 375.174 793.6C375.174 793.259 375.062 792.987 374.838 792.784C374.625 792.571 374.347 792.411 374.006 792.304C373.675 792.197 373.233 792.091 372.678 791.984C371.985 791.845 371.425 791.707 370.998 791.568C370.582 791.419 370.225 791.184 369.926 790.864C369.627 790.544 369.478 790.101 369.478 789.536C369.478 788.736 369.777 788.112 370.374 787.664C370.982 787.216 371.755 786.992 372.694 786.992C373.654 786.992 374.454 787.243 375.094 787.744C375.734 788.245 376.129 788.933 376.278 789.808H375.014C374.886 789.264 374.619 788.859 374.214 788.592C373.809 788.325 373.302 788.192 372.694 788.192C372.107 788.192 371.649 788.304 371.318 788.528C370.998 788.741 370.838 789.04 370.838 789.424C370.838 789.723 370.939 789.957 371.142 790.128C371.345 790.299 371.595 790.432 371.894 790.528C372.193 790.613 372.614 790.709 373.158 790.816C373.873 790.955 374.454 791.104 374.902 791.264C375.35 791.413 375.734 791.664 376.054 792.016C376.374 792.357 376.534 792.837 376.534 793.456C376.534 794.288 376.235 794.949 375.638 795.44C375.041 795.92 374.203 796.16 373.126 796.16ZM382.032 796.16C380.912 796.16 380 795.893 379.296 795.36C378.592 794.827 378.165 794.091 378.016 793.152H379.44C379.557 793.717 379.829 794.16 380.256 794.48C380.693 794.8 381.291 794.96 382.048 794.96C382.667 794.96 383.157 794.843 383.52 794.608C383.893 794.373 384.08 794.037 384.08 793.6C384.08 793.259 383.968 792.987 383.744 792.784C383.531 792.571 383.253 792.411 382.912 792.304C382.581 792.197 382.139 792.091 381.584 791.984C380.891 791.845 380.331 791.707 379.904 791.568C379.488 791.419 379.131 791.184 378.832 790.864C378.533 790.544 378.384 790.101 378.384 789.536C378.384 788.736 378.683 788.112 379.28 787.664C379.888 787.216 380.661 786.992 381.6 786.992C382.56 786.992 383.36 787.243 384 787.744C384.64 788.245 385.035 788.933 385.184 789.808H383.92C383.792 789.264 383.525 788.859 383.12 788.592C382.715 788.325 382.208 788.192 381.6 788.192C381.013 788.192 380.555 788.304 380.224 788.528C379.904 788.741 379.744 789.04 379.744 789.424C379.744 789.723 379.845 789.957 380.048 790.128C380.251 790.299 380.501 790.432 380.8 790.528C381.099 790.613 381.52 790.709 382.064 790.816C382.779 790.955 383.36 791.104 383.808 791.264C384.256 791.413 384.64 791.664 384.96 792.016C385.28 792.357 385.44 792.837 385.44 793.456C385.44 794.288 385.141 794.949 384.544 795.44C383.947 795.92 383.109 796.16 382.032 796.16ZM389.226 796L386.634 787.152H388.09L389.674 792.832C389.728 793.035 389.765 793.232 389.786 793.424C389.808 793.605 389.824 793.765 389.834 793.904C389.845 794.032 389.85 794.128 389.85 794.192H390.058C390.058 794.139 390.064 794.016 390.074 793.824C390.085 793.632 390.106 793.461 390.138 793.312C390.17 793.152 390.213 792.992 390.266 792.832L392.17 787.152H393.402L395.306 792.832C395.381 793.056 395.429 793.259 395.45 793.44C395.472 793.611 395.493 793.861 395.514 794.192H395.722C395.722 794.128 395.728 794 395.738 793.808C395.749 793.616 395.765 793.445 395.786 793.296C395.818 793.147 395.856 792.992 395.898 792.832L397.498 787.152H398.954L396.33 796H395.066L393.098 790C393.024 789.776 392.976 789.584 392.954 789.424C392.933 789.264 392.912 789.035 392.89 788.736H392.698C392.677 789.035 392.656 789.264 392.634 789.424C392.613 789.584 392.565 789.776 392.49 790L390.49 796H389.226ZM404.447 796.16C403.615 796.16 402.869 795.963 402.207 795.568C401.557 795.173 401.045 794.624 400.671 793.92C400.309 793.216 400.127 792.421 400.127 791.536C400.127 790.672 400.309 789.893 400.671 789.2C401.045 788.507 401.557 787.968 402.207 787.584C402.869 787.189 403.615 786.992 404.447 786.992C405.279 786.992 406.026 787.189 406.687 787.584C407.349 787.968 407.866 788.507 408.239 789.2C408.613 789.893 408.799 790.672 408.799 791.536C408.799 792.421 408.613 793.216 408.239 793.92C407.877 794.613 407.365 795.163 406.703 795.568C406.042 795.963 405.29 796.16 404.447 796.16ZM404.447 794.96C405.002 794.96 405.503 794.811 405.951 794.512C406.41 794.213 406.767 793.808 407.023 793.296C407.29 792.773 407.423 792.187 407.423 791.536C407.423 790.917 407.295 790.352 407.039 789.84C406.783 789.328 406.426 788.928 405.967 788.64C405.519 788.341 405.013 788.192 404.447 788.192C403.893 788.192 403.386 788.336 402.927 788.624C402.479 788.912 402.127 789.312 401.871 789.824C401.615 790.336 401.487 790.907 401.487 791.536C401.487 792.187 401.615 792.773 401.871 793.296C402.127 793.819 402.479 794.229 402.927 794.528C403.386 794.816 403.893 794.96 404.447 794.96ZM410.714 796V787.152H412.074V787.728C412.074 787.877 412.058 788.005 412.026 788.112C412.005 788.208 411.957 788.304 411.882 788.4L412.106 788.544C412.469 788 412.869 787.605 413.306 787.36C413.754 787.115 414.309 786.992 414.97 786.992H415.034V788.352H414.57C413.855 788.352 413.285 788.565 412.858 788.992C412.335 789.493 412.074 790.277 412.074 791.344V796H410.714ZM419.845 796.16C419.067 796.16 418.379 795.968 417.781 795.584C417.184 795.2 416.72 794.661 416.389 793.968C416.069 793.275 415.909 792.48 415.909 791.584C415.909 790.688 416.069 789.893 416.389 789.2C416.72 788.496 417.179 787.952 417.765 787.568C418.363 787.184 419.056 786.992 419.845 786.992C420.496 786.992 421.029 787.109 421.445 787.344C421.872 787.579 422.293 787.979 422.709 788.544L422.933 788.4C422.859 788.304 422.805 788.208 422.773 788.112C422.752 788.005 422.741 787.877 422.741 787.728V783.792H424.101V796H422.741V795.424C422.741 795.275 422.752 795.152 422.773 795.056C422.805 794.949 422.859 794.848 422.933 794.752L422.709 794.608C422.293 795.173 421.872 795.573 421.445 795.808C421.029 796.043 420.496 796.16 419.845 796.16ZM419.973 794.96C420.517 794.96 421.003 794.816 421.429 794.528C421.856 794.24 422.187 793.84 422.421 793.328C422.667 792.805 422.789 792.224 422.789 791.584C422.789 790.933 422.667 790.352 422.421 789.84C422.187 789.328 421.856 788.928 421.429 788.64C421.003 788.341 420.517 788.192 419.973 788.192C419.429 788.192 418.949 788.341 418.533 788.64C418.128 788.928 417.813 789.328 417.589 789.84C417.376 790.352 417.269 790.933 417.269 791.584C417.269 792.224 417.376 792.8 417.589 793.312C417.813 793.824 418.128 794.229 418.533 794.528C418.949 794.816 419.429 794.96 419.973 794.96Z" fill="#212529"/>
</g>
<path fill-rule="evenodd" clip-rule="evenodd" d="M739.276 333.588C745.513 334.488 750.074 337.347 750.074 340.736C750.074 341.46 749.863 342.159 749.477 342.82H783.673C783.254 342.113 783.027 341.363 783.027 340.586C783.027 336.229 790.135 332.696 798.907 332.696C800.634 332.696 802.298 332.833 803.854 333.087C803.558 332.335 803.401 331.558 803.401 330.762C803.401 324.101 814.266 318.703 827.669 318.703C840.44 318.703 850.905 323.604 851.864 329.826L852.088 329.845C851.988 329.064 851.937 328.278 851.937 327.485C851.937 320.653 855.718 314.26 862.296 308.793C862.525 309.348 862.686 309.916 862.775 310.495L863.03 310.516C862.937 309.792 862.882 309.063 862.864 308.33C875.797 297.936 898.942 291.011 925.341 291.011C962.812 291.011 993.722 304.964 998.185 322.985C1003.49 320.168 1011.04 318.406 1019.41 318.406C1027.86 318.406 1035.47 320.197 1040.78 323.057C1050.26 316.117 1066.27 311.557 1084.43 311.557C1109.16 311.557 1129.92 320.019 1135.61 331.435C1137.9 330.908 1140.46 330.614 1143.15 330.614C1151.45 330.614 1158.43 333.407 1160.5 337.204C1165.14 335.674 1170.71 334.782 1176.7 334.782C1192.78 334.782 1205.83 341.2 1206.06 349.16H922.019C918.566 349.16 915.739 350.564 915.739 352.281C915.739 353.997 925.383 355.402 922.019 355.402H939.423C946.005 355.402 951.391 358.078 951.391 361.349C951.391 364.619 946.005 367.295 939.423 367.295H507.288C500.706 367.295 495.323 364.619 495.323 361.349C495.323 358.078 500.706 355.402 507.288 355.402H531.774C535.229 355.402 538.056 353.997 538.056 352.281C538.056 350.564 527.624 349.16 531.774 349.16H512.326H449.097C451.267 343.35 461.519 338.95 473.84 338.95C475.906 338.95 477.912 339.075 479.833 339.307V338.95H480.694C483.921 332.37 495.858 327.485 510.091 327.485C512.649 327.485 515.137 327.644 517.512 327.942C520.692 322.848 530.251 319.148 541.549 319.148C542.898 319.148 544.223 319.201 545.512 319.302C554.462 305.647 580.288 295.776 610.758 295.776C641.293 295.776 667.164 305.689 676.06 319.391C677.245 319.329 678.448 319.298 679.666 319.298C690.615 319.298 700.37 321.835 706.681 325.792C710.088 324.519 714.324 323.765 718.913 323.765C729.964 323.765 738.956 328.135 739.276 333.588ZM978.098 355.402C971.518 355.402 966.132 358.078 966.132 361.349C966.132 364.619 971.518 367.295 978.098 367.295H978.422C985.003 367.295 990.387 364.619 990.387 361.349C990.387 358.078 985.003 355.402 978.422 355.402H978.098Z" fill="white"/>
<path fill-rule="evenodd" clip-rule="evenodd" d="M1528.04 318.448H1706.19C1707.01 317.141 1707.46 315.75 1707.46 314.308C1707.46 306.635 1694.94 300.415 1679.5 300.415C1677.28 300.415 1675.11 300.545 1673.04 300.788C1667.81 291.911 1651.3 285.428 1631.74 285.428C1611.99 285.428 1595.34 292.042 1590.28 301.056C1587.62 300.64 1584.8 300.415 1581.86 300.415C1570.81 300.415 1561.25 303.605 1556.72 308.233C1553.58 306.989 1549.61 306.244 1545.28 306.244C1535.16 306.244 1526.95 310.322 1526.95 315.353C1526.95 316.44 1527.33 317.482 1528.04 318.448Z" fill="white"/>
<path fill-rule="evenodd" clip-rule="evenodd" d="M1506.12 125.346H1484.87C1485.21 124.673 1485.39 123.887 1485.39 122.968C1485.39 115.207 1472.73 108.916 1457.11 108.916C1450.79 108.916 1444.95 109.947 1440.25 111.688C1440.25 111.557 1440.26 111.426 1440.26 111.295C1440.26 103.534 1427.6 97.243 1411.98 97.243C1403.06 97.243 1395.11 99.2935 1389.93 102.497C1386.07 101.515 1381.7 100.961 1377.06 100.961C1375.51 100.961 1373.99 101.024 1372.5 101.144C1372.5 101.083 1372.51 101.022 1372.51 100.961C1372.51 93.2002 1359.85 86.909 1344.23 86.909C1338.44 86.909 1333.06 87.7729 1328.58 89.2544C1322.39 82.2485 1308.31 77.3549 1291.92 77.3549C1272.68 77.3549 1256.62 84.1019 1252.78 93.0937C1249.02 92.1757 1244.79 91.6594 1240.32 91.6594C1227.01 91.6594 1215.84 96.2306 1212.84 102.387C1209.09 101.474 1204.87 100.961 1200.42 100.961C1187.04 100.961 1175.82 105.58 1172.89 111.784C1168.87 108.583 1161.72 106.452 1153.57 106.452C1141 106.452 1130.82 111.514 1130.82 117.758C1130.82 120.679 1133.05 123.34 1136.71 125.346H1112.07C1108.26 125.346 1105.15 126.895 1105.15 128.787C1105.15 130.68 1108.26 132.228 1112.07 132.228H1506.12C1509.93 132.228 1513.04 130.68 1513.04 128.787C1513.04 126.895 1509.93 125.346 1506.12 125.346ZM1092.87 125.346H1092.68C1088.87 125.346 1085.75 126.895 1085.75 128.787C1085.75 130.68 1088.87 132.228 1092.68 132.228H1092.87C1096.67 132.228 1099.79 130.68 1099.79 128.787C1099.79 126.895 1096.67 125.346 1092.87 125.346Z" fill="white"/>
<path fill-rule="evenodd" clip-rule="evenodd" d="M466.71 299.173H445.459C445.799 298.499 445.98 297.714 445.98 296.794C445.98 289.033 433.318 282.742 417.7 282.742C411.381 282.742 405.545 283.773 400.836 285.514C400.844 285.383 400.847 285.252 400.847 285.121C400.847 277.36 388.188 271.069 372.57 271.069C363.655 271.069 355.705 273.12 350.523 276.323C346.663 275.341 342.288 274.787 337.656 274.787C336.101 274.787 334.579 274.85 333.093 274.97C333.095 274.909 333.098 274.848 333.098 274.787C333.098 267.026 320.437 260.735 304.82 260.735C299.035 260.735 293.656 261.599 289.176 263.081C282.984 256.075 268.9 251.181 252.514 251.181C233.275 251.181 217.207 257.928 213.367 266.92C209.608 266.002 205.38 265.486 200.91 265.486C187.597 265.486 176.436 270.057 173.429 276.213C169.68 275.3 165.465 274.787 161.008 274.787C147.627 274.787 136.416 279.406 133.481 285.61C129.462 282.409 122.314 280.278 114.162 280.278C101.596 280.278 91.4095 285.34 91.4095 291.584C91.4095 294.505 93.6372 297.166 97.2965 299.173H72.6639C68.8552 299.173 65.7397 300.721 65.7397 302.613C65.7397 304.506 68.8552 306.054 72.6639 306.054H466.71C470.519 306.054 473.634 304.506 473.634 302.613C473.634 300.721 470.519 299.173 466.71 299.173ZM53.4569 299.173H53.2714C49.4613 299.173 46.3456 300.721 46.3456 302.613C46.3456 304.506 49.4613 306.054 53.2714 306.054H53.4569C57.2654 306.054 60.3811 304.506 60.3811 302.613C60.3811 300.721 57.2654 299.173 53.4569 299.173Z" fill="white"/>
<path fill-rule="evenodd" clip-rule="evenodd" d="M756.863 38.7122H756.636C752.017 38.7122 748.236 40.5905 748.236 42.8859V42.8863C748.236 45.1817 752.017 47.06 756.636 47.06H756.863C761.482 47.06 765.262 45.1817 765.262 42.8863V42.8859C765.262 40.5905 761.482 38.7122 756.863 38.7122ZM934.157 38.7122H926.219C923.794 38.7122 921.809 37.7261 921.809 36.5209C921.809 35.5579 922.766 34.7348 924.637 34.4429H926.292C928.997 34.4429 931.209 33.3434 931.209 32C931.209 30.6563 928.997 29.5568 926.292 29.5568H922.099C923.882 28.0663 924.908 26.3255 924.908 24.465C924.908 18.955 915.916 14.4875 904.827 14.4875C901.635 14.4875 898.617 14.8583 895.938 15.5166C894.215 6.80622 879.432 0 861.45 0C845.977 0 832.873 5.03945 828.419 11.9951C826.634 11.29 824.374 10.868 821.916 10.868C816.526 10.868 812.09 12.8938 811.518 15.4965C808.859 14.8505 805.87 14.4875 802.71 14.4875C791.621 14.4875 782.631 18.955 782.631 24.465C782.631 26.3255 783.656 28.0659 785.44 29.5568H778.871C776.168 29.5568 773.955 30.6563 773.955 32C773.955 33.3434 776.168 34.4429 778.871 34.4429H797.625C799.371 34.7348 800.637 35.5579 800.637 36.5209C800.637 37.7261 798.589 38.7122 796.229 38.7122H784.011C779.391 38.7122 775.611 40.5905 775.611 42.8859V42.8863C775.611 45.1817 779.391 47.06 784.011 47.06H934.157C938.778 47.06 942.558 45.1817 942.558 42.8863V42.8859C942.558 40.5905 938.778 38.7122 934.157 38.7122Z" fill="white"/>
<path fill-rule="evenodd" clip-rule="evenodd" d="M328.88 106.882H328.652C324.033 106.882 320.253 108.76 320.253 111.055V111.056C320.253 113.351 324.033 115.23 328.652 115.23H328.88C333.498 115.23 337.279 113.351 337.279 111.056V111.055C337.279 108.76 333.498 106.882 328.88 106.882ZM506.174 106.882H498.235C495.81 106.882 493.826 105.896 493.826 104.69C493.826 103.727 494.782 102.904 496.653 102.612H498.309C501.013 102.612 503.225 101.513 503.225 100.17C503.225 98.8259 501.013 97.7263 498.309 97.7263H494.115C495.899 96.2359 496.924 94.495 496.924 92.6346C496.924 87.1245 487.933 82.6571 476.843 82.6571C473.651 82.6571 470.634 83.0278 467.955 83.6862C466.232 74.9758 451.449 68.1696 433.466 68.1696C417.993 68.1696 404.889 73.209 400.436 80.1646C398.651 79.4595 396.39 79.0376 393.932 79.0376C388.543 79.0376 384.106 81.0633 383.534 83.6661C380.875 83.0201 377.886 82.6571 374.727 82.6571C363.637 82.6571 354.648 87.1245 354.648 92.6346C354.648 94.495 355.673 96.2355 357.456 97.7263H350.887C348.185 97.7263 345.971 98.8259 345.971 100.17C345.971 101.513 348.185 102.612 350.887 102.612H369.641C371.387 102.904 372.653 103.727 372.653 104.69C372.653 105.896 370.605 106.882 368.245 106.882H356.028C351.408 106.882 347.627 108.76 347.627 111.055V111.056C347.627 113.351 351.408 115.23 356.028 115.23H506.174C510.794 115.23 514.575 113.351 514.575 111.056V111.055C514.575 108.76 510.794 106.882 506.174 106.882Z" fill="white"/>
<path fill-rule="evenodd" clip-rule="evenodd" d="M892.127 211.552H878.729C881.534 210.198 883.277 208.304 883.277 206.207C883.277 202.091 876.562 198.755 868.279 198.755C865.648 198.755 863.174 199.092 861.025 199.684C859.735 196.719 854.426 194.496 848.072 194.496C847.015 194.496 845.985 194.558 844.997 194.675C843.335 189.261 833.925 185.114 822.566 185.114C812.023 185.114 803.159 188.686 800.611 193.528C798.411 192.639 795.607 192.106 792.551 192.106C788.104 192.106 784.188 193.235 781.898 194.948C777.739 192.593 771.637 191.106 764.836 191.106C755.74 191.106 747.895 193.766 744.277 197.606C741.725 196.834 738.728 196.39 735.522 196.39C729.073 196.39 723.468 198.189 720.632 200.833C719.467 199.393 716.632 198.376 713.317 198.376C708.966 198.376 705.438 200.129 705.438 202.291C705.438 202.379 705.444 202.467 705.455 202.553C703.238 201.635 700.386 201.081 697.273 201.081C690.214 201.081 684.491 203.925 684.491 207.433C684.491 209.005 685.64 210.443 687.542 211.552H670.424C666.357 211.552 663.03 213.206 663.03 215.226C663.03 217.247 666.357 218.901 670.424 218.901H892.127C896.194 218.901 899.521 217.247 899.521 215.226C899.521 213.206 896.194 211.552 892.127 211.552ZM648.133 224.29H647.854C642.173 224.29 637.523 226.6 637.523 229.423C637.523 232.246 642.173 234.556 647.854 234.556H648.133C653.814 234.556 658.462 232.246 658.462 229.423C658.462 226.6 653.814 224.29 648.133 224.29ZM722.191 224.29C725.093 224.29 727.614 223.077 727.614 221.595C727.614 220.113 725.173 218.901 722.191 218.901H882.053C878.47 218.901 876.629 220.113 876.629 221.595C876.629 223.077 879.07 224.29 882.053 224.29H891.815C897.496 224.29 902.145 226.6 902.145 229.423C902.145 232.246 897.496 234.556 891.815 234.556H678.384C672.703 234.556 668.055 232.246 668.055 229.423C668.055 226.6 672.703 224.29 678.384 224.29H722.191Z" fill="white"/>
<path d="M1643.98 526.147C1646.36 524.048 1677.63 507.913 1679.98 506.707L1675.21 505.212C1675.21 505.212 1646.09 523.917 1643.98 526.147Z" fill="#FFC800"/>
<path d="M1643.98 526.147C1646.36 524.048 1677.63 507.913 1679.98 506.707L1675.21 505.212C1675.21 505.212 1646.09 523.917 1643.98 526.147Z" fill="#034C51"/>
<path d="M1643.87 526.312C1643.87 526.326 1643.86 526.339 1643.86 526.339C1643.86 526.365 1643.87 526.394 1643.88 526.436C1644.04 526.973 1645.94 527.676 1648.09 528.263C1648.11 528.266 1648.14 528.27 1648.17 528.287C1650.8 528.979 1653.76 529.485 1654.28 529.229C1654.96 528.885 1676.97 521.326 1690.45 516.71C1690.63 516.653 1690.81 516.595 1690.98 516.536C1691.03 516.517 1691.08 516.495 1691.09 516.497L1691.1 516.499L1691.11 516.485C1691.76 516.261 1692.4 516.048 1693.01 515.831C1695.3 515.052 1697.21 514.398 1698.56 513.941C1699.94 513.474 1700.72 513.199 1700.72 513.199L1679.98 506.712C1678.65 507.389 1668.09 512.831 1658.73 517.836C1658.41 517.997 1658.09 518.17 1657.77 518.345C1656.89 518.811 1656.04 519.267 1655.19 519.711C1649.5 522.79 1644.85 525.385 1643.98 526.151C1643.95 526.188 1643.92 526.224 1643.9 526.249C1643.89 526.274 1643.87 526.299 1643.87 526.312Z" fill="white"/>
<g opacity="0.1">
<path d="M1643.87 526.312C1643.86 526.326 1643.86 526.339 1643.86 526.339C1643.86 526.366 1643.87 526.394 1643.88 526.436C1644.04 526.973 1645.94 527.676 1648.09 528.263C1648.11 528.267 1648.14 528.27 1648.16 528.287C1650.8 528.98 1653.76 529.485 1654.28 529.229C1654.97 528.886 1677.55 521.133 1690.98 516.536C1688.77 517.26 1659.88 526.68 1655.19 519.711C1649.5 522.79 1644.85 525.385 1643.98 526.151C1643.95 526.188 1643.92 526.224 1643.9 526.249C1643.89 526.274 1643.87 526.299 1643.87 526.312Z" fill="black"/>
</g>
<path d="M1361.02 512.126L1361.02 512.139C1360.64 514.981 1376.16 517.998 1378.38 517.67C1380.8 517.316 1560.09 473.116 1560.09 473.116L1500.75 439.908C1500.23 440.178 1499.57 440.524 1498.78 440.921C1498.51 441.06 1498.21 441.211 1497.91 441.36C1485.29 447.815 1447.59 467.108 1414.64 484.118C1413.98 484.451 1413.34 484.786 1412.7 485.12C1411.82 485.56 1410.96 486.015 1410.1 486.456C1387.26 498.249 1367.43 508.559 1361.02 512.126Z" fill="white"/>
<path d="M1361.02 512.126C1377.81 502.78 1486.53 447.18 1500.75 439.908L1493.24 435.697C1493.24 435.697 1365.54 508.305 1361.58 511.345C1361.24 511.612 1361.06 511.859 1361.02 512.126Z" fill="#FFC800"/>
<path d="M1361.02 512.126C1377.81 502.78 1486.53 447.18 1500.75 439.908L1493.24 435.697C1493.24 435.697 1365.54 508.305 1361.58 511.345C1361.24 511.612 1361.06 511.859 1361.02 512.126Z" fill="#034C51"/>
<path opacity="0.1" d="M1361.02 512.126L1361.02 512.139C1360.64 514.981 1376.16 517.998 1378.38 517.67C1380.8 517.316 1560.09 473.116 1560.09 473.116L1500.75 439.908C1500.75 439.908 1513.87 459.712 1473.45 482.047C1445.89 497.268 1418.7 497.548 1410.1 486.456C1387.26 498.249 1367.43 508.559 1361.02 512.126Z" fill="black"/>
<path d="M1443.99 469.613C1447.62 478.721 1458.02 483.223 1464.49 486.875C1481.69 496.566 1494.32 502.413 1503.02 486.785C1504.15 484.763 1504.88 482.838 1505.28 481.004C1508.01 468.702 1495.96 460.759 1489.87 456.44C1489.86 456.425 1489.86 456.425 1489.86 456.425C1482.52 451.206 1477.3 447.762 1473.37 445.457C1466.96 441.679 1463.99 440.914 1460.88 440.389C1457.23 439.777 1448.81 439.585 1444.05 454.44C1442.08 460.625 1442.36 465.565 1443.99 469.613Z" fill="white"/>
<path d="M1445.36 457.753C1444.12 467.023 1448.91 475.315 1456.06 476.273C1463.21 477.231 1470.02 470.494 1471.26 461.224C1472.5 451.955 1467.71 443.663 1460.56 442.705C1453.41 441.746 1446.61 448.484 1445.36 457.753Z" fill="#1ABEC8"/>
<path d="M1717.29 489.676L1720.15 491.173L1726.57 494.531C1732.97 492.715 1741.78 490.243 1751.29 487.579C1775.23 480.889 1803.54 473.062 1808.93 472.006C1808.74 472.034 1808.51 472.071 1808.25 472.119C1808.07 472.148 1807.86 472.189 1807.64 472.227C1807.39 472.274 1807.11 472.319 1806.82 472.375C1806.67 472.408 1806.52 472.429 1806.35 472.46C1805.79 472.562 1805.17 472.669 1804.48 472.794C1803.89 472.905 1803.26 473.024 1802.58 473.15C1800.99 473.439 1799.19 473.783 1797.21 474.155C1796.61 474.279 1796 474.387 1795.37 474.507C1794.82 474.608 1794.25 474.722 1793.66 474.833C1793.34 474.899 1793.03 474.953 1792.71 475.005C1791.77 475.191 1790.8 475.374 1789.8 475.565C1789.16 475.697 1788.52 475.814 1787.86 475.944C1780.3 477.401 1771.5 479.1 1762.74 480.805L1760.36 481.26C1757.21 481.883 1754.06 482.493 1751.01 483.088C1745.21 484.225 1739.69 485.291 1734.86 486.233C1734.08 486.387 1733.33 486.544 1732.59 486.689C1729.98 487.195 1727.61 487.651 1725.56 488.055L1725.53 488.066C1724.9 488.185 1724.3 488.308 1723.73 488.422C1723.44 488.477 1723.16 488.535 1722.9 488.581C1722.76 488.616 1722.62 488.639 1722.48 488.661C1719.2 489.308 1717.29 489.676 1717.29 489.676Z" fill="#FFC800"/>
<path d="M1717.29 489.676L1720.15 491.173L1726.57 494.531C1732.97 492.715 1741.78 490.243 1751.29 487.579C1775.23 480.889 1803.54 473.062 1808.93 472.006C1808.74 472.034 1808.51 472.071 1808.25 472.119C1808.07 472.148 1807.86 472.189 1807.64 472.227C1807.39 472.274 1807.11 472.319 1806.82 472.375C1806.67 472.408 1806.52 472.429 1806.35 472.46C1805.79 472.562 1805.17 472.669 1804.48 472.794C1803.89 472.905 1803.26 473.024 1802.58 473.15C1800.99 473.439 1799.19 473.783 1797.21 474.155C1796.61 474.279 1796 474.387 1795.37 474.507C1794.82 474.608 1794.25 474.722 1793.66 474.833C1793.34 474.899 1793.03 474.953 1792.71 475.005C1791.77 475.191 1790.8 475.374 1789.8 475.565C1789.16 475.697 1788.52 475.814 1787.86 475.944C1780.3 477.401 1771.5 479.1 1762.74 480.805L1760.36 481.26C1757.21 481.883 1754.06 482.493 1751.01 483.088C1745.21 484.225 1739.69 485.291 1734.86 486.233C1734.08 486.387 1733.33 486.544 1732.59 486.689C1729.98 487.195 1727.61 487.651 1725.56 488.055L1725.53 488.066C1724.9 488.185 1724.3 488.308 1723.73 488.422C1723.44 488.477 1723.16 488.535 1722.9 488.581C1722.76 488.616 1722.62 488.639 1722.48 488.661C1719.2 489.308 1717.29 489.676 1717.29 489.676Z" fill="#034C51"/>
<path d="M1726.57 494.532L1743.78 503.546C1743.78 503.546 1786.71 490.209 1812.39 481.688C1812.57 481.632 1812.67 481.604 1812.67 481.604C1812.79 481.565 1812.9 481.526 1813.01 481.487C1815.7 480.598 1818.19 479.764 1820.41 479.016C1827.05 476.729 1831.29 475.137 1831.18 474.824C1830.69 473.401 1815.73 471.057 1809.5 471.919C1809.45 471.926 1809.41 471.933 1809.34 471.938C1809.23 471.95 1809.09 471.972 1808.94 472.006C1803.72 473.032 1777.1 480.367 1753.71 486.9C1753.53 486.957 1753.36 487.002 1753.18 487.046C1752.54 487.232 1751.91 487.405 1751.29 487.58C1741.78 490.243 1732.97 492.715 1726.57 494.532Z" fill="white"/>
<g opacity="0.1">
<path d="M1726.57 494.531L1743.79 503.546C1743.79 503.546 1786.71 490.209 1812.39 481.688C1808.18 482.848 1764.86 495.383 1755.11 491.53C1752.81 490.621 1751.63 489.065 1751.29 487.579C1741.78 490.243 1732.98 492.715 1726.57 494.531Z" fill="black"/>
</g>
<path d="M1683.47 462.495L1724.55 489.495C1724.55 489.495 1729.14 451.793 1732.44 424.672C1732.55 423.736 1732.66 422.814 1732.77 421.905C1732.85 421.157 1732.95 420.423 1733.04 419.701C1734.16 410.415 1735.05 402.931 1735.47 399.538C1736.77 388.619 1735.89 386.247 1732.77 387.635C1729.64 389.021 1715.33 398.454 1710.81 402.913C1707.1 406.571 1696.78 430.348 1689.94 446.73C1689.88 446.871 1689.83 446.999 1689.78 447.142C1689.38 448.093 1688.98 449.018 1688.62 449.906C1685.57 457.277 1683.47 462.495 1683.47 462.495Z" fill="white"/>
<g opacity="0.15">
<path d="M1683.47 462.495L1724.55 489.495C1724.55 489.495 1729.14 451.793 1732.44 424.672C1724.04 438.223 1708.63 456.213 1688.62 449.906C1685.57 457.277 1683.47 462.495 1683.47 462.495Z" fill="black"/>
</g>
<path d="M1752.14 516.633C1758.17 505.938 1740.36 493.102 1719.88 480.401C1699.41 467.7 1497.35 344.216 1467.36 331.597C1437.37 318.978 1399.58 325.688 1391.06 342.643C1378.29 368.087 1414.03 395.628 1545.41 471.953C1562.62 481.954 1641.53 512.456 1687.36 518.748C1736.36 525.475 1749.17 521.892 1752.14 516.633Z" fill="#FFC800"/>
<path d="M1752.14 516.633C1758.17 505.938 1740.36 493.102 1719.88 480.401C1699.41 467.7 1497.35 344.216 1467.36 331.597C1437.37 318.978 1399.58 325.688 1391.06 342.643C1378.29 368.087 1414.03 395.628 1545.41 471.953C1562.62 481.954 1641.53 512.456 1687.36 518.748C1736.36 525.475 1749.17 521.892 1752.14 516.633Z" fill="white"/>
<path opacity="0.15" d="M1545.4 471.953C1562.62 481.96 1641.54 512.455 1687.36 518.746C1736.36 525.476 1749.17 521.897 1752.14 516.634C1755.29 511.041 1751.92 504.86 1745.06 498.414C1744.97 499.528 1744.63 500.61 1744.03 501.67C1741.32 506.454 1729.7 509.702 1685.25 503.595C1643.67 497.886 1588.34 456.177 1572.72 447.105C1453.52 377.848 1404.8 366.89 1416.4 343.8C1421.44 333.749 1437.83 327.663 1456.19 327.856C1428.65 320.757 1398.54 327.733 1391.07 342.645C1378.29 368.088 1414.03 395.635 1545.4 471.953Z" fill="black"/>
<path d="M1689.06 470.24L1684.41 467.444L1683.44 474.7L1688.09 477.496L1689.06 470.24Z" fill="black"/>
<path d="M1680.58 465.139L1675.62 462.151L1674.65 469.408L1679.61 472.395L1680.58 465.139Z" fill="black"/>
<path d="M1671.79 459.846L1666.82 456.859L1665.85 464.114L1670.81 467.101L1671.79 459.846Z" fill="black"/>
<path d="M1662.99 454.552L1658.03 451.565L1657.05 458.821L1662.02 461.808L1662.99 454.552Z" fill="black"/>
<path d="M1654.2 449.26L1649.23 446.273L1648.26 453.529L1653.22 456.516L1654.2 449.26Z" fill="black"/>
<path d="M1645.4 443.967L1640.44 440.98L1639.46 448.236L1644.43 451.223L1645.4 443.967Z" fill="black"/>
<path d="M1636.6 438.673L1631.64 435.686L1630.67 442.942L1635.63 445.929L1636.6 438.673Z" fill="black"/>
<path d="M1627.81 433.381L1622.85 430.394L1621.88 437.65L1626.84 440.637L1627.81 433.381Z" fill="black"/>
<path d="M1619.02 428.088L1614.05 425.101L1613.08 432.357L1618.04 435.344L1619.02 428.088Z" fill="black"/>
<path d="M1610.22 422.795L1605.26 419.808L1604.29 427.064L1609.25 430.051L1610.22 422.795Z" fill="black"/>
<path d="M1601.42 417.502L1596.46 414.515L1595.49 421.771L1600.45 424.758L1601.42 417.502Z" fill="black"/>
<path d="M1592.63 412.209L1587.67 409.222L1586.69 416.478L1591.66 419.465L1592.63 412.209Z" fill="black"/>
<path d="M1583.83 406.917L1578.87 403.93L1577.9 411.186L1582.86 414.173L1583.83 406.917Z" fill="black"/>
<path d="M1575.04 401.623L1570.07 398.636L1569.1 405.892L1574.06 408.879L1575.04 401.623Z" fill="black"/>
<path d="M1566.24 396.33L1561.28 393.344L1560.31 400.6L1565.27 403.586L1566.24 396.33Z" fill="black"/>
<path d="M1557.45 391.037L1552.49 388.05L1551.51 395.306L1556.48 398.293L1557.45 391.037Z" fill="black"/>
<path d="M1548.65 385.745L1543.69 382.758L1542.72 390.014L1547.68 393.001L1548.65 385.745Z" fill="black"/>
<path d="M1539.86 380.452L1534.9 377.465L1533.92 384.721L1538.89 387.708L1539.86 380.452Z" fill="black"/>
<path d="M1531.06 375.159L1526.1 372.172L1525.13 379.429L1530.09 382.415L1531.06 375.159Z" fill="black"/>
<path d="M1522.27 369.866L1517.3 366.879L1516.33 374.135L1521.3 377.122L1522.27 369.866Z" fill="black"/>
<path d="M1513.47 364.573L1508.51 361.586L1507.54 368.842L1512.5 371.829L1513.47 364.573Z" fill="black"/>
<path d="M1499.72 356.294L1498.74 363.55L1503.71 366.537L1504.68 359.281L1499.72 356.294Z" fill="black"/>
<path d="M1490.92 351.001L1489.95 358.257L1494.91 361.244L1495.88 353.988L1490.92 351.001Z" fill="black"/>
<path d="M1482.12 345.707L1481.15 352.963L1486.11 355.95L1487.09 348.694L1482.12 345.707Z" fill="black"/>
<path d="M1473.33 340.415L1472.36 347.671L1477.32 350.658L1478.29 343.402L1473.33 340.415Z" fill="black"/>
<path d="M1449.32 334.175C1446.74 331.495 1443.51 329.664 1440.14 328.302L1439.49 333.13C1442.66 333.432 1445.88 333.783 1449.32 334.175Z" fill="black"/>
<path d="M1428.83 325.619L1427.94 332.289C1430.42 332.39 1432.9 332.573 1435.4 332.785L1436.18 326.956C1433.78 326.282 1431.32 325.83 1428.83 325.619Z" fill="black"/>
<path d="M1404.08 331.888C1406.16 332.112 1408.1 332.005 1410.04 332.034C1411.98 332.105 1413.85 331.975 1415.73 332.05C1418.46 331.996 1421.16 332.058 1423.82 332.157L1424.71 325.501C1421.43 325.537 1418.16 325.913 1415.03 326.797C1413.06 327.252 1411.17 328.031 1409.32 328.814C1408.4 329.18 1407.51 329.713 1406.63 330.233C1405.76 330.754 1404.9 331.277 1404.08 331.888Z" fill="black"/>
<path d="M1563.94 413.498L1621.83 451.569C1621.83 451.569 1727.26 412.02 1803.02 382.946C1803.1 382.916 1803.16 382.897 1803.19 382.887L1803.21 382.878C1843.65 367.347 1874.55 355.222 1874.17 354.545C1873.2 352.786 1854.22 350.446 1846.58 350.455C1845.68 350.442 1844.92 350.477 1844.38 350.553C1841.09 350.995 1724.27 377.307 1642.46 395.766C1598.04 405.793 1563.94 413.498 1563.94 413.498Z" fill="white"/>
<g opacity="0.1">
<path d="M1563.94 413.498L1621.83 451.569C1621.83 451.569 1727.26 412.02 1803.02 382.946C1797.12 384.993 1662.03 431.804 1646.79 420.012C1641.03 415.561 1640.65 406.02 1642.46 395.766C1598.04 405.793 1563.94 413.498 1563.94 413.498Z" fill="black"/>
</g>
<path d="M1555.46 408.192L1572.65 419.498C1622.31 406.098 1828.23 354.987 1845.48 350.699C1845.68 350.645 1845.86 350.601 1846.01 350.567C1846.18 350.536 1846.32 350.5 1846.43 350.488C1846.5 350.47 1846.54 350.462 1846.59 350.454C1845.68 350.441 1844.93 350.476 1844.39 350.553C1839.31 351.231 1555.46 408.192 1555.46 408.192Z" fill="#FFC800"/>
<path d="M1555.46 408.192L1572.65 419.498C1622.31 406.098 1828.23 354.987 1845.48 350.699C1845.68 350.645 1845.86 350.601 1846.01 350.567C1846.18 350.536 1846.32 350.5 1846.43 350.488C1846.5 350.47 1846.54 350.462 1846.59 350.454C1845.68 350.441 1844.93 350.476 1844.39 350.553C1839.31 351.231 1555.46 408.192 1555.46 408.192Z" fill="#034C51"/>
<path d="M1610.47 410.927C1614.1 420.035 1624.49 424.537 1630.97 428.189C1648.16 437.88 1660.79 443.727 1669.5 428.098C1670.63 426.077 1671.36 424.152 1671.76 422.318C1674.49 410.016 1662.44 402.073 1656.35 397.755C1656.34 397.739 1656.34 397.739 1656.34 397.739C1649 392.519 1643.77 389.076 1639.85 386.771C1633.44 382.993 1630.46 382.227 1627.35 381.702C1623.7 381.091 1615.28 380.899 1610.52 395.754C1608.55 401.939 1608.84 406.879 1610.47 410.927Z" fill="white"/>
<path d="M1622.54 417.586C1615.39 416.627 1610.6 408.336 1611.84 399.066C1613.08 389.797 1619.89 383.059 1627.04 384.018C1634.19 384.976 1638.98 393.268 1637.74 402.537C1636.49 411.807 1629.69 418.544 1622.54 417.586Z" fill="#1ABEC8"/>
<path d="M1802.58 473.15C1803.25 473.022 1803.89 472.904 1804.48 472.794C1803.89 472.904 1803.26 473.024 1802.58 473.15Z" fill="#FFC800"/>
<path d="M1400.79 887.988L1406.67 903.307C1406.67 903.307 1404.84 906.93 1396.46 912.331C1388.08 917.733 1381.19 914.47 1381.19 914.47L1374.05 899.598L1400.79 887.988Z" fill="#E0D1C0"/>
<path d="M1253.88 660.036C1254.2 661.334 1254.53 662.614 1254.88 663.851C1261.25 686.608 1272.13 723.902 1285.26 747.905C1285.27 747.914 1285.27 747.923 1285.27 747.923L1285.52 748.391C1290.9 758.141 1296.67 765.638 1302.65 768.959C1323.36 780.466 1350.31 759.545 1342.16 729.828C1334.01 700.12 1300.73 594.411 1299.57 586.746C1298.8 581.633 1288.93 574.038 1274.78 571.813C1267.71 570.7 1259.58 570.938 1250.98 573.482L1246.07 577.155C1246.07 577.155 1245.88 627.51 1253.88 660.036Z" fill="#034C51"/>
<path d="M1285.26 747.906C1285.27 747.915 1285.27 747.924 1285.27 747.924L1285.52 748.392L1316.19 805.971L1368.62 904.376C1368.62 904.376 1377.07 904.765 1392.14 898.91C1407.22 893.055 1409.54 882.51 1409.54 882.51C1409.54 882.51 1365.4 783.866 1348.45 744.771C1345.12 737.097 1342.85 731.719 1342.16 729.829C1337.94 718.322 1327.58 701.445 1300.73 710.647C1274.26 719.726 1284.95 747.12 1285.26 747.906Z" fill="#034C51"/>
<path opacity="0.15" d="M1253.88 660.035C1254.2 661.333 1254.53 662.614 1254.88 663.85C1261.25 686.608 1272.12 723.902 1285.26 747.905C1285.27 747.914 1285.27 747.922 1285.27 747.922L1285.52 748.39L1316.19 805.969C1326.96 784.987 1340.42 759.076 1348.45 744.77C1345.12 737.095 1342.84 731.717 1342.16 729.827C1334 700.119 1300.73 594.411 1299.57 586.745C1298.8 581.632 1288.93 574.037 1274.77 571.812C1267.75 582.877 1260.03 599.144 1257.85 619.35C1256.67 630.221 1255.23 644.475 1253.88 660.035Z" fill="black"/>
<path d="M1379.61 965.129C1393.05 956.372 1411.01 937.357 1417.05 930.689C1423.08 924.021 1423.47 923.675 1420.94 919.445C1420.8 919.224 1420.67 918.998 1420.52 918.766C1417.93 914.527 1413.74 908.424 1413.74 908.424C1413.74 908.424 1410.49 899.7 1408.4 899.103C1406.31 898.501 1393.72 906.956 1389.01 908.443C1384.31 909.93 1379.21 909.971 1377.72 913.072C1376.23 916.178 1373.46 930.444 1364.74 939.486C1363.43 940.854 1362.13 942.147 1360.89 943.389C1353.88 950.4 1348.5 955.893 1350.81 964.075C1353.54 973.704 1366.18 973.887 1379.61 965.129Z" fill="#1ABEC8"/>
<path d="M1379.61 965.128C1393.05 956.371 1411.01 937.357 1417.05 930.689C1423.08 924.021 1423.47 923.674 1420.94 919.444C1420.8 919.224 1420.67 918.997 1420.52 918.765C1403.6 940.154 1385.6 952.482 1385.6 952.482C1385.6 952.482 1384.6 951.353 1376.6 944.827C1372.73 941.669 1366.39 942.103 1360.89 943.388C1353.88 950.399 1348.5 955.893 1350.81 964.075C1353.54 973.704 1366.18 973.886 1379.61 965.128Z" fill="white"/>
<path d="M1250.98 789.729C1251.15 811.154 1261.92 816.391 1273.09 816.452C1277.74 816.47 1282.47 815.596 1286.53 814.607C1298.5 811.692 1299.55 803.594 1302.59 791.469V791.46C1303.15 789.208 1303.78 786.824 1304.56 784.307C1309.55 768.19 1337.56 689.169 1348.3 661.599C1359.06 634.019 1352.14 616.966 1352.14 616.966C1352.07 614.405 1349.13 612.656 1344.42 611.57C1325.16 607.146 1276.27 613.866 1271.96 622.803C1271.93 622.856 1271.9 622.909 1271.88 622.971C1267.42 632.897 1256.87 715.098 1252.7 762.362C1251.8 772.615 1251.19 781.225 1251.01 787.098C1250.98 787.999 1250.97 788.882 1250.98 789.729Z" fill="#034C51"/>
<path opacity="0.15" d="M1273.09 816.452C1277.74 816.47 1282.47 815.596 1286.53 814.606C1298.5 811.692 1299.55 803.594 1302.59 791.469V791.46C1303.15 789.208 1303.78 786.824 1304.56 784.307C1309.55 768.19 1337.56 689.169 1348.3 661.598C1359.06 634.019 1352.14 616.966 1352.14 616.966C1352.07 614.405 1349.13 612.656 1344.42 611.57C1338.51 633.842 1323.01 689.99 1308.78 721.774C1303.18 734.27 1298 745.697 1293.05 757.716C1286.09 774.593 1279.6 792.643 1273.09 816.452Z" fill="black"/>
<path d="M1245.3 942.737L1238.69 960.383C1238.69 960.383 1234.36 962.109 1223.05 960.383C1211.73 958.657 1208.28 950.601 1208.28 950.601L1213.46 932.379L1245.3 942.737Z" fill="#E0D1C0"/>
<path d="M1168.38 992.987C1186.61 995.68 1216.53 992.987 1226.79 991.839C1237.05 990.691 1237.65 990.691 1238.69 985.127C1238.74 984.836 1238.8 984.535 1238.85 984.226C1239.85 978.61 1240.88 970.167 1240.88 970.167C1240.88 970.167 1244.72 960.188 1243.38 958.086C1242.04 955.976 1224.77 953.671 1219.59 951.366C1214.41 949.07 1210 945.228 1206.36 946.765C1202.71 948.301 1189.48 958.466 1175.1 959.614C1172.93 959.791 1170.82 959.914 1168.81 960.038C1157.45 960.735 1148.64 961.371 1144.4 970.167C1139.42 980.526 1150.16 990.302 1168.38 992.987Z" fill="#1ABEC8"/>
<path d="M1168.38 992.987C1186.6 995.68 1216.52 992.987 1226.79 991.839C1237.05 990.691 1237.65 990.691 1238.69 985.127C1238.74 984.836 1238.8 984.535 1238.85 984.226C1208.02 989.755 1183.15 986.664 1183.15 986.664C1183.15 986.664 1183.15 984.933 1181.24 973.232C1180.31 967.571 1174.52 963.12 1168.81 960.038C1157.44 960.735 1148.64 961.371 1144.4 970.167C1139.42 980.526 1150.16 990.302 1168.38 992.987Z" fill="white"/>
<path opacity="0.36" d="M1250.98 789.728C1254.53 777.665 1256.51 768.878 1257.87 759.42C1259.05 751.154 1259.75 742.358 1260.6 730.41C1262.64 701.744 1278.2 626.273 1278.2 626.273L1271.88 622.97C1267.42 632.896 1256.86 715.097 1252.69 762.361C1251.79 772.614 1251.18 781.224 1251.01 787.097C1250.98 787.998 1250.97 788.881 1250.98 789.728Z" fill="white"/>
<path d="M1207.13 931.159C1217.03 940.723 1228.55 944.397 1238.69 945.395C1253.3 946.835 1265.05 942.746 1265.05 942.746C1265.05 942.746 1265.49 941.297 1266.26 938.754C1271.49 921.542 1291.96 853.931 1294.97 842.292C1297.03 834.308 1302.11 811.63 1302.59 791.469V791.46C1302.92 777.86 1301.15 765.399 1294.97 759.367C1294.35 758.758 1293.71 758.21 1293.05 757.716C1281.89 749.194 1265.98 755.287 1257.87 759.42C1254.67 761.045 1252.7 762.361 1252.7 762.361L1207.13 931.159Z" fill="#034C51"/>
<path opacity="0.15" d="M1238.69 945.396C1253.3 946.836 1265.05 942.747 1265.05 942.747C1265.05 942.747 1291.52 855.654 1294.97 842.293C1297.03 834.31 1302.11 811.631 1302.59 791.47V791.461C1302.92 777.861 1301.15 765.4 1294.97 759.369C1294.35 758.759 1293.71 758.212 1293.05 757.717C1286.09 774.593 1279.6 792.644 1273.09 816.453C1269.29 830.327 1265.49 846.161 1261.6 864.865C1253.3 904.72 1244.77 930.313 1238.69 945.396Z" fill="black"/>
<path opacity="0.36" d="M1207.13 931.161C1217.03 940.725 1228.55 944.398 1238.69 945.396C1253.3 946.836 1265.05 942.747 1265.05 942.747C1265.05 942.747 1265.49 941.299 1266.26 938.755C1225.28 944.769 1212.8 926.047 1212.8 926.047C1212.8 926.047 1239.35 827.077 1248.36 798.305C1249.31 795.258 1250.19 792.406 1250.98 789.73C1254.53 777.667 1256.51 768.88 1257.87 759.422C1254.67 761.046 1252.7 762.362 1252.7 762.362L1207.13 931.161Z" fill="white"/>
<path d="M1359.23 335.669C1359.23 335.669 1375.15 358.878 1366.71 360.412C1358.27 361.947 1294 325.891 1272.14 317.066C1250.28 308.241 1221.32 294.431 1211.92 285.607C1202.52 276.784 1196.19 270.647 1224.96 270.263C1253.74 269.879 1323.55 297.691 1359.23 335.669Z" fill="#034C51"/>
<path opacity="0.15" d="M1359.23 335.669C1359.23 335.669 1375.15 358.878 1366.71 360.412C1358.27 361.947 1294 325.891 1272.14 317.066C1250.28 308.241 1221.32 294.431 1211.92 285.607C1202.52 276.784 1196.19 270.647 1224.96 270.263C1253.74 269.879 1323.55 297.691 1359.23 335.669Z" fill="black"/>
<path d="M1265.39 279.228C1265.39 279.228 1248.56 280.716 1242.23 299.848C1235.9 318.981 1244.67 331.64 1244.96 338.402C1245.25 345.163 1237.48 358.973 1243.38 368.036C1249.28 377.099 1269.13 389.183 1281.07 387.025C1293.01 384.867 1292.17 356.24 1278.2 332.072C1264.24 307.904 1273.01 282.056 1269.56 279.228C1266.11 276.4 1265.39 279.228 1265.39 279.228Z" fill="black"/>
<path d="M1253.16 325.31C1258.34 350.196 1273.44 346.602 1273.44 346.602V366.887C1273.44 366.887 1284.67 371.629 1293.3 368.759C1295.31 368.088 1297 367.028 1298.39 365.783C1302.99 361.729 1304.52 355.813 1304.52 355.813C1304.52 355.813 1305.67 299.276 1300.78 293.659C1295.88 288.051 1261.34 276.677 1258.92 281.869C1258.92 281.869 1257.89 283.609 1256.62 286.727C1253.73 293.809 1249.56 308.036 1253.16 325.31Z" fill="#FEBC8C"/>
<path opacity="0.15" d="M1287.55 320.709C1282.89 331.253 1278.87 341.612 1285.77 352.36C1292.68 363.098 1297.08 365.403 1297.08 365.403C1297.08 365.403 1297.56 365.589 1298.39 365.783C1302.99 361.729 1304.52 355.813 1304.52 355.813C1304.52 355.813 1305.67 299.276 1300.78 293.659C1295.88 288.051 1261.34 276.677 1258.92 281.869C1258.92 281.869 1257.89 283.609 1256.62 286.727C1265.06 289.137 1274.47 292.396 1280.01 296.158C1291.91 304.212 1292.21 310.156 1287.55 320.709Z" fill="black"/>
<path d="M1281.07 280.545C1281.07 280.545 1301.06 295.533 1295.45 313.659C1289.84 331.784 1282.08 342.43 1293.87 354.082C1305.67 365.734 1296.17 373.071 1307.83 389.183C1319.48 405.294 1347.39 426.729 1364.22 427.16C1381.05 427.592 1393.28 420.255 1389.1 404.144C1384.93 388.032 1344.94 372.783 1342.78 359.261C1340.62 345.738 1339.04 317.543 1331.27 305.315C1323.51 293.087 1295.45 274.045 1281.07 280.545Z" fill="black"/>
<path d="M1258.78 272.8L1261.51 274.195L1312.05 299.964L1339.77 314.094C1339.77 314.094 1340.31 307.224 1340.34 298.869C1340.37 290.047 1339.83 279.573 1337.46 273.815C1334.59 266.821 1329.38 265.638 1324.96 265.346C1324.28 265.302 1323.63 265.276 1323.01 265.258C1323 265.258 1323 265.258 1323 265.258C1321.13 265.214 1319.53 265.196 1318.47 264.746C1314.73 263.165 1317.75 247.198 1299.91 247.198C1289.93 247.198 1278.23 255.226 1269.87 262.282C1263.29 267.837 1258.78 272.8 1258.78 272.8Z" fill="#034C51"/>
<path d="M1258.78 272.799L1339.77 314.094C1339.77 314.094 1340.31 307.223 1340.34 298.869C1331.55 290.453 1307.89 270.936 1269.87 262.282C1263.29 267.836 1258.78 272.799 1258.78 272.799Z" fill="white"/>
<path opacity="0.61" d="M1258.77 272.8L1261.51 274.195C1265.56 270.53 1273.24 263.704 1278.2 259.906C1285.21 254.537 1294.02 249.742 1302.65 250.316C1311.27 250.89 1311.09 260.675 1313.96 264.507C1315.19 266.132 1319 265.982 1322.99 265.258C1321.13 265.214 1319.53 265.196 1318.47 264.746C1314.73 263.165 1317.75 247.198 1299.91 247.198C1289.93 247.198 1278.23 255.226 1269.87 262.282C1263.29 267.837 1258.77 272.8 1258.77 272.8Z" fill="white"/>
<path opacity="0.15" d="M1312.05 299.965L1339.77 314.094C1339.77 314.094 1340.31 307.224 1340.34 298.87C1340.37 290.047 1339.83 279.574 1337.46 273.816C1334.59 266.821 1329.38 265.638 1324.96 265.347C1324.58 276.403 1321.96 290.877 1312.05 299.965Z" fill="black"/>
<path d="M1204.04 275.22C1205.55 272.5 1213.97 270.848 1255.27 280.545C1296.57 290.241 1338.13 319.94 1353.66 335.095C1369.21 350.249 1368.06 359.848 1368.06 359.848C1369.3 358.674 1370.19 357.331 1370.73 355.839C1375.18 343.537 1356.14 321.3 1322.6 299.223C1285 274.487 1242.22 263.554 1221.13 265.85C1209.66 267.104 1205.61 269.762 1204.3 271.926C1203.2 273.745 1204.04 275.22 1204.04 275.22Z" fill="#034C51"/>
<path d="M1272.02 306.761C1270.66 306.293 1270.19 304.128 1270.95 301.926C1271.71 299.724 1273.43 298.318 1274.78 298.786C1276.13 299.254 1276.61 301.419 1275.84 303.621C1275.08 305.823 1273.37 307.229 1272.02 306.761Z" fill="black"/>
<path d="M1256.62 300.597C1255.42 300.181 1254.99 298.255 1255.67 296.295C1256.35 294.336 1257.88 293.085 1259.08 293.502C1260.28 293.918 1260.7 295.844 1260.03 297.803C1259.35 299.762 1257.82 301.013 1256.62 300.597Z" fill="black"/>
<path opacity="0.61" d="M1204.3 271.926C1213.49 268.481 1228.83 267.828 1251.01 272.182C1290.1 279.856 1329.11 305.36 1354.35 329.204C1366.58 340.747 1370.22 349.692 1370.73 355.839C1375.18 343.537 1356.14 321.3 1322.6 299.223C1285 274.487 1242.22 263.554 1221.13 265.85C1209.66 267.104 1205.61 269.762 1204.3 271.926Z" fill="white"/>
<path d="M1243.56 565.207C1243.53 571.751 1243.15 579.116 1247.41 580.414C1251.82 581.757 1264.77 581.757 1264.77 581.757L1267.98 567.115L1308.79 380.937C1308.79 380.937 1307.22 373.227 1289.11 374.879C1271 376.521 1267.74 382.085 1263.14 388.797C1258.53 395.508 1244.53 429.844 1243.57 459.764C1242.61 489.692 1243.57 557.78 1243.57 564.492C1243.57 564.73 1243.57 564.969 1243.56 565.207Z" fill="#FCFFFF"/>
<path d="M1247.41 580.415C1251.81 581.757 1264.77 581.757 1264.77 581.757L1267.98 567.115C1261.52 567.195 1252.13 566.93 1243.56 565.208C1243.53 571.752 1243.15 579.117 1247.41 580.415Z" fill="#1ABEC8"/>
<path d="M1225.73 609.29C1225.73 609.29 1223.82 621.652 1225.73 624.146C1227.65 626.639 1248.36 626.256 1248.36 626.256L1247.41 613.021L1241.65 607.65L1225.73 609.29Z" fill="#034C51"/>
<path d="M1265.24 606.693C1265.24 606.693 1262.37 628.559 1270.81 631.628C1279.25 634.697 1304.56 635.656 1329.12 631.628C1353.67 627.6 1356.74 620.852 1357.12 617.321C1357.5 613.79 1353.28 597.486 1349.64 597.486C1345.99 597.486 1265.24 606.693 1265.24 606.693Z" fill="#034C51"/>
<path d="M1282.87 618.971C1284.98 619.219 1287.29 619.351 1289.8 619.351C1309.22 619.351 1326.86 615.421 1338.48 611.88C1343.5 610.343 1347.4 608.886 1349.83 607.844C1357.89 604.391 1354.43 599.401 1350.98 584.83C1350.18 581.421 1349.86 569.517 1349.83 553.223C1349.8 539.95 1349.96 523.772 1350.19 506.895C1350.61 474.75 1351.3 440.106 1351.45 418.301C1351.49 411.245 1351.48 405.54 1351.39 401.69C1351.32 398.555 1351.18 396.656 1350.98 396.277C1350.71 395.747 1349.73 394.961 1348.25 393.972C1348.24 393.972 1348.24 393.963 1348.23 393.963C1340.86 389.097 1320.97 379.612 1311.39 375.135C1308.16 373.634 1306.1 372.689 1306.1 372.689C1304.31 373.272 1302.59 374.102 1300.93 375.17C1298.43 376.76 1296.09 378.897 1293.9 381.493C1258.2 423.768 1261.87 588.945 1260.83 595.569C1259.79 602.201 1261.59 616.446 1282.87 618.971Z" fill="#1ABEC8"/>
<path opacity="0.15" d="M1282.87 618.971C1284.98 619.219 1287.29 619.351 1289.8 619.351C1317.62 619.351 1341.78 611.297 1349.83 607.844C1357.89 604.391 1354.43 599.402 1350.98 584.83C1348.26 573.35 1351.13 465.601 1351.45 418.302C1338.68 425.225 1312.07 446.058 1307.68 500.811C1301.88 573.314 1330.27 556.438 1301.11 592.884C1292.83 603.243 1286.99 611.889 1282.87 618.971Z" fill="black"/>
<path d="M1278.2 375.661C1278.2 375.661 1246.83 387.457 1243.09 397.239C1239.35 407.021 1231.87 518.941 1229.86 543.108C1227.84 567.276 1219.5 606.117 1226.69 610.145C1233.88 614.173 1247.41 613.022 1247.41 613.022C1247.41 613.022 1241.08 466.577 1246.83 440.396C1252.58 414.214 1267.08 378.792 1278.2 375.661Z" fill="#1ABEC8"/>
<path opacity="0.36" d="M1294.86 372.689C1294.86 372.689 1297.17 373.589 1300.93 375.17C1302.85 375.965 1305.14 376.945 1307.69 378.049C1315.97 381.679 1327 386.792 1336.84 392.329C1342.27 395.385 1347.33 398.564 1351.39 401.69C1351.32 398.555 1351.18 396.656 1350.98 396.277C1350.71 395.747 1349.73 394.961 1348.25 393.972C1348.24 393.972 1348.24 393.963 1348.23 393.963C1340.86 389.097 1320.97 379.612 1311.39 375.135C1311.78 372.918 1310.33 369.651 1308.41 366.754C1302.08 368.22 1297.28 370.172 1294.86 372.689Z" fill="white"/>
<path d="M1268.41 376.239C1267.83 378.252 1268.55 380.549 1282.5 381.847C1286.42 382.209 1290.33 381.997 1293.9 381.494C1299.82 380.672 1304.86 379.074 1307.69 378.049C1309.24 377.484 1310.13 377.096 1310.13 377.096C1310.85 376.636 1311.25 375.956 1311.39 375.135C1311.78 372.918 1310.33 369.651 1308.41 366.754C1307.22 364.953 1305.85 363.301 1304.63 362.136C1300.72 358.4 1298.48 358.109 1292.15 359.848C1285.81 361.579 1271.57 359.548 1269.27 360.458C1266.97 361.367 1268.98 374.225 1268.41 376.239Z" fill="#1ABEC8"/>
<path d="M1218.25 490.646C1220.16 496.316 1223.05 498.311 1225.86 497.755C1229.52 497.04 1233.08 491.988 1234.23 485.065C1235.65 476.569 1239.64 437.862 1242.66 413.471C1244 402.679 1245.16 394.687 1245.82 393.354C1245.82 393.354 1239.54 396.277 1233.21 416.42C1226.88 436.555 1213.84 477.602 1218.25 490.646Z" fill="#1ABEC8"/>
<path opacity="0.15" d="M1225.86 497.755C1229.52 497.04 1233.08 491.988 1234.23 485.065C1235.65 476.569 1239.64 437.862 1242.66 413.471C1239.11 419.52 1234.2 430.506 1230.34 449.219C1225.59 472.145 1225.46 489.277 1225.86 497.755Z" fill="black"/>
<path d="M1203.24 530.307C1208.8 541.973 1218.85 544.958 1223.38 545.726C1224.82 545.965 1225.72 545.982 1225.72 545.982C1232.07 551.74 1231.86 516.61 1232.66 505.995C1233.44 495.389 1230.34 494.62 1223.82 491.176C1223.68 491.106 1223.54 491.035 1223.4 490.964C1216.87 487.67 1206.92 486.249 1204.25 491.176C1201.51 496.21 1195.9 514.914 1203.24 530.307Z" fill="#1ABEC8"/>
<path opacity="0.15" d="M1214.79 522.103C1215.22 531.552 1219.16 539.659 1223.38 545.726C1224.82 545.965 1225.72 545.982 1225.72 545.982C1232.07 551.74 1231.86 516.61 1232.66 505.995C1233.44 495.389 1230.34 494.621 1223.82 491.176C1223.68 491.106 1223.54 491.035 1223.4 490.964C1219.98 496.034 1214.11 507.046 1214.79 522.103Z" fill="black"/>
<path d="M1200.37 502.701L1222.85 521.224C1224.71 522.751 1227.45 522.486 1228.97 520.633L1253.31 491.1C1254.84 489.247 1254.57 486.506 1252.72 484.979L1230.24 466.457C1228.39 464.929 1225.64 465.194 1224.12 467.047L1199.78 496.58C1198.26 498.433 1198.52 501.174 1200.37 502.701Z" fill="#034C51"/>
<path opacity="0.15" d="M1200.37 502.701L1222.85 521.224C1224.71 522.751 1227.45 522.486 1228.97 520.633L1253.31 491.1C1254.84 489.247 1254.57 486.506 1252.72 484.979L1230.24 466.457C1228.39 464.929 1225.64 465.194 1224.12 467.047L1199.78 496.58C1198.26 498.433 1198.52 501.174 1200.37 502.701Z" fill="black"/>
<path d="M1199.58 499.001L1222.06 517.524C1223.92 519.051 1226.66 518.786 1228.18 516.933L1252.52 487.401C1254.05 485.547 1253.78 482.807 1251.93 481.279L1229.45 462.757C1227.6 461.23 1224.86 461.494 1223.33 463.347L1198.99 492.88C1197.47 494.733 1197.73 497.474 1199.58 499.001Z" fill="#034C51"/>
<path d="M1221.96 488.931C1221.71 483.956 1225.54 479.72 1230.51 479.469C1235.49 479.218 1239.72 483.048 1239.97 488.023C1240.22 492.998 1236.39 497.235 1231.42 497.485C1226.44 497.736 1222.21 493.906 1221.96 488.931Z" fill="#FCFFFF"/>
<path d="M1224.5 479.051L1226.05 477.661C1227.21 476.61 1227.31 474.811 1226.26 473.643L1217.65 464.078C1216.6 462.91 1214.8 462.815 1213.63 463.866L1212.09 465.257C1210.92 466.308 1210.82 468.107 1211.88 469.274L1220.48 478.84C1221.53 480.007 1223.33 480.102 1224.5 479.051Z" fill="#E0D1C0"/>
<path d="M1218.23 483.873L1219.78 482.483C1220.95 481.432 1221.04 479.633 1219.99 478.465L1211.38 468.9C1210.33 467.732 1208.53 467.637 1207.37 468.688L1205.82 470.079C1204.65 471.13 1204.56 472.928 1205.61 474.096L1214.22 483.661C1215.27 484.829 1217.07 484.924 1218.23 483.873Z" fill="#E0D1C0"/>
<path d="M1212.72 489.656L1214.27 488.265C1215.43 487.214 1215.53 485.415 1214.48 484.248L1207.31 476.279C1206.26 475.111 1204.46 475.016 1203.29 476.067L1201.74 477.458C1200.58 478.509 1200.48 480.307 1201.53 481.475L1208.7 489.444C1209.75 490.612 1211.55 490.706 1212.72 489.656Z" fill="#E0D1C0"/>
<path d="M1208.58 496.75L1210.13 495.36C1211.29 494.309 1211.39 492.51 1210.34 491.342L1205.03 485.442C1203.98 484.274 1202.18 484.179 1201.01 485.23L1199.47 486.621C1198.3 487.672 1198.2 489.47 1199.25 490.638L1204.56 496.539C1205.61 497.706 1207.41 497.801 1208.58 496.75Z" fill="#E0D1C0"/>
<path d="M1321.92 454.492C1323.7 492.254 1328.6 518.853 1330.13 533.698C1330.34 535.712 1330.48 537.504 1330.55 539.076C1330.98 548.888 1340.26 553.798 1349.83 553.224C1353.18 553.021 1356.56 552.155 1359.62 550.592C1364.03 548.322 1367 545.179 1368.9 541.196C1371.39 536.003 1372.07 529.388 1371.81 521.493C1371.74 519.303 1371.6 517.007 1371.41 514.623C1369.97 497.075 1368.74 472.852 1369.18 467.156C1369.18 467.156 1373.71 419.971 1363.64 407.024C1358.29 400.154 1352.95 396.118 1348.25 393.972C1348.24 393.972 1348.24 393.963 1348.23 393.963C1344.08 392.073 1340.44 391.658 1337.75 392.064C1337.46 392.109 1337.16 392.197 1336.84 392.329C1330.83 394.846 1320.01 413.762 1321.92 454.492Z" fill="#1ABEC8"/>
<path opacity="0.36" d="M1336.84 392.329C1342.27 395.385 1347.33 398.564 1351.39 401.69C1355.84 405.117 1359.06 408.49 1360.19 411.564C1365.94 427.159 1364.54 480.102 1365.44 501.2C1365.52 503.072 1365.66 505.412 1365.85 508.114C1366.45 516.486 1367.56 528.391 1368.9 541.196C1371.39 536.003 1372.07 529.388 1371.81 521.493C1371.74 519.303 1371.6 517.007 1371.41 514.623C1369.97 497.075 1368.74 472.852 1369.18 467.156C1369.18 467.156 1373.71 419.971 1363.64 407.024C1358.29 400.154 1352.95 396.118 1348.25 393.972C1348.24 393.972 1348.24 393.963 1348.23 393.963C1344.08 392.073 1340.44 391.658 1337.75 392.064C1337.46 392.109 1337.16 392.197 1336.84 392.329Z" fill="white"/>
<path d="M1376.3 636.332C1376.3 636.332 1388.67 662.508 1388.67 672.578C1388.67 682.648 1380.62 685.237 1375.15 686.676C1369.68 688.114 1367.96 680.922 1368.82 673.153C1369.68 665.385 1361.91 640.642 1363.35 638.628C1364.79 636.614 1376.3 636.332 1376.3 636.332Z" fill="#E0D1C0"/>
<path d="M1616.3 954.051C1616.3 962.635 1623.26 969.594 1631.84 969.594C1635.8 969.594 1639.42 968.11 1642.16 965.655C1645.37 962.82 1647.38 958.67 1647.38 954.051C1647.38 945.476 1640.42 938.517 1631.84 938.517C1631.42 938.517 1631.01 938.535 1630.59 938.57C1622.6 939.197 1616.3 945.891 1616.3 954.051Z" fill="black"/>
<path d="M1625.39 950.165C1625.39 958.749 1632.34 965.708 1640.92 965.708C1641.34 965.708 1641.75 965.69 1642.16 965.655C1645.37 962.82 1647.38 958.67 1647.38 954.051C1647.38 945.476 1640.42 938.517 1631.84 938.517C1631.42 938.517 1631.01 938.535 1630.59 938.57C1627.4 941.414 1625.39 945.555 1625.39 950.165Z" fill="#1ABEC8"/>
<path opacity="0.15" d="M1376.3 636.332C1376.3 636.332 1388.67 662.508 1388.67 672.578C1388.67 682.648 1380.62 685.237 1375.15 686.676C1369.68 688.114 1367.96 680.922 1368.82 673.153C1369.68 665.385 1361.91 640.642 1363.35 638.628C1364.79 636.614 1376.3 636.332 1376.3 636.332Z" fill="black"/>
<path d="M1633.17 952.584C1633.17 954.759 1634.93 956.522 1637.1 956.522C1638.11 956.522 1639.03 956.146 1639.72 955.524C1640.53 954.806 1641.04 953.754 1641.04 952.584C1641.04 950.411 1639.28 948.647 1637.1 948.647C1637 948.647 1636.89 948.652 1636.79 948.661C1634.76 948.819 1633.17 950.516 1633.17 952.584Z" fill="#FCFFFF"/>
<path d="M1331.42 556.914C1332.89 569.092 1335.43 594.755 1338.48 611.879C1339.62 618.229 1340.82 623.395 1342.06 626.274C1346.67 636.898 1349.63 636.324 1354.76 636.324C1359.9 636.324 1381.48 630.575 1381.48 630.575C1381.48 630.575 1382.67 630.159 1383.86 629.117C1385.66 627.554 1387.47 624.543 1385.22 619.35C1381.48 610.722 1373.71 547.995 1373.42 539.658C1373.28 535.578 1373.01 528.186 1371.81 521.492C1370.75 515.505 1368.94 510.083 1365.85 508.113C1365.34 507.787 1364.8 507.557 1364.22 507.433C1360.4 506.612 1355.26 506.197 1350.19 506.895C1344.56 507.681 1339.02 509.835 1335.5 514.339C1331.99 518.834 1330.48 525.74 1330.13 533.697C1329.82 540.903 1330.47 548.984 1331.42 556.914Z" fill="#1ABEC8"/>
<path d="M1379.18 653.588C1379.18 653.588 1375.44 658.479 1374.57 669.412C1373.71 680.345 1374.46 682.375 1371.87 682.359C1369.27 682.343 1364.64 681.496 1365.44 675.167C1366.23 668.837 1366.16 664.234 1363.18 657.616C1360.19 650.999 1356.45 641.217 1359.61 638.915C1362.78 636.613 1380.33 644.957 1379.18 653.588Z" fill="#E0D1C0"/>
<path d="M1380.9 639.491C1380.9 639.491 1384.64 631.435 1380.9 627.982C1377.16 624.53 1365.61 625.393 1357.14 627.982C1348.68 630.572 1347.53 634.312 1348.68 639.491C1349.83 644.67 1355.87 642.368 1361.34 641.217C1366.8 640.066 1377.45 642.08 1380.9 639.491Z" fill="#1ABEC8"/>
<path d="M1424.35 832.262C1456.57 880.594 1491.96 926.048 1496.85 928.062C1501.75 930.075 1593.24 947.914 1606.47 949.353C1609.89 949.724 1612.75 950.06 1615.3 950.148C1619.26 950.281 1622.45 949.813 1625.77 947.958C1628.56 946.404 1631.45 943.861 1634.95 939.86C1645.31 928.062 1664.3 902.169 1664.3 902.169C1664.3 902.169 1666.53 899.793 1668.51 895.687C1669.08 894.53 1669.63 893.223 1670.09 891.801C1671.89 886.405 1672.6 879.226 1669.19 871.101C1661.71 853.262 1558.71 727.533 1541.16 724.08C1540.68 723.983 1540.15 723.895 1539.58 723.798C1518.89 720.256 1435.1 713.757 1428.38 715.161C1426.43 715.567 1423.75 716.848 1420.61 718.985C1419.55 719.718 1418.45 720.53 1417.3 721.457C1409.75 727.48 1400.4 737.76 1392.14 752.278C1391.06 754.186 1390.15 755.996 1389.41 757.736C1381.18 777.208 1394.77 787.885 1424.35 832.262Z" fill="#1ABEC8"/>
<path opacity="0.15" d="M1497.9 773.561C1498.22 775.46 1584.81 904.686 1615.3 950.148C1619.26 950.281 1622.45 949.813 1625.77 947.958C1628.56 946.404 1631.45 943.861 1634.95 939.86C1645.31 928.062 1664.3 902.169 1664.3 902.169C1664.3 902.169 1676.67 888.94 1669.19 871.101C1661.71 853.262 1558.71 727.533 1541.16 724.08C1540.68 723.983 1540.15 723.895 1539.58 723.798C1534.69 728.019 1527.47 734.837 1519.77 744.03C1505.97 760.526 1497.52 771.265 1497.9 773.561Z" fill="black"/>
<path d="M1424.35 832.261C1427.8 837.436 1431.29 842.585 1434.77 847.645C1463.81 889.831 1492.48 926.26 1496.85 928.061C1501.74 930.075 1593.23 947.914 1606.46 949.353C1615.21 950.307 1620.32 951.005 1625.77 947.958C1616.98 933.448 1592.22 893.002 1568.78 858.79C1563.57 851.178 1558.42 843.883 1553.53 837.242C1521.3 793.51 1504.81 772.801 1499.82 769.728C1494.84 766.664 1489.47 762.442 1460.31 760.526C1441.07 759.254 1408.8 756.817 1389.41 757.735C1381.18 777.208 1394.76 787.885 1424.35 832.261Z" fill="#034C51"/>
<path d="M1417.3 721.456C1450.82 722.975 1517.25 728.3 1532.24 731.576C1550.78 735.621 1620.81 823.234 1649.9 862.586C1662.28 879.312 1666.98 889.556 1668.51 895.685C1669.08 894.528 1669.62 893.221 1670.09 891.799C1667.71 884.938 1662.45 875.091 1652.03 861.005C1627.78 828.215 1553.82 733.581 1532.8 728.989C1518.22 725.809 1455.23 720.705 1420.6 718.983C1419.55 719.716 1418.45 720.528 1417.3 721.456Z" fill="white"/>
<path opacity="0.15" d="M1652.45 887.505C1646.38 878.573 1634.56 861.378 1626.95 851.672C1624.07 847.994 1618.79 847.289 1615.06 850.099L1595.96 864.476C1592.37 867.18 1591.48 872.2 1593.93 875.971L1619.89 916.026C1622.89 920.657 1629.43 921.279 1633.25 917.298L1651.55 898.242C1654.35 895.325 1654.73 890.85 1652.45 887.505Z" fill="black"/>
<path d="M1595.37 870.305C1595.58 871.17 1595.95 872.009 1596.46 872.795L1622.42 912.845C1625.42 917.481 1631.96 918.099 1635.77 914.125L1654.07 895.068C1656.87 892.144 1657.25 887.676 1654.98 884.329C1648.91 875.401 1637.08 858.198 1629.48 848.492C1629.27 848.236 1629.06 847.989 1628.83 847.759C1625.86 844.739 1621.05 844.315 1617.58 846.92L1598.49 861.297C1595.64 863.434 1594.5 867.029 1595.37 870.305Z" fill="#1ABEC8"/>
<path d="M1595.37 870.305C1603.91 872.133 1617.02 873.44 1623.24 866.402C1628.64 860.308 1629.3 853.014 1628.83 847.759C1625.86 844.739 1621.05 844.315 1617.58 846.92L1598.49 861.297C1595.65 863.434 1594.5 867.029 1595.37 870.305Z" fill="#034C51"/>
<path d="M1505 932.814C1505 940.132 1510.93 946.064 1518.24 946.064C1521.62 946.064 1524.71 944.799 1527.04 942.707C1529.78 940.29 1531.49 936.752 1531.49 932.814C1531.49 925.504 1525.56 919.572 1518.24 919.572C1517.89 919.572 1517.53 919.587 1517.18 919.617C1510.37 920.151 1505 925.858 1505 932.814Z" fill="black"/>
<path d="M1512.75 929.502C1512.75 936.819 1518.67 942.752 1525.99 942.752C1526.34 942.752 1526.7 942.737 1527.04 942.707C1529.78 940.29 1531.49 936.752 1531.49 932.814C1531.49 925.504 1525.56 919.572 1518.24 919.572C1517.89 919.572 1517.53 919.587 1517.18 919.617C1514.46 922.041 1512.75 925.572 1512.75 929.502Z" fill="#1ABEC8"/>
<path d="M1617.59 865.824C1615.47 865.824 1613.76 864.106 1613.76 861.987C1613.76 859.869 1615.47 858.151 1617.59 858.151C1619.71 858.151 1621.43 859.869 1621.43 861.987C1621.43 864.106 1619.71 865.824 1617.59 865.824Z" fill="white"/>
<path d="M1516.12 856.94L1481.92 810.331C1481.92 810.331 1426.93 811.194 1419.74 810.331L1455.7 867.009C1455.7 867.009 1521.43 864.185 1516.12 856.94Z" fill="#FCFFFF"/>
<path opacity="0.15" d="M1516.12 856.94L1481.92 810.331C1481.92 810.331 1426.93 811.194 1419.74 810.331L1455.7 867.009C1455.7 867.009 1521.43 864.185 1516.12 856.94Z" fill="black"/>
<path d="M1564.46 864.481L1530.27 817.872C1530.27 817.872 1475.27 818.735 1468.08 817.872L1504.04 874.551C1504.04 874.551 1569.78 871.727 1564.46 864.481Z" fill="#FCFFFF"/>
<path d="M1434.77 847.645C1463.81 889.832 1492.48 926.26 1496.85 928.062C1501.74 930.075 1593.23 947.914 1606.46 949.353C1615.21 950.307 1620.32 951.005 1625.77 947.958C1616.98 933.449 1592.22 893.002 1568.78 858.79C1548.1 859.373 1490.78 859.62 1434.77 847.645Z" fill="#FEC168"/>
<path d="M1467.41 786.416C1468.98 785.265 1469.33 783.055 1468.18 781.48L1403.29 692.624C1402.14 691.049 1399.93 690.704 1398.36 691.855C1396.78 693.006 1396.44 695.216 1397.59 696.791L1462.47 785.646C1463.62 787.222 1465.83 787.567 1467.41 786.416Z" fill="#1ABEC8"/>
<path d="M1423.24 780.139C1424.77 779.023 1425.1 776.881 1423.99 775.354L1361.1 689.23C1359.98 687.703 1357.84 687.369 1356.31 688.485C1354.79 689.6 1354.45 691.742 1355.57 693.269L1418.46 779.393C1419.57 780.92 1421.71 781.254 1423.24 780.139Z" fill="#1ABEC8"/>
<path d="M1434.77 847.645C1463.81 889.832 1492.48 926.26 1496.85 928.062C1501.74 930.075 1593.23 947.914 1606.46 949.353C1615.21 950.307 1620.32 951.005 1625.77 947.958C1616.98 933.449 1592.22 893.002 1568.78 858.79C1548.1 859.373 1490.78 859.62 1434.77 847.645Z" fill="#034C51"/>
<path opacity="0.36" d="M1365.85 508.114C1366.45 516.486 1367.57 528.39 1368.9 541.196C1371.98 570.789 1376.26 605.16 1378.22 611.571C1379.9 617.099 1382.16 624.005 1383.86 629.118C1385.66 627.555 1387.47 624.544 1385.22 619.351C1381.48 610.723 1373.71 547.996 1373.42 539.659C1373.28 535.579 1373.01 528.187 1371.81 521.493C1370.75 515.506 1368.94 510.084 1365.85 508.114Z" fill="white"/>
<path d="M1409.39 695.308C1409.39 695.308 1410.82 698.472 1404.93 700.63C1399.03 702.788 1397.59 701.493 1395.72 698.904C1393.85 696.315 1392.12 691.933 1388.67 691.175C1385.22 690.417 1370.98 688.978 1367.38 689.122C1363.78 689.266 1363.92 690.273 1365.43 692.43C1366.95 694.588 1368.81 696.458 1365.43 698.329C1362.06 700.199 1359.28 700.63 1357.14 698.76C1355.01 696.89 1345.37 684.518 1347.1 681.498C1348.82 678.477 1357.85 674.449 1375.92 675.024C1393.99 675.599 1397.88 677.757 1400.47 680.922C1403.06 684.087 1409.51 693.207 1409.39 695.308Z" fill="#034C51"/>
<path d="M1119.46 486.238H1128.3V581.757H1119.46V486.238Z" fill="#034C51"/>
<path d="M1127.14 490.116C1084.81 490.116 1050.49 455.8 1050.49 413.471C1050.49 371.141 1084.81 336.826 1127.14 336.826C1169.47 336.826 1203.78 371.141 1203.78 413.471C1203.78 455.8 1169.47 490.116 1127.14 490.116Z" fill="#034C51"/>
<path d="M1127.14 482.272C1089.14 482.272 1058.34 451.468 1058.34 413.471C1058.34 375.473 1089.14 344.67 1127.14 344.67C1165.14 344.67 1195.94 375.473 1195.94 413.471C1195.94 451.468 1165.14 482.272 1127.14 482.272Z" fill="white"/>
<path d="M1127.14 473.738C1093.86 473.738 1066.87 446.755 1066.87 413.471C1066.87 380.186 1093.86 353.203 1127.14 353.203C1160.43 353.203 1187.41 380.186 1187.41 413.471C1187.41 446.755 1160.43 473.738 1127.14 473.738Z" fill="#D2EAFC"/>
<path d="M1118.59 755.181C1065.03 755.181 1021.62 711.765 1021.62 658.209C1021.62 604.652 1065.03 561.237 1118.59 561.237C1172.15 561.237 1215.56 604.652 1215.56 658.209C1215.56 711.765 1172.15 755.181 1118.59 755.181Z" fill="#034C51"/>
<path d="M1031.55 658.209C1031.55 662.624 1031.88 666.96 1032.51 671.199C1032.76 672.824 1033.04 674.431 1033.38 676.03C1033.48 676.56 1033.6 677.09 1033.72 677.62C1033.83 678.079 1033.93 678.529 1034.05 678.988C1034.24 679.81 1034.46 680.631 1034.69 681.443C1034.71 681.496 1034.72 681.558 1034.75 681.611C1035.03 682.689 1035.35 683.748 1035.7 684.808C1035.98 685.691 1036.28 686.574 1036.59 687.44C1048.58 721.139 1080.77 745.257 1118.59 745.257C1140.96 745.257 1161.36 736.823 1176.78 722.95C1180.25 719.832 1183.46 716.441 1186.39 712.803V712.794C1193.38 704.131 1198.73 694.116 1202 683.183C1202.71 680.834 1203.31 678.45 1203.81 676.03C1205.01 670.272 1205.64 664.32 1205.64 658.209C1205.64 648.768 1204.14 639.681 1201.35 631.168C1200.66 629.022 1199.87 626.902 1199.01 624.836C1195.62 616.667 1191.02 609.134 1185.43 602.449C1169.47 583.33 1145.45 571.16 1118.59 571.16C1105.66 571.16 1093.38 573.977 1082.35 579.046C1069.88 584.76 1058.98 593.344 1050.52 603.959C1041.6 615.139 1035.37 628.554 1032.84 643.24C1031.99 648.106 1031.55 653.104 1031.55 658.209Z" fill="white"/>
<path d="M1220.17 459.486C1221.15 458.223 1220.91 456.405 1219.65 455.426L1197.61 438.346L1194.07 442.921L1216.11 460.001C1217.37 460.98 1219.19 460.75 1220.17 459.486Z" fill="#034C51"/>
<path opacity="0.15" d="M1088.83 432.509L1119.96 439.782C1124.36 440.81 1128.76 438.077 1129.79 433.677L1140.65 387.163C1141.68 382.763 1138.95 378.364 1134.55 377.336L1103.41 370.062C1099.01 369.035 1094.61 371.768 1093.59 376.168L1082.72 422.682C1081.69 427.081 1084.43 431.481 1088.83 432.509Z" fill="black"/>
<path d="M1088.97 429.191L1121.3 436.744C1124.05 437.386 1126.79 435.68 1127.44 432.934L1138.22 386.788C1138.86 384.042 1137.15 381.296 1134.41 380.654L1102.07 373.101C1099.33 372.46 1096.58 374.166 1095.94 376.912L1085.16 423.058C1084.52 425.804 1086.22 428.55 1088.97 429.191Z" fill="#FCFFFF"/>
<path d="M1100.97 380.305L1132.2 387.599L1131.71 389.696L1100.48 382.402L1100.97 380.305Z" fill="#1ABEC8"/>
<path d="M1099.42 386.945L1130.65 394.239L1130.16 396.336L1098.93 389.042L1099.42 386.945Z" fill="#1ABEC8"/>
<path d="M1097.87 393.586L1129.1 400.88L1128.61 402.977L1097.38 395.683L1097.87 393.586Z" fill="#1ABEC8"/>
<path d="M1096.32 400.227L1127.54 407.521L1127.05 409.618L1095.83 402.324L1096.32 400.227Z" fill="#1ABEC8"/>
<path d="M1094.77 406.867L1125.99 414.161L1125.5 416.259L1094.28 408.965L1094.77 406.867Z" fill="#1ABEC8"/>
<path d="M1093.22 413.508L1124.44 420.802L1123.95 422.899L1092.73 415.605L1093.22 413.508Z" fill="#1ABEC8"/>
<path d="M1091.67 420.149L1122.89 427.443L1122.4 429.54L1091.18 422.246L1091.67 420.149Z" fill="#1ABEC8"/>
<path d="M1096.83 440.971L1132.87 462.056C1136.77 464.338 1141.79 463.026 1144.07 459.126L1174.74 406.696C1177.02 402.796 1175.71 397.785 1171.81 395.503L1135.77 374.418C1131.87 372.136 1126.86 373.448 1124.58 377.348L1093.9 429.778C1091.62 433.678 1092.93 438.689 1096.83 440.971Z" fill="#034C51"/>
<path opacity="0.61" d="M1132.95 388.102L1161.26 404.665L1158.65 409.135L1130.34 392.572L1132.95 388.102Z" fill="white"/>
<path d="M1039.43 658.208V658.27C1039.43 658.27 1039.43 658.27 1039.43 658.279C1039.43 658.632 1039.43 658.985 1039.45 659.33C1039.45 659.339 1039.44 659.339 1039.45 659.347C1039.49 662.288 1039.69 665.176 1040.04 668.037V668.046C1040.12 668.708 1040.21 669.371 1040.31 670.024C1040.54 671.499 1040.79 672.965 1041.09 674.413C1041.19 674.899 1041.3 675.376 1041.41 675.862C1041.42 675.915 1041.44 675.976 1041.45 676.029C1041.53 676.391 1041.61 676.745 1041.7 677.107C1041.88 677.849 1042.08 678.599 1042.29 679.341C1042.31 679.385 1042.31 679.438 1042.34 679.491C1042.56 680.348 1042.81 681.196 1043.09 682.035C1043.12 682.158 1043.17 682.273 1043.2 682.397C1043.23 682.494 1043.26 682.582 1043.3 682.679C1043.52 683.386 1043.77 684.092 1044.02 684.79C1044.4 685.858 1044.8 686.918 1045.23 687.969C1045.45 688.525 1045.68 689.082 1045.92 689.638C1045.98 689.771 1046.04 689.903 1046.1 690.036C1048.35 695.158 1051.12 699.988 1054.36 704.474C1054.99 705.358 1055.65 706.223 1056.32 707.08C1064.35 717.306 1074.84 725.501 1086.9 730.773C1092.98 733.432 1099.47 735.348 1106.23 736.408C1110.26 737.044 1114.38 737.37 1118.59 737.37C1136.01 737.37 1152.11 731.754 1165.18 722.207C1167.38 720.618 1169.49 718.905 1171.5 717.085C1172.12 716.529 1172.74 715.964 1173.34 715.381C1175.8 713.032 1178.11 710.515 1180.24 707.857V707.848C1186.1 700.589 1190.69 692.296 1193.69 683.262C1193.96 682.485 1194.2 681.708 1194.44 680.922C1194.92 679.315 1195.35 677.681 1195.73 676.029C1195.86 675.491 1195.97 674.952 1196.09 674.413C1197.17 669.176 1197.75 663.763 1197.75 658.208C1197.75 649.624 1196.38 641.358 1193.84 633.613C1193.51 632.58 1193.16 631.556 1192.78 630.54C1192.44 629.639 1192.09 628.739 1191.72 627.856C1191.35 626.955 1190.96 626.072 1190.56 625.189C1187.62 618.786 1183.85 612.843 1179.37 607.5C1178.55 606.52 1177.71 605.557 1176.84 604.621C1162.38 588.901 1141.63 579.046 1118.59 579.046C1107.86 579.046 1097.62 581.183 1088.29 585.069C1087.39 585.431 1086.51 585.819 1085.64 586.217C1076.44 590.429 1068.19 596.355 1061.28 603.588C1060.81 604.091 1060.34 604.603 1059.88 605.115C1058.77 606.334 1057.7 607.588 1056.68 608.877C1056.38 609.257 1056.08 609.637 1055.8 610.017C1055.58 610.29 1055.36 610.573 1055.15 610.856C1054.81 611.315 1054.46 611.783 1054.14 612.26C1052.62 614.37 1051.2 616.569 1049.91 618.83C1048.84 620.685 1047.85 622.592 1046.95 624.535C1046.78 624.871 1046.63 625.197 1046.48 625.533C1046.24 626.036 1046.01 626.549 1045.8 627.07C1045.67 627.37 1045.53 627.679 1045.4 627.988C1044.66 629.798 1043.98 631.644 1043.36 633.516C1042.19 637.102 1041.26 640.802 1040.61 644.599C1040.22 646.834 1039.92 649.103 1039.71 651.391C1039.63 652.512 1039.56 653.625 1039.5 654.755V654.764C1039.46 655.903 1039.43 657.051 1039.43 658.208Z" fill="#D2EAFC"/>
<path opacity="0.61" d="M1131.49 398.244L1153.14 410.913L1150.52 415.383L1128.87 402.714L1131.49 398.244Z" fill="white"/>
<path d="M1118.85 437.902C1113.57 432.622 1113.57 424.06 1118.85 418.779C1124.13 413.498 1132.69 413.498 1137.97 418.779C1143.25 424.06 1143.25 432.622 1137.97 437.902C1132.69 443.183 1124.13 443.183 1118.85 437.902Z" fill="#FCFFFF"/>
<path d="M1119.46 626.274C1124.84 627.978 1152.75 630.857 1169.14 629.992C1173.44 629.771 1178.71 629.842 1184.16 630.071C1187.02 630.195 1189.93 630.354 1192.78 630.539C1192.44 629.639 1192.09 628.738 1191.72 627.855C1191.35 626.954 1190.96 626.071 1190.56 625.188C1187.62 618.785 1183.85 612.842 1179.37 607.499C1178.55 606.519 1177.71 605.556 1176.84 604.62C1168.81 608.55 1167.13 615.888 1167.13 615.888C1167.13 615.888 1163.4 613.875 1160.52 615.888C1157.64 617.911 1157.35 619.35 1157.35 619.35C1157.35 619.35 1151.88 614.997 1147.28 617.319C1142.68 619.642 1142.39 623.095 1142.39 623.095C1142.39 623.095 1138.93 621.938 1136.92 623.095C1134.91 624.243 1114.09 624.569 1119.46 626.274Z" fill="white"/>
<path d="M1061.28 603.588C1070.29 603.367 1080.44 603.376 1087.71 604.1C1104.06 605.725 1132.07 604.162 1137.52 602.714C1142.97 601.256 1122.19 599.949 1120.23 598.713C1118.27 597.468 1114.77 598.448 1114.77 598.448C1114.77 598.448 1114.64 594.986 1110.15 592.461C1105.67 589.926 1100 594.015 1100 594.015C1100 594.015 1099.78 592.567 1097 590.412C1094.22 588.257 1090.39 590.103 1090.39 590.103C1090.39 590.103 1089.98 587.833 1088.29 585.069C1087.39 585.431 1086.51 585.82 1085.64 586.217C1076.44 590.429 1068.19 596.355 1061.28 603.588Z" fill="white"/>
<path d="M1039.43 658.207V658.269C1039.43 658.269 1039.43 658.269 1039.43 658.278C1039.43 658.631 1039.43 658.984 1039.45 659.329C1039.45 659.337 1039.44 659.337 1039.45 659.346C1039.49 662.287 1039.69 665.175 1040.04 668.036V668.045C1040.12 668.707 1040.21 669.37 1040.31 670.023C1040.54 671.498 1040.79 672.964 1041.09 674.412C1041.19 674.898 1041.3 675.375 1041.41 675.86C1041.42 675.913 1041.44 675.975 1041.45 676.028C1041.53 676.39 1041.61 676.744 1041.7 677.106C1041.88 677.847 1042.08 678.598 1042.29 679.34C1042.31 679.384 1042.31 679.437 1042.34 679.49C1042.56 680.347 1042.81 681.194 1043.09 682.033C1049.09 682.387 1056.12 682.687 1064.42 682.934C1096.55 683.888 1156.87 683.579 1193.69 683.261C1193.96 682.484 1194.2 681.707 1194.44 680.921C1194.92 679.313 1195.35 677.68 1195.73 676.028C1195.86 675.49 1195.97 674.951 1196.09 674.412C1197.17 669.175 1197.75 663.762 1197.75 658.207C1197.75 649.623 1196.38 641.357 1193.84 633.612C1193.51 632.579 1193.16 631.555 1192.78 630.539C1192.44 629.638 1192.09 628.738 1191.72 627.854C1191.35 626.954 1190.96 626.07 1190.56 625.187C1190.22 625.329 1189.9 625.505 1189.57 625.708C1187.99 626.68 1186.16 628.19 1184.16 630.071C1171.98 641.499 1153.63 666.42 1148.43 663.947C1142.39 661.068 1143.67 658.481 1138.43 661.36C1133.18 664.23 1128.1 666.243 1123.88 661.36C1119.66 656.467 1102.97 638.337 1092.61 646.391C1091.96 646.894 1091.33 647.415 1090.72 647.936C1090.03 648.528 1089.35 649.137 1088.71 649.747C1083.54 654.604 1079.7 659.761 1074.35 663.7C1072.78 664.866 1071.07 665.925 1069.15 666.835C1067.78 667.48 1066.31 668.063 1064.71 668.548C1059.5 670.138 1051.74 664.097 1044.08 656.132C1043.76 655.796 1043.44 655.461 1043.11 655.116C1042.9 654.886 1042.68 654.648 1042.46 654.41C1041.9 653.8 1041.32 653.182 1040.76 652.555C1040.41 652.167 1040.07 651.778 1039.71 651.389C1039.63 652.511 1039.56 653.624 1039.5 654.754V654.763C1039.46 655.902 1039.43 657.05 1039.43 658.207Z" fill="#034C51"/>
<path d="M1195.73 676.029H1041.45C1041.53 676.391 1041.61 676.744 1041.7 677.106C1041.88 677.848 1042.08 678.598 1042.29 679.34C1042.31 679.384 1042.31 679.437 1042.34 679.49C1042.56 680.347 1042.81 681.195 1043.09 682.034C1043.12 682.157 1043.17 682.272 1043.2 682.396C1043.46 683.199 1043.73 684.003 1044.02 684.789C1044.65 686.564 1045.34 688.321 1046.1 690.035C1055.79 694.742 1067.45 700.014 1079.96 704.8C1099.9 712.43 1136.3 719.743 1165.18 722.206C1167.38 720.617 1169.49 718.904 1171.5 717.084C1174.66 714.25 1177.59 711.168 1180.24 707.856V707.847C1186.1 700.588 1190.69 692.295 1193.69 683.261C1193.96 682.484 1194.2 681.707 1194.44 680.921C1194.92 679.314 1195.35 677.68 1195.73 676.029Z" fill="#1ABEC8"/>
<path d="M1043.3 682.678C1043.52 683.385 1043.77 684.091 1044.02 684.789C1044.4 685.858 1044.8 686.917 1045.23 687.968C1045.45 688.525 1045.68 689.081 1045.92 689.637C1045.98 689.77 1046.04 689.902 1046.1 690.035C1048.35 695.157 1051.12 699.987 1054.36 704.474C1054.99 705.357 1055.65 706.222 1056.32 707.079C1064.35 717.305 1074.84 725.501 1086.9 730.773C1092.98 733.431 1099.47 735.347 1106.23 736.407C1110.26 737.043 1114.38 737.37 1118.59 737.37C1136.01 737.37 1152.11 731.753 1165.18 722.207C1167.38 720.617 1169.49 718.904 1171.5 717.085C1172.12 716.528 1172.74 715.963 1173.34 715.38C1164.73 716.484 1156.27 716.237 1149.58 713.314C1126.85 703.361 1121.09 696.172 1095.2 694.442C1080.56 693.461 1060.32 688.904 1043.3 682.678Z" fill="#1ABEC8"/>
<path d="M1176.96 681.476H1195.83V683.242H1176.96V681.476Z" fill="white"/>
<path d="M1093.33 683.491H1112.2V685.257H1093.33V683.491Z" fill="white"/>
<path d="M1130.54 679.846H1149.41V681.613H1130.54V679.846Z" fill="white"/>
<path d="M1122.53 690.779H1135.22V692.545H1122.53V690.779Z" fill="white"/>
<path d="M1072.66 686.943H1085.35V688.71H1072.66V686.943Z" fill="white"/>
<path d="M1058.08 679.846H1070.77V681.612H1058.08V679.846Z" fill="white"/>
<path d="M1141.71 702.14H1154.4V703.906H1141.71V702.14Z" fill="white"/>
<path d="M1171.82 698.606H1190.69V700.372H1171.82V698.606Z" fill="white"/>
<path d="M1151.12 688.008H1181.25V689.774H1151.12V688.008Z" fill="white"/>
<path d="M1039.5 654.765C1039.46 655.904 1039.43 657.052 1039.43 658.209V658.271C1039.43 658.271 1039.43 658.271 1039.43 658.279C1039.43 658.633 1039.43 658.986 1039.45 659.33C1039.45 659.339 1039.44 659.339 1039.45 659.348C1039.49 662.289 1039.69 665.177 1040.04 668.038C1040.35 666.837 1040.68 665.645 1041.04 664.452C1041.89 661.635 1042.89 658.845 1044.08 656.133C1045.93 651.842 1048.22 647.744 1050.99 644.026C1051.38 643.505 1051.78 642.993 1052.18 642.489C1052.24 642.428 1052.28 642.366 1052.33 642.304C1052.74 641.8 1053.16 641.306 1053.59 640.829C1054.02 640.335 1054.46 639.849 1054.92 639.381C1054.95 639.345 1054.98 639.319 1055.01 639.284C1055.45 638.816 1055.91 638.365 1056.38 637.924L1056.46 637.844C1056.49 637.818 1056.52 637.791 1056.55 637.765C1056.84 637.482 1057.13 637.217 1057.43 636.961C1057.43 636.961 1057.43 636.961 1057.44 636.961C1057.55 636.846 1057.64 636.758 1057.75 636.67C1057.75 636.67 1057.75 636.67 1057.76 636.67C1057.83 636.599 1057.91 636.528 1057.98 636.467L1056.42 635.786L1056.32 635.734L1055.91 635.557L1055.85 635.53L1055.52 635.389C1055.51 635.398 1055.5 635.407 1055.49 635.416C1055.46 635.433 1055.43 635.46 1055.41 635.477C1055.28 635.575 1055.16 635.672 1055.04 635.778C1055 635.795 1054.97 635.822 1054.93 635.866C1054.78 635.972 1054.64 636.087 1054.49 636.219C1053.98 636.625 1053.47 637.049 1052.98 637.491C1052.77 637.676 1052.56 637.862 1052.36 638.047C1051.2 639.098 1050.1 640.193 1049.04 641.341C1048.35 642.082 1047.69 642.848 1047.04 643.626C1046.75 643.971 1046.47 644.323 1046.19 644.675C1046 644.91 1045.81 645.139 1045.62 645.377C1045.63 645.374 1045.64 645.372 1045.65 645.37C1043.88 647.654 1042.23 650.052 1040.76 652.557C1040.32 653.281 1039.91 654.014 1039.5 654.756C1039.5 654.756 1039.49 654.756 1039.5 654.765Z" fill="white"/>
<path opacity="0.15" d="M1057.98 636.463L1055.52 635.384C1051.79 638.27 1048.51 641.659 1045.62 645.38C1047.39 644.851 1049.18 644.401 1050.99 644.029C1053.04 641.27 1055.37 638.722 1057.98 636.463Z" fill="black"/>
<path opacity="0.15" d="M1039.97 657.431C1039.79 657.696 1039.62 657.979 1039.43 658.27C1039.43 658.27 1039.43 658.27 1039.43 658.279C1039.43 658.632 1039.43 658.985 1039.45 659.33C1039.63 658.668 1039.8 658.041 1039.97 657.431Z" fill="black"/>
<path opacity="0.15" d="M1039.86 663.97C1040.52 661.995 1041.34 659.465 1042.34 657.002C1043.32 654.534 1044.48 652.143 1045.37 650.26C1043.94 651.768 1042.43 654.091 1041.42 656.633C1040.39 659.169 1039.87 661.89 1039.86 663.97Z" fill="black"/>
<path d="M1042.92 635.52C1046.89 635.476 1050.79 635.714 1054.49 636.218C1054.8 636.253 1055.1 636.297 1055.4 636.341V636.332H1055.39C1055.39 636.332 1055.39 636.332 1055.38 636.323C1055.28 636.138 1055.15 635.961 1055.04 635.776C1053.32 633.268 1051.07 631.157 1048.48 629.568C1047.5 628.967 1046.47 628.437 1045.4 627.987C1044.66 629.797 1043.98 631.643 1043.36 633.515C1043.62 633.294 1043.87 633.065 1044.12 632.835C1043.72 633.727 1043.32 634.628 1042.92 635.52Z" fill="#E1D96C"/>
<path d="M1044.67 626.044C1045.05 626.389 1045.43 626.733 1045.8 627.069C1046.75 627.934 1047.65 628.773 1048.49 629.568C1051.62 632.517 1053.98 634.893 1054.93 635.864C1055.19 636.12 1055.34 636.279 1055.38 636.324C1055.39 636.332 1055.39 636.332 1055.39 636.332C1055.39 636.332 1055.39 636.341 1055.4 636.341V636.324C1055.44 636.023 1055.47 635.723 1055.49 635.414C1055.59 634.036 1055.56 632.659 1055.39 631.29V631.263C1054.83 626.733 1052.85 622.37 1049.92 618.829C1048.84 620.684 1047.85 622.591 1046.95 624.534C1047.64 624.631 1048.33 624.72 1049.02 624.808C1048.17 625.046 1047.33 625.294 1046.48 625.532C1045.88 625.7 1045.27 625.876 1044.67 626.044Z" fill="#1ABEC8"/>
<path d="M1055.15 610.855C1054.77 610.979 1054.39 611.102 1054 611.208C1054.05 611.562 1054.09 611.915 1054.14 612.259C1055.03 619.792 1055.31 626.76 1055.39 631.237V631.29C1055.43 633.18 1055.42 634.629 1055.41 635.476C1055.41 635.971 1055.4 636.262 1055.4 636.324H1055.41C1055.58 636.068 1055.74 635.812 1055.91 635.556C1056.5 634.629 1057.04 633.71 1057.55 632.801C1063.5 621.894 1062.69 612.383 1059.88 605.115C1058.77 606.334 1057.7 607.588 1056.68 608.877C1056.38 609.257 1056.08 609.636 1055.8 610.016C1056.09 610.113 1056.39 610.21 1056.68 610.308C1056.18 610.502 1055.66 610.687 1055.15 610.855Z" fill="#1ABEC8"/>
<path d="M1099.24 620.374C1099.24 620.374 1070.91 608.032 1055.4 636.337C1055.4 636.337 1062.46 632.424 1072 628.43C1071.39 627.67 1070.79 626.911 1070.18 626.151C1071.32 626.596 1072.4 627.169 1073.42 627.838C1075.87 626.839 1078.45 625.847 1081.11 624.922C1079.79 623.725 1078.31 622.699 1076.72 621.885C1078.77 622.544 1080.77 623.388 1082.68 624.386C1088.17 622.545 1093.9 621.034 1099.24 620.374Z" fill="#1ABEC8"/>
<path d="M1091.81 651.772C1090.38 644.13 1084.89 637.37 1077.71 634.403C1070.52 631.436 1061.79 631.925 1055.39 636.332C1055.39 636.332 1059.3 637.488 1064.72 639.369C1064.66 638.324 1064.49 637.284 1064.18 636.284C1064.99 637.534 1065.8 638.784 1066.61 640.034C1069.1 640.919 1071.81 641.931 1074.56 643.035C1074.68 641.663 1074.8 640.292 1074.92 638.92C1075.44 640.556 1075.97 642.191 1076.5 643.827C1082.24 646.215 1087.94 648.969 1091.81 651.772Z" fill="#1ABEC8"/>
<path d="M1073.6 649.59C1070.57 642.295 1063.26 636.971 1055.39 636.332C1057.57 639.327 1059.61 642.64 1061.44 646.135C1062.23 645.375 1063.02 644.614 1063.81 643.853C1063.44 645.22 1062.92 646.547 1062.3 647.821C1063.42 650.074 1064.46 652.391 1065.39 654.745C1066.59 653.353 1067.8 651.961 1069 650.569C1068.37 652.605 1067.31 654.503 1065.93 656.126C1067.89 661.348 1069.35 666.703 1070.11 671.839C1075.22 665.82 1076.62 656.885 1073.6 649.59Z" fill="#1ABEC8"/>
<path d="M1103.82 726.318C1098.81 722.747 1097.64 715.792 1101.21 710.783C1104.78 705.774 1111.74 704.609 1116.75 708.18C1121.76 711.751 1122.92 718.706 1119.35 723.715C1115.78 728.724 1108.82 729.89 1103.82 726.318Z" fill="white"/>
<path d="M1110 706.115C1108.06 707.695 1105.99 711.173 1104.64 715.482C1103.29 719.791 1103 723.826 1103.7 726.233C1102.14 725.088 1100.92 723.567 1100.14 721.841C1099.53 719.503 1099.57 716.822 1100.41 714.157C1101.24 711.492 1102.74 709.267 1104.57 707.691C1106.19 706.719 1108.06 706.164 1110 706.115Z" fill="#034C51"/>
<path d="M1113.39 718.221C1114.87 713.469 1115.07 709.048 1114.08 706.78C1115.59 707.327 1116.91 708.171 1118.01 709.224C1119.77 712.073 1120.27 716.048 1119.03 719.989C1117.8 723.93 1115.12 726.912 1112.05 728.246C1110.55 728.488 1108.98 728.427 1107.43 728.015C1109.54 726.716 1111.9 722.973 1113.39 718.221Z" fill="#034C51"/>
<path opacity="0.15" d="M1099.26 715.626C1099.39 716.146 1099.57 716.654 1099.8 717.141C1099.63 718.783 1099.76 720.379 1100.14 721.841C1100.23 722.046 1100.33 722.248 1100.43 722.448C1099.35 720.401 1098.91 718.021 1099.26 715.626Z" fill="black"/>
<path opacity="0.15" d="M1118.14 722.194C1119.36 721.423 1120.43 720.422 1121.24 719.246C1121.16 719.69 1121.05 720.135 1120.91 720.578C1119.61 724.742 1116.08 727.595 1112.05 728.247C1114.52 727.175 1116.73 725.037 1118.14 722.194Z" fill="black"/>
<path opacity="0.15" d="M1099.79 717.141C1099.98 717.535 1100.19 717.916 1100.43 718.276C1101.21 719.462 1102.26 720.449 1103.43 721.261C1103.24 723.238 1103.33 724.963 1103.7 726.233C1102.73 725.522 1101.89 724.664 1101.21 723.703C1101.2 723.694 1101.19 723.684 1101.19 723.674C1100.92 723.302 1100.68 722.913 1100.47 722.511C1100.46 722.49 1100.44 722.469 1100.43 722.447C1100.33 722.248 1100.23 722.046 1100.13 721.84C1099.76 720.379 1099.63 718.783 1099.79 717.141Z" fill="black"/>
<path opacity="0.15" d="M1114.74 723.636C1115.94 723.35 1117.1 722.855 1118.14 722.194C1116.73 725.036 1114.52 727.174 1112.05 728.246C1112.05 728.246 1112.05 728.246 1112.05 728.246C1110.55 728.488 1108.98 728.427 1107.43 728.015H1107.43C1108.58 727.306 1109.81 725.867 1110.92 723.934C1112.2 724.025 1113.49 723.935 1114.74 723.636Z" fill="black"/>
<path opacity="0.15" d="M1103.43 721.261C1103.87 721.563 1104.32 721.843 1104.79 722.097C1106.67 723.126 1108.79 723.782 1110.93 723.934C1109.81 725.867 1108.58 727.306 1107.43 728.015C1107.27 727.973 1107.11 727.928 1106.95 727.878C1105.75 727.502 1104.66 726.94 1103.7 726.234L1103.7 726.233C1103.33 724.963 1103.24 723.238 1103.43 721.261Z" fill="black"/>
<path d="M1120.21 717.179C1120.24 717.19 1120.28 717.196 1120.32 717.194C1120.5 717.187 1120.65 717.032 1120.64 716.847C1120.61 716.118 1120.5 715.389 1120.32 714.681C1120.28 714.502 1120.09 714.394 1119.92 714.44C1119.74 714.486 1119.63 714.668 1119.68 714.847C1119.85 715.509 1119.95 716.191 1119.97 716.873C1119.98 717.018 1120.07 717.138 1120.21 717.179Z" fill="white"/>
<path opacity="0.15" d="M1101.85 725.049C1102.35 725.627 1103.12 725.887 1103.88 726.008C1104.64 726.128 1105.41 726.135 1106.15 726.327C1107.22 726.605 1108.16 727.25 1109.15 727.735C1110.14 728.22 1111.31 728.547 1112.34 728.149C1111.39 728.768 1110.22 728.911 1109.1 728.756C1107.72 728.566 1106.36 728.223 1105.1 727.641C1103.84 727.058 1102.73 726.121 1101.85 725.049Z" fill="black"/>
<g opacity="0.15">
<path d="M1064.43 694.443C1064.43 694.443 1067.85 696.169 1072.66 697.512C1077.46 698.854 1078.54 700.197 1075.18 700.293C1071.81 700.389 1070.08 698.375 1068.07 697.991C1066.05 697.608 1062.42 694.731 1064.43 694.443Z" fill="black"/>
<path d="M1084.46 709.021C1084.46 709.021 1079.01 706.623 1079 708.062C1079 709.5 1083.6 710.364 1084.46 710.364C1085.33 710.364 1085.52 709.451 1084.46 709.021Z" fill="black"/>
<path d="M1054.36 704.473C1054.99 705.356 1055.65 706.222 1056.32 707.078C1056.81 707.264 1057.36 707.44 1057.98 707.599C1062.47 708.774 1066.43 712.183 1069.41 713.145C1072.38 714.099 1068.06 711.609 1065.95 710.364C1063.84 709.118 1062.89 709.118 1061.83 706.778C1060.78 704.447 1055.39 704.323 1055.39 704.323C1054.96 704.341 1054.62 704.394 1054.36 704.473Z" fill="black"/>
<path d="M1045.23 687.968C1045.46 688.525 1045.69 689.081 1045.93 689.637C1047.06 690.335 1048.55 690.918 1049.46 690.706C1051.18 690.291 1046.59 688.481 1045.23 687.968Z" fill="black"/>
<path d="M1086.9 730.772C1092.98 733.431 1099.47 735.347 1106.23 736.407C1106.92 736.071 1102.95 735.418 1099.14 734.34C1094.73 733.095 1094.25 731.938 1095.2 730.693C1096.16 729.448 1088.88 729.642 1088.88 729.642C1087.46 729.616 1086.84 730.084 1086.9 730.772Z" fill="black"/>
<path d="M1120.64 708.54C1120.64 708.54 1127.52 709.595 1126.56 710.363C1125.61 711.13 1124.07 710.938 1122.15 710.363C1120.23 709.787 1119.41 708.335 1120.64 708.54Z" fill="black"/>
<path d="M1141.71 718.419C1141.71 718.419 1148.82 718.346 1147.28 719.246C1145.75 720.145 1144.22 720.844 1148.05 721.261C1151.88 721.679 1159.17 722.586 1156.87 722.948C1154.57 723.31 1142.77 722.559 1140.76 721.688C1138.75 720.816 1137.05 718.227 1141.71 718.419Z" fill="black"/>
<path d="M1128.87 728.248C1128.87 728.248 1137.25 729.044 1135.22 729.63C1133.18 730.216 1131.84 729.715 1129.92 729.63C1128 729.544 1127.83 728.14 1128.87 728.248Z" fill="black"/>
</g>
<defs>
<clipPath id="clip0_0_840">
<rect width="1920" height="396" fill="white" transform="matrix(-1 0 0 1 1919 506)"/>
</clipPath>
</defs>
</svg>
