<svg width="370" height="230" viewBox="0 0 370 230" fill="none" xmlns="http://www.w3.org/2000/svg">
<path d="M349.9 144.933C336.87 178.676 312.372 208.229 278.344 221.219C273.919 222.906 269.399 224.336 264.809 225.505C240.532 231.694 213.973 229.541 191.594 218.263C182.096 213.472 173.435 207.142 163.902 202.42C154.37 197.698 143.484 194.608 133.109 196.939C124.175 198.946 116.638 204.697 109.05 209.82C91.16 221.898 69.6495 231.456 48.4658 227.308C38.7183 225.401 29.1198 220.121 24.5929 211.293C14.5873 191.778 33.4575 168.576 29.6359 146.994C27.1903 133.181 16.0208 122.837 9.07712 110.647C-2.80627 89.8019 -1.40147 62.0988 12.5318 42.5607C26.465 23.0227 52.1871 12.6588 75.7704 17.091C104.526 22.4952 126.271 46.8353 154.235 55.4447C171.723 60.8259 190.711 59.2204 207.414 52.1334C234.4 40.68 271.475 23.1144 301.844 25.9756C317.994 27.498 333.833 34.6652 344.493 46.9041C357.967 62.354 362.007 84.2888 359.759 104.661C358.217 118.453 354.902 131.988 349.9 144.933Z" fill="url(#paint0_linear_0_747)"/>
<path d="M358.569 171.619C357.97 171.618 357.373 171.546 356.792 171.404C354.951 170.951 353.354 169.814 352.325 168.223C351.296 166.633 350.911 164.709 351.25 162.845C351.591 160.981 352.632 159.318 354.157 158.194C355.682 157.07 357.58 156.571 359.461 156.799C361.341 157.026 363.064 157.964 364.277 159.419C365.493 160.873 366.103 162.737 365.991 164.628C365.877 166.52 365.045 168.296 363.666 169.595C362.287 170.895 360.464 171.618 358.569 171.619ZM358.569 160.099C357.583 160.103 356.634 160.467 355.897 161.123C355.16 161.779 354.69 162.681 354.573 163.659C354.458 164.638 354.702 165.626 355.261 166.436C355.822 167.247 356.66 167.825 357.617 168.061C358.17 168.194 358.747 168.208 359.306 168.103C359.868 167.998 360.398 167.775 360.865 167.449C361.333 167.124 361.728 166.703 362.021 166.215C362.313 165.726 362.5 165.181 362.568 164.615C362.637 164.049 362.583 163.476 362.414 162.932C362.244 162.388 361.961 161.886 361.582 161.459C361.204 161.033 360.739 160.691 360.22 160.457C359.701 160.222 359.14 160.101 358.569 160.099Z" fill="#E7F6FF"/>
<path d="M351.783 179.506C352.205 177.762 351.135 176.006 349.392 175.584C347.646 175.161 345.892 176.231 345.47 177.975C345.046 179.719 346.115 181.475 347.861 181.897C349.604 182.32 351.359 181.249 351.783 179.506Z" fill="#E7F6FF"/>
<path d="M16.4795 170.91C14.5104 170.867 12.6377 170.049 11.268 168.634C9.89824 167.218 9.14206 165.32 9.16359 163.35C9.1851 161.381 9.98259 159.499 11.3829 158.114C12.7832 156.729 14.6733 155.952 16.6429 155.952C18.6126 155.952 20.5027 156.729 21.903 158.114C23.3033 159.499 24.1008 161.381 24.1223 163.35C24.1438 165.32 23.3876 167.218 22.0179 168.634C20.6482 170.049 18.7755 170.867 16.8063 170.91H16.4795ZM16.4795 159.394H16.3104C15.2469 159.416 14.2354 159.858 13.4955 160.623C12.7556 161.387 12.3471 162.412 12.3586 163.476C12.3701 164.54 12.8007 165.556 13.557 166.304C14.3132 167.052 15.334 167.472 16.3978 167.472C17.4616 167.472 18.4824 167.052 19.2387 166.304C19.9949 165.556 20.4256 164.54 20.4371 163.476C20.4486 162.412 20.0401 161.387 19.3002 160.623C18.5603 159.858 17.5488 159.416 16.4853 159.394H16.4795Z" fill="#E7F6FF"/>
<path d="M11.1459 183.463C12.9381 183.386 14.3284 181.87 14.2511 180.078C14.1738 178.285 12.6582 176.895 10.8659 176.973C9.07361 177.05 7.68338 178.566 7.76067 180.358C7.83799 182.15 9.35359 183.54 11.1459 183.463Z" fill="#E7F6FF"/>
<path d="M203.945 49.9833C202.16 49.9858 200.433 49.3494 199.077 48.1891C197.72 47.0289 196.825 45.4214 196.551 43.6577C196.277 41.894 196.644 40.0904 197.585 38.5738C198.526 37.0569 199.978 35.9273 201.68 35.3889C203.382 34.8505 205.22 34.9391 206.862 35.6389C208.504 36.3384 209.842 37.6028 210.632 39.2028C211.423 40.8031 211.614 42.6333 211.172 44.3627C210.73 46.092 209.684 47.6057 208.222 48.6301C206.968 49.5085 205.475 49.981 203.945 49.9833ZM203.922 38.4668C202.877 38.4657 201.873 38.8679 201.117 39.5892C200.362 40.3106 199.915 41.2953 199.868 42.3386C199.821 43.3819 200.178 44.4031 200.866 45.1892C201.553 45.9753 202.517 46.4658 203.558 46.5584C204.598 46.6513 205.634 46.3388 206.449 45.6866C207.265 45.0344 207.797 44.0923 207.936 43.0574C208.074 42.0221 207.807 40.9734 207.191 40.1302C206.575 39.2868 205.658 38.7134 204.63 38.5299C204.396 38.4883 204.159 38.4671 203.922 38.4668Z" fill="#E7F6FF"/>
<path d="M188.697 49.573C190.165 48.5429 190.521 46.5171 189.491 45.0484C188.461 43.5797 186.435 43.2239 184.966 44.254C183.498 45.2838 183.142 47.3095 184.172 48.7783C185.202 50.2473 187.228 50.6028 188.697 49.573Z" fill="#E7F6FF"/>
<path d="M369.343 88.5118C369.346 85.3599 368.096 82.3359 365.871 80.1046C363.644 77.8735 360.622 76.6178 357.471 76.6141C357.207 76.6141 356.946 76.6141 356.688 76.6399C356.706 76.3819 356.714 76.121 356.714 75.8572C356.714 74.168 356.353 72.4981 355.656 70.9588C354.96 69.4198 353.945 68.0469 352.675 66.9316C351.405 65.8164 349.914 64.9844 348.297 64.491C346.683 63.9979 344.98 63.8549 343.306 64.0713C341.629 64.2878 340.02 64.8591 338.581 65.7467C337.145 66.6346 335.912 67.8184 334.969 69.2197C334.025 70.6208 333.392 72.2071 333.108 73.8727C332.827 75.5384 332.902 77.2451 333.332 78.879C331.895 77.8371 330.244 77.1301 328.498 76.8102C326.752 76.49 324.957 76.5645 323.246 77.0286C321.531 77.4928 319.946 78.3345 318.599 79.4922C317.254 80.6499 316.185 82.0939 315.471 83.7183C314.757 85.343 314.416 87.1067 314.473 88.8805C314.53 90.654 314.983 92.3925 315.798 93.9681C316.615 95.5441 317.773 96.917 319.189 97.9864C320.605 99.0558 322.242 99.7949 323.983 100.149C324.694 102.032 325.869 103.704 327.403 105.008C328.934 106.312 330.774 107.205 332.744 107.605C334.716 108.004 336.758 107.896 338.678 107.291C340.596 106.686 342.331 105.604 343.719 104.145C345.138 105.216 346.778 105.955 348.521 106.308C350.264 106.661 352.061 106.618 353.784 106.184C355.51 105.749 357.113 104.933 358.48 103.797C359.848 102.66 360.94 101.231 361.683 99.6154C363.933 98.7588 365.871 97.2381 367.239 95.2554C368.609 93.2723 369.34 90.9209 369.343 88.5118Z" fill="white"/>
<path d="M55.5443 59.9298C55.5443 56.7779 54.2923 53.755 52.0639 51.526C49.8354 49.2969 46.8128 48.0444 43.6609 48.0435C43.3971 48.0435 43.1363 48.0435 42.8782 48.0693C42.8954 47.8113 42.904 47.5504 42.904 47.2866C42.9038 45.5972 42.5431 43.9275 41.8467 42.3882C41.1501 40.8493 40.1334 39.4763 38.8645 38.3611C37.5956 37.2458 36.1037 36.4138 34.4879 35.9204C32.8721 35.4273 31.1697 35.2843 29.4943 35.5007C27.8189 35.7172 26.2088 36.2883 24.7715 37.1762C23.3342 38.064 22.1027 39.2478 21.159 40.6491C20.2153 42.0502 19.5811 43.6365 19.2987 45.3022C19.0163 46.9678 19.0922 48.6745 19.5214 50.3084C18.0848 49.2665 16.4332 48.5595 14.6877 48.2393C12.9423 47.9194 11.1473 47.9939 9.43454 48.4581C7.72173 48.9222 6.1346 49.7639 4.78959 50.9216C3.44455 52.079 2.37579 53.523 1.66172 55.1477C0.947654 56.7721 0.606399 58.5361 0.663 60.3096C0.719601 62.0834 1.17262 63.8219 1.98882 65.3975C2.80501 66.9732 3.96368 68.3462 5.37977 69.4158C6.79586 70.4852 8.43344 71.224 10.1723 71.5781C10.883 73.4593 12.0593 75.1296 13.5913 76.4323C15.1232 77.7353 16.9607 78.6281 18.9317 79.0275C20.9027 79.4265 22.9427 79.3193 24.861 78.7155C26.7792 78.1115 28.5128 77.0309 29.8997 75.5745C31.3185 76.6453 32.9593 77.3844 34.7018 77.7373C36.444 78.09 38.243 78.0476 39.9669 77.6129C41.6905 77.1783 43.2948 76.3627 44.6615 75.2259C46.0281 74.0892 47.1224 72.6603 47.8638 71.0448C50.1207 70.1905 52.0644 68.6696 53.4362 66.6842C54.8081 64.6989 55.5434 62.3431 55.5443 59.9298Z" fill="white"/>
<g opacity="0.04">
<path opacity="0.04" d="M263.898 160.289H179.685L96.6934 186.561V187.14H11.8697V215.211H96.6934V214.631L179.685 188.359H263.898V188.167L348.111 161.51V133.44L263.898 160.097V160.289Z" fill="#A8A8A8"/>
</g>
<path d="M117.415 50.5087H45.0166V216.136H117.415V50.5087Z" fill="white"/>
<path d="M330.485 169.061L258.089 191.976V26.3485L330.485 3.43317V169.061Z" fill="#E5E5E5"/>
<path d="M258.611 26.3495H186.212V191.977H258.611V26.3495Z" fill="white"/>
<path d="M186.734 191.977L114.336 214.895V49.2677L186.734 26.3495V191.977Z" fill="#E5E5E5"/>
<path d="M109.127 112.288H92.9801V202.914H109.127V112.288Z" fill="#E8EDF7"/>
<path d="M203.5 92.4969H192.985V178.957H227.411L203.5 92.4969Z" fill="#C0CEE2"/>
<path d="M207.161 92.4969L231.072 178.957H251.84V92.4969H207.161Z" fill="#C0CEE2"/>
<path d="M320.213 18.4072L266.943 34.72V42.4951V59.7597V61.2477L320.213 18.4072Z" fill="#C0CEE2"/>
<path d="M266.943 66.1965V67.435V85.9467L323.194 68.5933V42.4957V20.9594L266.943 66.1965Z" fill="#1ABEC8" fill-opacity="0.6"/>
<path d="M323.194 134.626V129.288V85.8857V78.211V72.4083L266.943 89.7589V91.9177L323.194 134.626Z" fill="#C0CEE2"/>
<path d="M124.233 175.833V200.833V200.948L136.727 196.891L136.747 196.776L144.559 194.245L144.542 194.354L180.485 182.682V182.602V159.879V152.204V119.581L124.233 175.833Z" fill="#C0CEE2"/>
<path d="M180.37 114.773L180.485 114.888V108.804V101.13V94.123L124.233 111.476V133.752V141.427V170.911L180.37 114.773Z" fill="#C0CEE2"/>
<path d="M300.807 121.837L266.943 96.1266V110.837V118.509V132.284L300.807 121.837Z" fill="#BDDFE9"/>
<path d="M89.3364 168.955V112.288H50.2717V181.005L89.3364 168.955Z" fill="#1ABEC8" fill-opacity="0.7"/>
<path d="M50.2717 184.821V202.914H89.3364V172.769L50.2717 184.821Z" fill="#E8EDF7"/>
<path d="M324.756 34.6825H322.153V37.8074H324.756V34.6825Z" fill="white"/>
<path d="M324.756 62.8078H322.153V56.5465H324.756V62.8078ZM324.756 50.3081H322.153V44.0582H324.756V50.3081Z" fill="white"/>
<path d="M322.024 75.7749L320.27 73.8512L322.153 72.1311V69.5795H324.757V73.2807L322.024 75.7749Z" fill="white"/>
<path d="M252.88 113.85H246.639V111.247H252.889L252.88 113.85ZM240.902 113.85H234.652V111.247H240.905L240.902 113.85ZM228.402 113.85H222.153V111.247H228.402V113.85ZM259.552 113.277L258.947 110.742L264.987 109.297L265.592 111.832L259.552 113.277ZM271.644 110.387L271.036 107.864L277.083 106.43L277.688 108.965L271.644 110.387ZM283.737 107.497L283.132 104.962L286.888 104.065L288.132 102.918L289.886 104.842L288.146 106.43L283.737 107.497ZM294.476 100.662L292.722 98.7384L297.309 94.5469L299.063 96.4706L294.476 100.662ZM303.651 92.2763L301.896 90.3526L306.483 86.1612L308.238 88.0849L303.651 92.2763ZM312.825 83.8935L311.07 81.9698L315.657 77.7783L317.412 79.702L312.825 83.8935Z" fill="white"/>
<path d="M212.482 115.923L210.174 114.716L211.986 111.247H215.9V113.851H213.563L212.482 115.923Z" fill="white"/>
<path d="M202.686 134.148L200.378 132.944L202.792 128.323L205.1 129.527L202.686 134.148ZM207.514 124.905L205.206 123.701L207.62 119.08L209.928 120.284L207.514 124.905Z" fill="white"/>
<path d="M197.689 143.715L195.043 138.801L197.336 137.565L197.654 138.156L197.964 137.563L200.272 138.767L197.689 143.715Z" fill="white"/>
<path d="M192.019 127.689L189.727 128.924L192.386 133.861L194.678 132.627L192.019 127.689Z" fill="white"/>
<path d="M187.07 123.99L186.083 122.164L184.088 122.735L183.371 120.232L187.382 119.082L189.36 122.757L187.07 123.99Z" fill="white"/>
<path d="M116.048 142.496H114.855V139.893H115.681L120.268 138.577L120.985 141.08L116.048 142.496ZM108.594 142.496H102.86V139.893H108.594V142.496ZM96.6159 142.496H90.8821V139.893H96.6159V142.496ZM85.1482 142.496H79.4144V139.893H85.1482V142.496ZM73.1702 142.496H67.4565V139.893H73.1903L73.1702 142.496ZM126.736 139.176L126.016 136.673L131.75 135.028L132.47 137.531L126.736 139.176ZM138.203 135.888L137.487 133.385L143.221 131.742L143.937 134.245L138.203 135.888ZM149.671 132.6L148.954 130.097L154.688 128.454L155.405 130.957L149.671 132.6ZM161.139 129.311L160.422 126.808L166.156 125.166L166.873 127.668L161.139 129.311ZM172.607 126.023L171.89 123.52L177.624 121.877L178.34 124.38L172.607 126.023Z" fill="white"/>
<path d="M59.1279 144.058H56.5219V139.371H61.2093V141.977H59.1279V144.058Z" fill="white"/>
<path d="M59.6468 151.875H57.0436V159.687H59.6468V151.875Z" fill="white"/>
<path d="M59.6468 168.018H57.0436V171.143H59.6468V168.018Z" fill="white"/>
<path d="M109.127 61.7672H71.6276V108.644H109.127V61.7672Z" fill="#E8EDF7"/>
<path d="M67.9807 61.7672H50.2717V108.644H67.9807V61.7672Z" fill="#034C51" fill-opacity="0.6"/>
<path d="M304.378 124.549L279.399 132.256L296.363 168.476L323.194 159.764V159.686V138.835L304.378 124.549Z" fill="#034C51" fill-opacity="0.6"/>
<path d="M292.868 169.612L275.882 133.343L266.943 136.101V177.915V178.032L279.437 173.976L279.457 173.861L287.269 171.329L287.252 171.435L292.868 169.612Z" fill="#C0CEE2"/>
<path d="M45.1346 216.375L41.6943 216.363L41.7803 191.352V47.969H114.07L185.932 25.2199L195.479 25.0507H257.823L332.205 1.50471V39.9617H328.765V6.20359L258.356 28.491H195.496L186.494 28.6516L114.603 51.4093H45.2206V191.358L45.1346 216.375Z" fill="#426572"/>
<path d="M115.999 217.037H43.5006V213.596H115.799L116.163 213.553L186.46 190.678H258.5L259.494 190.549L328.765 168.23V82.1022H332.205V170.736L260.251 193.921L258.72 194.119H187.007L116.9 216.931L115.999 217.037Z" fill="#426572"/>
<path d="M332.205 68.0563H328.765V74.5069H332.205V68.0563Z" fill="#426572"/>
<path d="M332.205 46.5063H328.765V63.897H332.205V46.5063Z" fill="#426572"/>
<path opacity="0.2" d="M192.167 7.68228C149.072 7.59054 122.214 34.7086 122.134 77.4143C122.106 90.6021 129.049 111.204 141.033 136.077C146.446 146.573 153.017 158.233 159.986 169.907C168.495 184.287 177.778 198.674 187.073 211.89L191.717 218.117C193.274 216.173 194.831 214.238 196.387 211.91C205.736 198.344 215.083 184.388 223.655 170.053C230.673 158.419 236.909 146.788 242.364 136.312C254.844 111.493 261.874 90.929 261.902 77.7325C261.991 36.1736 234.099 7.77403 192.167 7.68228ZM191.924 120.266C166.299 120.212 145.379 99.2058 145.437 73.5784C145.494 47.9509 166.503 27.0369 192.127 27.0913C217.752 27.1458 238.672 48.1574 238.611 73.779C238.551 99.4007 217.551 120.324 191.927 120.269L191.924 120.266Z" fill="#8DA3B2"/>
<path d="M227.915 68.0998C227.86 93.733 206.849 114.647 181.224 114.59C159.031 114.541 140.365 98.7787 135.806 77.8932C135.338 75.2144 135.107 72.4994 135.116 69.7798C135.164 44.161 156.176 23.2383 181.798 23.2899C203.956 23.3387 222.6 39.0579 227.201 59.8804C227.199 59.8918 227.199 59.9036 227.201 59.9148C227.681 62.6166 227.92 65.3559 227.915 68.0998Z" fill="white"/>
<path d="M181.932 2.59115C138.842 2.49654 111.991 29.6177 111.893 72.3148C111.865 85.5026 118.808 106.104 130.792 130.978C136.205 141.474 142.776 153.133 149.745 164.807C158.254 179.188 167.537 193.574 176.832 206.791L181.476 213.018C183.033 211.074 184.59 209.139 186.147 206.811C195.496 193.244 204.842 179.288 213.414 164.954C220.432 153.32 226.668 141.689 232.123 131.213C244.603 106.394 251.633 85.8294 251.661 72.633C251.753 31.0827 223.864 2.68003 181.932 2.59115ZM181.688 115.175C156.067 115.121 135.147 94.1034 135.201 68.4874C135.256 42.8715 156.268 21.9429 181.889 21.9973C207.511 22.0518 228.434 43.0722 228.379 68.6881C228.325 94.3041 207.313 115.233 181.688 115.175Z" fill="#1ABEC8"/>
<path d="M229.437 137.394C224.644 146.479 219.3 156.258 213.4 166.037C204.833 180.372 195.484 194.337 186.135 207.894C184.578 210.222 183.022 212.157 181.462 214.101L176.818 207.874C167.529 194.658 158.24 180.272 149.734 165.894C142.764 154.226 136.193 142.566 130.781 132.064C118.797 107.191 111.859 86.5978 111.882 73.4014C111.919 55.7784 116.515 40.8131 124.926 29.3138C121.595 37.9863 119.832 47.8657 119.806 58.7571C119.777 71.945 126.721 92.5495 138.705 117.42C144.118 127.916 150.689 139.576 157.658 151.25C166.164 165.627 175.45 180.014 184.742 193.23L189.386 199.457C190.946 197.513 192.503 195.578 194.059 193.25C203.405 179.687 212.755 165.728 221.324 151.393C224.159 146.706 226.857 142.013 229.437 137.394Z" fill="#BDDFE9"/>
<path d="M181.411 216.641L175.181 208.289C165.883 195.064 156.488 180.5 148.011 166.172C140.743 154.022 134.169 142.267 129 132.25L128.977 132.201C116.277 105.843 109.852 85.8117 109.881 72.664C109.927 51.122 116.664 33.026 129.359 20.3313C142.053 7.63655 160.155 0.927956 181.7 0.927956H181.924C202.998 0.973826 220.994 7.91178 233.967 20.9964C240.373 27.4925 245.345 35.2599 248.562 43.797C251.966 52.6845 253.68 62.5008 253.657 72.9737C253.628 86.2389 246.799 106.803 233.904 132.451V132.477C229.047 141.8 222.525 154.07 215.134 166.326C205.977 181.653 196.178 196.142 187.801 208.295C186.23 210.64 184.647 212.624 183.102 214.542L181.411 216.641ZM178.449 205.959L181.52 210.076C182.514 208.806 183.489 207.495 184.472 206.042C192.827 193.92 202.58 179.497 211.682 164.262C219.016 152.104 225.498 139.908 230.317 130.639C242.932 105.553 249.609 85.6111 249.638 72.9679C249.681 53.083 243.273 36.0879 231.112 23.8232C218.913 11.5126 201.898 4.98465 181.915 4.94164H181.7C161.242 4.94164 144.126 11.2489 132.194 23.1695C120.262 35.0902 113.938 52.2143 113.9 72.6726C113.875 85.0291 120.337 105.003 132.587 130.435C137.716 140.384 144.244 152.032 151.466 164.122C159.883 178.359 169.215 192.822 178.449 205.959ZM181.78 117.528H181.674C172.062 117.52 162.669 114.657 154.685 109.303C146.702 103.95 140.488 96.346 136.831 87.4568C133.173 78.5673 132.238 68.7923 134.142 59.3704C136.047 49.9489 140.706 41.3048 147.529 34.534C152.019 30.0266 157.357 26.4519 163.234 24.0154C169.111 21.5789 175.412 20.3288 181.775 20.337H181.881C191.492 20.3466 200.885 23.2095 208.868 28.563C216.851 33.9165 223.064 41.5195 226.721 50.4081C230.378 59.297 231.314 69.0715 229.41 78.4928C227.506 87.9141 222.848 96.5578 216.026 103.329C211.536 107.837 206.199 111.412 200.321 113.849C194.444 116.286 188.143 117.536 181.78 117.528ZM181.78 24.3536C170.044 24.4736 158.828 29.217 150.567 37.5543C142.306 45.8916 137.665 57.1503 137.653 68.8875C137.64 80.6246 142.257 91.8931 150.5 100.248C158.744 108.603 169.949 113.37 181.686 113.515H181.783C193.52 113.395 204.735 108.651 212.997 100.314C221.258 91.9768 225.898 80.7181 225.911 68.9809C225.923 57.244 221.307 45.9753 213.063 37.6205C204.82 29.2657 193.614 24.4985 181.878 24.3536H181.78Z" fill="#426572"/>
<path d="M274.213 229.072H103.201V225.345H274.213C274.707 225.345 275.181 225.541 275.53 225.891C275.88 226.24 276.076 226.714 276.076 227.209C276.076 227.703 275.88 228.177 275.53 228.526C275.181 228.876 274.707 229.072 274.213 229.072Z" fill="#426572"/>
<path d="M95.5519 229.072H85.0962C84.602 229.072 84.1281 228.876 83.7786 228.526C83.4291 228.177 83.2327 227.703 83.2327 227.209C83.2327 226.714 83.4291 226.24 83.7786 225.891C84.1281 225.541 84.602 225.345 85.0962 225.345H95.5519C96.0461 225.345 96.52 225.541 96.8695 225.891C97.219 226.24 97.4154 226.714 97.4154 227.209C97.4154 227.703 97.219 228.177 96.8695 228.526C96.52 228.876 96.0461 229.072 95.5519 229.072Z" fill="#426572"/>
<path d="M78.3102 229.072H74.9788C74.4845 229.072 74.0106 228.876 73.6612 228.526C73.3117 228.177 73.1153 227.703 73.1153 227.209C73.1153 226.714 73.3117 226.24 73.6612 225.891C74.0106 225.541 74.4845 225.345 74.9788 225.345H78.3102C78.8044 225.345 79.2783 225.541 79.6278 225.891C79.9773 226.24 80.1736 226.714 80.1736 227.209C80.1736 227.703 79.9773 228.177 79.6278 228.526C79.2783 228.876 78.8044 229.072 78.3102 229.072Z" fill="#426572"/>
<path d="M334.177 229.072H281.615V225.345H334.177C334.67 225.345 335.146 225.541 335.496 225.891C335.846 226.24 336.041 226.714 336.041 227.209C336.041 227.703 335.846 228.177 335.496 228.526C335.146 228.876 334.67 229.072 334.177 229.072Z" fill="#426572"/>
<path d="M65.4496 229.072H12.8846V225.345H65.4496C65.9439 225.345 66.4178 225.541 66.7672 225.891C67.1167 226.24 67.3131 226.714 67.3131 227.209C67.3131 227.703 67.1167 228.177 66.7672 228.526C66.4178 228.876 65.9439 229.072 65.4496 229.072Z" fill="#426572"/>
<path d="M220.573 26.0827C230.584 35.3743 237.511 47.3724 240.277 60.7867C241.266 65.7144 241.752 70.7295 241.728 75.7549C241.728 77.9682 245.168 77.971 245.168 75.7549C245.151 59.6199 240.271 44.0095 230.171 31.3405C227.977 28.5998 225.581 26.0267 223.004 23.6429C221.384 22.1378 218.944 24.5661 220.57 26.0769L220.573 26.0827Z" fill="white"/>
<path d="M202.56 14.047L202.76 14.1301C202.21 13.9094 203.047 14.2591 203.173 14.3165C204.013 14.6978 204.839 15.1078 205.656 15.5321C208.476 17.0195 211.192 18.6957 213.787 20.5492C215.596 21.8307 217.319 18.8491 215.524 17.579C211.777 14.9243 207.763 12.4186 203.483 10.73C201.424 9.91576 200.53 13.2414 202.568 14.047H202.56Z" fill="white"/>
<defs>
<linearGradient id="paint0_linear_0_747" x1="1.03542" y1="122.493" x2="360.341" y2="122.493" gradientUnits="userSpaceOnUse">
<stop stop-color="#C5E9FA"/>
<stop offset="1" stop-color="#C4F4EA"/>
</linearGradient>
</defs>
</svg>
