<svg width="306" height="256" viewBox="0 0 306 256" fill="none" xmlns="http://www.w3.org/2000/svg">
<path opacity="0.4" d="M151.826 214.618H131.386V228.728H151.826V214.618Z" fill="#C9D2DF"/>
<path d="M151.875 255.445C151.196 255.445 150.545 255.175 150.064 254.695C149.584 254.215 149.314 253.563 149.314 252.884V214.614C149.178 214.228 149.137 213.815 149.194 213.41C149.251 213.004 149.404 212.618 149.64 212.284C149.877 211.95 150.19 211.678 150.554 211.49C150.917 211.302 151.321 211.204 151.73 211.204C152.139 211.204 152.543 211.302 152.906 211.49C153.27 211.678 153.583 211.95 153.82 212.284C154.056 212.618 154.21 213.004 154.266 213.41C154.323 213.815 154.282 214.228 154.146 214.614V252.884C154.161 253.519 153.936 254.136 153.514 254.611C153.093 255.086 152.507 255.384 151.875 255.445Z" fill="#3E3126"/>
<path d="M131.581 255.445C131.247 255.445 130.916 255.379 130.608 255.249C130.3 255.12 130.021 254.931 129.787 254.692C129.553 254.454 129.369 254.171 129.246 253.86C129.122 253.55 129.062 253.218 129.068 252.884V214.614C128.933 214.228 128.891 213.815 128.948 213.41C129.005 213.004 129.158 212.618 129.395 212.284C129.631 211.95 129.944 211.678 130.308 211.49C130.672 211.302 131.075 211.204 131.484 211.204C131.894 211.204 132.297 211.302 132.661 211.49C133.024 211.678 133.337 211.95 133.574 212.284C133.811 212.618 133.964 213.004 134.021 213.41C134.077 213.815 134.036 214.228 133.9 214.614V252.884C133.903 253.523 133.667 254.141 133.238 254.615C132.808 255.088 132.217 255.385 131.581 255.445Z" fill="#3E3126"/>
<path d="M17.158 87.8753V26.5084H290.603V199.496C290.603 203.853 288.872 208.032 285.791 211.113C282.71 214.194 278.531 215.925 274.174 215.925H42.6711C38.984 215.932 35.3326 215.201 31.932 213.776C28.5314 212.351 25.4504 210.26 22.8703 207.626C20.2902 204.992 18.2633 201.868 16.9088 198.438C15.5543 195.009 14.8997 191.343 14.9835 187.657L17.158 87.8753Z" fill="white"/>
<path opacity="0.4" d="M290.361 112.372C276.954 132.317 259.38 149.116 238.851 161.61C238.58 160.825 238.04 160.16 237.327 159.734C236.614 159.307 235.773 159.146 234.953 159.279C234.132 159.412 233.385 159.83 232.843 160.46C232.301 161.09 231.999 161.891 231.99 162.722C232.02 163.648 232.4 164.528 233.053 165.186C229.09 167.457 225.031 169.632 220.876 171.613C219.677 169.726 217.906 168.271 215.823 167.462C213.739 166.652 211.451 166.53 209.292 167.112C207.134 167.695 205.218 168.953 203.825 170.701C202.432 172.449 201.634 174.597 201.548 176.831C201.548 177.747 201.678 178.658 201.934 179.537C197.73 181.083 193.43 182.436 189.129 183.741C188.186 182.676 187.013 181.84 185.698 181.296C184.384 180.752 182.963 180.514 181.543 180.6C176.711 180.6 173.087 183.016 173.087 186.012C173.099 186.623 173.265 187.222 173.57 187.752C120.926 198.544 66.4026 195.767 15.1278 179.682V187.413C15.0181 191.106 15.6485 194.783 16.9816 198.228C18.3148 201.673 20.3239 204.816 22.8905 207.473C25.4571 210.13 28.5294 212.246 31.9264 213.697C35.3234 215.148 38.9764 215.905 42.6704 215.922H274.173C278.53 215.922 282.709 214.192 285.79 211.111C288.871 208.03 290.602 203.851 290.602 199.494L290.361 112.372Z" fill="#C9D2DF"/>
<path opacity="0.6" d="M289.25 25.3014H19.8155V50.428H289.25V25.3014Z" fill="#C9D2DF"/>
<path d="M274.174 218.335H94.8084C94.1292 218.335 93.4778 218.065 92.9975 217.585C92.5172 217.105 92.2474 216.453 92.2474 215.774C92.2474 215.095 92.5172 214.444 92.9975 213.963C93.4778 213.483 94.1292 213.213 94.8084 213.213H274.174C277.852 213.213 281.379 211.752 283.98 209.151C286.58 206.551 288.042 203.023 288.042 199.345V29.0639H19.6702V87.8699C19.806 88.256 19.8472 88.6691 19.7904 89.0745C19.7336 89.4798 19.5805 89.8657 19.3439 90.1997C19.1073 90.5337 18.7941 90.8061 18.4305 90.9941C18.0669 91.1821 17.6635 91.2802 17.2542 91.2802C16.8449 91.2802 16.4415 91.1821 16.0779 90.9941C15.7143 90.8061 15.4011 90.5337 15.1645 90.1997C14.9278 89.8657 14.7747 89.4798 14.718 89.0745C14.6612 88.6691 14.7024 88.256 14.8382 87.8699V26.503C14.8382 25.8238 15.108 25.1724 15.5883 24.6921C16.0685 24.2118 16.7199 23.942 17.3991 23.942H290.602C291.282 23.942 291.933 24.2118 292.413 24.6921C292.894 25.1724 293.163 25.8238 293.163 26.503V199.49C293.113 204.497 291.091 209.283 287.537 212.81C283.982 216.338 279.181 218.323 274.174 218.335Z" fill="#3E3126"/>
<path d="M69.248 218.329H33.5393C28.5362 218.317 23.7403 216.33 20.1935 212.802C16.6468 209.273 14.6359 204.487 14.5977 199.484V116.856C14.4619 116.47 14.4207 116.057 14.4775 115.652C14.5342 115.247 14.6874 114.861 14.924 114.527C15.1606 114.193 15.4738 113.92 15.8374 113.732C16.201 113.544 16.6044 113.446 17.0137 113.446C17.423 113.446 17.8264 113.544 18.19 113.732C18.5536 113.92 18.8668 114.193 19.1034 114.527C19.34 114.861 19.4932 115.247 19.5499 115.652C19.6067 116.057 19.5655 116.47 19.4297 116.856V199.484C19.4101 201.338 19.7623 203.177 20.4656 204.892C21.169 206.608 22.2091 208.165 23.5245 209.471C24.84 210.778 26.404 211.807 28.1241 212.499C29.8443 213.19 31.6856 213.53 33.5393 213.497H69.248C69.9273 213.497 70.5786 213.767 71.0589 214.247C71.5392 214.728 71.809 215.379 71.809 216.058C71.809 216.737 71.5392 217.389 71.0589 217.869C70.5786 218.349 69.9273 218.619 69.248 218.619V218.329Z" fill="#3E3126"/>
<path d="M88.5265 69.5631L92.3438 77.3427L100.993 78.6473L94.7599 84.6874L96.2095 93.2884L88.5265 89.2295L80.7953 93.2884L82.2449 84.6874L76.0116 78.6473L84.6609 77.3427L88.5265 69.5631Z" fill="#FF9C01"/>
<path d="M120.66 69.5631L124.478 77.3427L133.127 78.6473L126.894 84.6874L128.343 93.2884L120.66 89.2295L112.929 93.2884L114.427 84.6874L108.194 78.6473L116.795 77.3427L120.66 69.5631Z" fill="#FF9C01"/>
<path d="M152.792 69.5631L156.609 77.3427L165.258 78.6473L159.025 84.6874L160.475 93.2884L152.792 89.2295L145.06 93.2884L146.558 84.6874L140.277 78.6473L148.926 77.3427L152.792 69.5631Z" fill="#FF9C01"/>
<path d="M184.925 69.5631L188.791 77.3427L197.392 78.6473L191.159 84.6874L192.608 93.2884L184.925 89.2295L177.194 93.2884L178.692 84.6874L172.459 78.6473L181.06 77.3427L184.925 69.5631Z" fill="#FF9C01"/>
<path d="M217.058 69.5631L220.924 77.3427L229.525 78.6473L223.291 84.6874L224.741 93.2884L217.058 89.2295L209.327 93.2884L210.825 84.6874L204.591 78.6473L213.192 77.3427L217.058 69.5631Z" fill="#FF9C01"/>
<path d="M33.7803 75.6387H33.3454C33.0408 75.5195 32.7947 75.2863 32.6593 74.9885C32.524 74.6907 32.5101 74.3519 32.6206 74.0441L39.3372 58.1467C39.4749 57.8473 39.7209 57.6111 40.0257 57.4856C40.3304 57.3601 40.6714 57.3546 40.98 57.4702C41.2789 57.6073 41.5121 57.8562 41.6296 58.1634C41.747 58.4706 41.7394 58.8115 41.6082 59.1131L34.94 74.8655C34.8502 75.0984 34.6906 75.2978 34.4829 75.4362C34.2752 75.5747 34.0298 75.6454 33.7803 75.6387Z" fill="#3E3126"/>
<path d="M42.7667 67.961H42.2835C42.133 67.9026 41.9957 67.8146 41.8797 67.7022C41.7638 67.5898 41.6715 67.4553 41.6085 67.3066C41.5454 67.158 41.5128 66.9982 41.5125 66.8367C41.5123 66.6752 41.5444 66.5153 41.607 66.3665L45.2311 57.8137C45.2885 57.663 45.3767 57.526 45.4901 57.4113C45.6035 57.2966 45.7396 57.2068 45.8897 57.1477C46.0398 57.0886 46.2005 57.0614 46.3617 57.0679C46.5228 57.0745 46.6808 57.1145 46.8256 57.1856C46.9886 57.2425 47.1374 57.3337 47.2621 57.4531C47.3868 57.5724 47.4845 57.717 47.5486 57.8773C47.6127 58.0375 47.6418 58.2097 47.6337 58.3821C47.6257 58.5545 47.5808 58.7232 47.5021 58.8768L43.8781 67.4295C43.7576 67.6097 43.5908 67.7541 43.3953 67.8476C43.1997 67.9411 42.9826 67.9803 42.7667 67.961Z" fill="#3E3126"/>
<path d="M82.1974 219.204C83.7453 219.204 85 217.949 85 216.401C85 214.853 83.7453 213.598 82.1974 213.598C80.6496 213.598 79.3949 214.853 79.3949 216.401C79.3949 217.949 80.6496 219.204 82.1974 219.204Z" fill="#3E3126"/>
<path d="M17.1584 104.782C18.7062 104.782 19.961 103.527 19.961 101.979C19.961 100.431 18.7062 99.1764 17.1584 99.1764C15.6106 99.1764 14.3558 100.431 14.3558 101.979C14.3558 103.527 15.6106 104.782 17.1584 104.782Z" fill="#3E3126"/>
<path d="M290.601 2.68806H17.1563C9.71069 2.68806 3.67487 8.72388 3.67487 16.1695C3.67487 23.615 9.71069 29.6509 17.1563 29.6509H290.601C298.047 29.6509 304.083 23.615 304.083 16.1695C304.083 8.72388 298.047 2.68806 290.601 2.68806Z" fill="#1ABEC8"/>
<path d="M301.813 16.8892C301.846 18.6849 301.511 20.4683 300.829 22.1301C300.148 23.7918 299.135 25.297 297.851 26.5532C295.281 29.1007 291.806 30.5255 288.187 30.5155L9.81328 28.4377C6.18925 28.4377 6.72077 22.3494 4.30475 20.2233C119.114 26.9398 263.833 32.6416 295.87 5.72713C297.704 6.95371 299.206 8.61458 300.243 10.562C301.28 12.5094 301.819 14.6829 301.813 16.8892Z" fill="#389D9C"/>
<path d="M255.327 25.344C257.596 25.344 259.434 23.5051 259.434 21.2367C259.434 18.9684 257.596 17.1295 255.327 17.1295C253.059 17.1295 251.22 18.9684 251.22 21.2367C251.22 23.5051 253.059 25.344 255.327 25.344Z" fill="#389D9C"/>
<path d="M268.231 19.9868C269.005 19.9868 269.632 19.3594 269.632 18.5855C269.632 17.8116 269.005 17.1842 268.231 17.1842C267.457 17.1842 266.83 17.8116 266.83 18.5855C266.83 19.3594 267.457 19.9868 268.231 19.9868Z" fill="#389D9C"/>
<path d="M242.911 25.3017C244.031 25.3017 244.94 24.3931 244.94 23.2722C244.94 22.1514 244.031 21.2428 242.911 21.2428C241.79 21.2428 240.881 22.1514 240.881 23.2722C240.881 24.3931 241.79 25.3017 242.911 25.3017Z" fill="#389D9C"/>
<path opacity="0.45" d="M231.99 21.23C232.737 21.23 233.343 20.6242 233.343 19.877C233.343 19.1298 232.737 18.524 231.99 18.524C231.242 18.524 230.637 19.1298 230.637 19.877C230.637 20.6242 231.242 21.23 231.99 21.23Z" fill="#389D9C"/>
<path opacity="0.45" d="M240.541 18.149C241.876 18.149 242.958 17.0673 242.958 15.733C242.958 14.3987 241.876 13.317 240.541 13.317C239.207 13.317 238.125 14.3987 238.125 15.733C238.125 17.0673 239.207 18.149 240.541 18.149Z" fill="#389D9C"/>
<path opacity="0.45" d="M249.193 12.9764C250.34 12.9764 251.27 12.0462 251.27 10.8987C251.27 9.75114 250.34 8.82088 249.193 8.82088C248.045 8.82088 247.115 9.75114 247.115 10.8987C247.115 12.0462 248.045 12.9764 249.193 12.9764Z" fill="#389D9C"/>
<path opacity="0.4" d="M226.675 161.028C227.715 161.028 228.559 160.184 228.559 159.143C228.559 158.102 227.715 157.259 226.675 157.259C225.634 157.259 224.79 158.102 224.79 159.143C224.79 160.184 225.634 161.028 226.675 161.028Z" fill="#C9D2DF"/>
<path opacity="0.4" d="M186.811 169.77C188.358 169.77 189.613 168.515 189.613 166.967C189.613 165.42 188.358 164.165 186.811 164.165C185.263 164.165 184.008 165.42 184.008 166.967C184.008 168.515 185.263 169.77 186.811 169.77Z" fill="#C9D2DF"/>
<path opacity="0.4" d="M207.007 157.298C207.728 157.298 208.312 156.713 208.312 155.993C208.312 155.272 207.728 154.688 207.007 154.688C206.287 154.688 205.703 155.272 205.703 155.993C205.703 156.713 206.287 157.298 207.007 157.298Z" fill="#C9D2DF"/>
<path d="M87.1257 3.68806H11.746C8.75703 3.68806 6.33405 6.11104 6.33405 9.09995V9.14827C6.33405 12.1372 8.75703 14.5602 11.746 14.5602H87.1257C90.1146 14.5602 92.5376 12.1372 92.5376 9.14827V9.09995C92.5376 6.11104 90.1146 3.68806 87.1257 3.68806Z" fill="#BDDFE9"/>
<path d="M290.602 33.1823H17.1574C14.9799 33.3019 12.8008 32.9763 10.7533 32.2254C8.70585 31.4744 6.833 30.3139 5.24918 28.8147C3.66537 27.3155 2.40385 25.5092 1.54172 23.506C0.679576 21.5028 0.234924 19.3449 0.234924 17.164C0.234924 14.9832 0.679576 12.8253 1.54172 10.8221C2.40385 8.8189 3.66537 7.01253 5.24918 5.51335C6.833 4.01416 8.70585 2.85365 10.7533 2.10271C12.8008 1.35177 14.9799 1.02618 17.1574 1.14582H104.907C105.27 1.09567 105.639 1.1238 105.989 1.2283C106.34 1.33281 106.664 1.51127 106.94 1.75165C107.216 1.99204 107.437 2.28878 107.589 2.62187C107.741 2.95496 107.819 3.31668 107.819 3.68264C107.819 4.0486 107.741 4.41031 107.589 4.7434C107.437 5.07649 107.216 5.37323 106.94 5.61362C106.664 5.85401 106.34 6.03247 105.989 6.13697C105.639 6.24148 105.27 6.26961 104.907 6.21946H17.1574C14.2612 6.21946 11.4835 7.37 9.43551 9.41797C7.38754 11.466 6.237 14.2436 6.237 17.1399C6.237 20.0362 7.38754 22.8138 9.43551 24.8618C11.4835 26.9098 14.2612 28.0603 17.1574 28.0603H290.602C292.036 28.0603 293.457 27.7778 294.781 27.229C296.106 26.6802 297.31 25.8758 298.324 24.8618C299.338 23.8477 300.143 22.6439 300.692 21.3189C301.24 19.994 301.523 18.574 301.523 17.1399C301.523 15.7058 301.24 14.2857 300.692 12.9608C300.143 11.6359 299.338 10.432 298.324 9.41797C297.31 8.40392 296.106 7.59952 294.781 7.05072C293.457 6.50192 292.036 6.21946 290.602 6.21946H126.748C126.098 6.19446 125.484 5.91874 125.033 5.4502C124.583 4.98167 124.331 4.35678 124.332 3.7068C124.319 3.0485 124.565 2.41134 125.016 1.9324C125.468 1.45346 126.09 1.17101 126.748 1.14582H290.602C294.699 1.37088 298.553 3.15661 301.373 6.13591C304.193 9.11521 305.765 13.0617 305.765 17.164C305.765 21.2664 304.193 25.2129 301.373 28.1922C298.553 31.1715 294.699 32.9572 290.602 33.1823Z" fill="#3E3126"/>
<path d="M115.875 6.50026C117.423 6.50026 118.678 5.2455 118.678 3.69767C118.678 2.14985 117.423 0.895096 115.875 0.895096C114.327 0.895096 113.073 2.14985 113.073 3.69767C113.073 5.2455 114.327 6.50026 115.875 6.50026Z" fill="#3E3126"/>
<path d="M243.103 100.049C242.909 100.056 242.715 100.023 242.534 99.953C242.352 99.883 242.187 99.7773 242.047 99.642C241.907 99.5067 241.796 99.3447 241.72 99.1656C241.644 98.9865 241.605 98.794 241.605 98.5995V32.9321C241.605 32.5348 241.763 32.1538 242.044 31.8729C242.325 31.592 242.706 31.4342 243.103 31.4342C243.501 31.4342 243.882 31.592 244.163 31.8729C244.443 32.1538 244.601 32.5348 244.601 32.9321V98.5995C244.601 98.794 244.562 98.9865 244.487 99.1656C244.411 99.3447 244.3 99.5067 244.16 99.642C244.02 99.7773 243.854 99.883 243.673 99.953C243.491 100.023 243.298 100.056 243.103 100.049Z" fill="#3E3126"/>
<path d="M243.104 126.907C240.237 126.907 237.434 126.057 235.05 124.464C232.666 122.871 230.808 120.607 229.711 117.958C228.614 115.31 228.327 112.395 228.886 109.583C229.446 106.771 230.826 104.188 232.853 102.161C234.881 100.133 237.464 98.7525 240.276 98.1932C243.088 97.6339 246.002 97.9209 248.651 99.0181C251.3 100.115 253.564 101.973 255.157 104.357C256.75 106.741 257.6 109.544 257.6 112.411C257.6 116.256 256.073 119.943 253.354 122.661C250.636 125.38 246.948 126.907 243.104 126.907ZM243.104 100.814C240.808 100.814 238.564 101.495 236.656 102.772C234.748 104.048 233.261 105.862 232.385 107.984C231.509 110.106 231.282 112.44 231.733 114.691C232.185 116.942 233.294 119.008 234.921 120.628C236.547 122.248 238.618 123.349 240.871 123.791C243.124 124.233 245.457 123.996 247.575 123.111C249.693 122.226 251.501 120.732 252.77 118.819C254.038 116.905 254.71 114.658 254.701 112.363C254.701 110.842 254.4 109.336 253.817 107.932C253.234 106.528 252.379 105.252 251.301 104.179C250.224 103.106 248.945 102.257 247.538 101.679C246.131 101.102 244.624 100.808 243.104 100.814Z" fill="#3E3126"/>
<path d="M213.774 110.298H120.709C119.962 110.298 119.356 110.903 119.356 111.651V116.434C119.356 117.182 119.962 117.787 120.709 117.787H213.774C214.521 117.787 215.127 117.182 215.127 116.434V111.651C215.127 110.903 214.521 110.298 213.774 110.298Z" fill="#C9D2DF"/>
<path d="M213.774 127.302H120.709C119.962 127.302 119.356 127.907 119.356 128.655V133.438C119.356 134.185 119.962 134.791 120.709 134.791H213.774C214.521 134.791 215.127 134.185 215.127 133.438V128.655C215.127 127.907 214.521 127.302 213.774 127.302Z" fill="#C9D2DF"/>
<path d="M213.774 144.27H120.709C119.962 144.27 119.356 144.876 119.356 145.623V150.407C119.356 151.154 119.962 151.76 120.709 151.76H213.774C214.521 151.76 215.127 151.154 215.127 150.407V145.623C215.127 144.876 214.521 144.27 213.774 144.27Z" fill="#C9D2DF"/>
<path d="M100.897 134.558C100.452 133.556 99.8112 132.652 99.0129 131.9C98.262 131.178 97.4168 130.56 96.5002 130.064C95.6114 129.584 94.6912 129.164 93.7459 128.808L90.2186 127.358C89.234 126.967 88.3323 126.393 87.5609 125.667C87.229 125.35 86.9673 124.967 86.7925 124.542C86.6177 124.118 86.5338 123.662 86.5462 123.203C86.5308 122.502 86.6797 121.806 86.9811 121.173C87.339 120.61 87.8622 120.171 88.479 119.917C89.2942 119.599 90.1656 119.451 91.04 119.482C91.9563 119.455 92.8613 119.69 93.6493 120.158C94.4022 120.605 95.0592 121.196 95.5821 121.898C96.148 122.66 96.649 123.468 97.08 124.314L101.235 121.753C100.687 120.591 99.9708 119.517 99.1095 118.564C98.1483 117.536 97.0004 116.699 95.7271 116.1C94.8854 115.699 93.9903 115.422 93.0695 115.278V110.446H88.8656V115.278C87.7772 115.446 86.719 115.771 85.7248 116.245C84.3211 116.85 83.1156 117.838 82.2457 119.095C81.3856 120.236 80.9269 121.629 80.941 123.058C80.9061 124.362 81.188 125.655 81.7625 126.827C82.2597 127.836 82.949 128.739 83.7919 129.484C84.5995 130.189 85.4923 130.79 86.4496 131.272C87.2785 131.697 88.1339 132.068 89.0105 132.384C90.2186 132.818 91.3299 133.302 92.393 133.785C93.3448 134.267 94.2102 134.904 94.9539 135.669C95.6486 136.433 96.0133 137.44 95.9687 138.472C95.9876 139.277 95.8049 140.075 95.4372 140.791C95.0851 141.424 94.5445 141.93 93.8909 142.241C93.051 142.594 92.1438 142.759 91.2333 142.724C90.1054 142.751 88.99 142.484 87.9958 141.951C87.0015 141.41 86.1296 140.67 85.4348 139.777C84.5827 138.667 83.8537 137.468 83.2604 136.201L79.2015 138.858C79.8629 140.427 80.7952 141.866 81.9558 143.111C83.0961 144.348 84.456 145.364 85.9664 146.107C86.8853 146.491 87.8403 146.782 88.8173 146.976V151.808H92.9245V146.976C94.2252 146.862 95.4985 146.536 96.6935 146.01C98.1758 145.326 99.4207 144.216 100.269 142.821C101.136 141.361 101.571 139.686 101.525 137.989C101.553 136.814 101.339 135.647 100.897 134.558Z" fill="#42CAF8"/>
</svg>
