<svg width="471" height="251" viewBox="0 0 471 251" fill="none" xmlns="http://www.w3.org/2000/svg">
<path d="M169.157 99.2044H113.649C109.737 99.2044 106.565 102.377 106.565 106.291V239.269C106.565 243.182 109.737 246.355 113.649 246.355H169.157C173.069 246.355 176.24 243.182 176.24 239.269V106.291C176.24 102.377 173.069 99.2044 169.157 99.2044Z" fill="#1ABEC8" fill-opacity="0.7"/>
<path d="M264.631 54.6723H207.846C204.286 54.6723 201.401 57.5587 201.401 61.1198V241.844C201.401 245.405 204.286 248.291 207.846 248.291H264.631C268.19 248.291 271.076 245.405 271.076 241.844V61.1198C271.076 57.5587 268.19 54.6723 264.631 54.6723Z" fill="#BDDFE9"/>
<path d="M356.778 2.39492H301.502C297.526 2.39492 294.301 5.61965 294.301 9.59754V239.152C294.301 243.13 297.526 246.355 301.502 246.355H356.778C360.754 246.355 363.976 243.13 363.976 239.152V9.59754C363.976 5.61965 360.754 2.39492 356.778 2.39492Z" fill="#1ABEC8" fill-opacity="0.8"/>
<path d="M364.943 158.278V239.83C364.946 240.777 364.761 241.715 364.4 242.59C364.04 243.465 363.508 244.26 362.839 244.929C362.17 245.599 361.375 246.129 360.501 246.49C359.626 246.851 358.69 247.036 357.743 247.033H302.487C301.539 247.035 300.603 246.851 299.726 246.49C298.851 246.13 298.053 245.599 297.384 244.93C296.712 244.261 296.181 243.466 295.817 242.591C295.457 241.716 295.269 240.778 295.269 239.83V164.687C295.269 161.606 296.492 158.651 298.67 156.472C300.847 154.294 303.802 153.07 306.88 153.07C309.961 153.07 312.915 154.294 315.093 156.472C317.27 158.651 318.494 161.606 318.494 164.687V180.854C318.494 183.935 319.717 186.89 321.894 189.069C324.072 191.247 327.026 192.471 330.105 192.471C333.186 192.471 336.14 191.247 338.318 189.069C340.495 186.89 341.718 183.935 341.718 180.854V158.278C341.718 155.197 342.942 152.242 345.119 150.063C347.297 147.885 350.251 146.661 353.332 146.661C356.41 146.661 359.365 147.885 361.542 150.063C363.72 152.242 364.943 155.197 364.943 158.278Z" fill="#BDDFE9"/>
<path d="M270.012 124.608V241.012C270.014 241.959 269.83 242.896 269.469 243.771C269.108 244.646 268.578 245.441 267.909 246.111C267.24 246.78 266.445 247.311 265.57 247.672C264.696 248.033 263.758 248.217 262.812 248.215H207.556C206.608 248.217 205.67 248.033 204.794 247.672C203.919 247.311 203.123 246.781 202.452 246.112C201.782 245.443 201.249 244.648 200.886 243.773C200.523 242.898 200.336 241.96 200.336 241.012V173.613C200.336 170.532 201.56 167.577 203.738 165.399C205.915 163.22 208.869 161.996 211.949 161.996C215.029 161.996 217.983 163.22 220.16 165.399C222.338 167.577 223.562 170.532 223.562 173.613V182.036C223.562 185.117 224.785 188.072 226.963 190.25C229.141 192.429 232.094 193.653 235.174 193.653C238.254 193.653 241.207 192.429 243.385 190.25C245.563 188.072 246.787 185.117 246.787 182.036V124.608C246.787 121.527 248.01 118.572 250.188 116.394C252.366 114.215 255.319 112.991 258.399 112.991C261.479 112.991 264.433 114.215 266.61 116.394C268.788 118.572 270.012 121.527 270.012 124.608Z" fill="#1ABEC8" fill-opacity="0.5"/>
<path d="M177.208 160.214V237.894C177.211 238.841 177.026 239.778 176.665 240.653C176.304 241.528 175.774 242.323 175.105 242.993C174.436 243.662 173.641 244.192 172.766 244.554C171.892 244.915 170.955 245.099 170.008 245.096H114.752C113.805 245.099 112.867 244.915 111.991 244.554C111.115 244.193 110.319 243.663 109.649 242.994C108.978 242.325 108.446 241.53 108.083 240.655C107.72 239.78 107.533 238.841 107.533 237.894V170.495C107.533 167.414 108.756 164.459 110.934 162.281C113.112 160.102 116.066 158.878 119.145 158.878C122.225 158.878 125.179 160.102 127.357 162.281C129.535 164.459 130.758 167.414 130.758 170.495V178.918C130.758 181.999 131.981 184.954 134.159 187.132C136.337 189.311 139.291 190.535 142.371 190.535C145.45 190.535 148.404 189.311 150.582 187.132C152.76 184.954 153.983 181.999 153.983 178.918V160.214C153.983 157.133 155.207 154.178 157.384 151.999C159.562 149.821 162.516 148.597 165.596 148.597C168.676 148.597 171.629 149.821 173.807 151.999C175.985 154.178 177.208 157.133 177.208 160.214Z" fill="#BDDFE9"/>
<path d="M379.228 36.2972C381.077 36.2972 382.576 34.7974 382.576 32.9474C382.576 31.0976 381.077 29.5978 379.228 29.5978C377.379 29.5978 375.88 31.0976 375.88 32.9474C375.88 34.7974 377.379 36.2972 379.228 36.2972Z" fill="#EEF0F1"/>
<path d="M389.022 56.9763C387.183 56.9639 385.401 56.3143 383.987 55.1373C382.573 53.9607 381.61 52.3301 381.264 50.5229C380.915 48.7157 381.205 46.8436 382.083 45.2256C382.957 43.608 384.369 42.3442 386.073 41.6496C387.775 40.9551 389.668 40.8726 391.425 41.4163C393.183 41.9604 394.697 43.0968 395.712 44.6323C396.725 46.1678 397.177 48.0076 396.986 49.838C396.798 51.6687 395.98 53.3771 394.674 54.6723C393.168 56.1596 391.135 56.9883 389.022 56.9763ZM389.022 43.0551C387.482 43.1426 386.032 43.816 384.973 44.9375C383.914 46.059 383.324 47.5434 383.324 49.0863C383.324 50.6294 383.914 52.1139 384.973 53.2353C386.032 54.3568 387.482 55.0302 389.022 55.1177C389.812 55.1253 390.598 54.9765 391.335 54.6796C392.068 54.3829 392.737 53.944 393.301 53.3882C393.867 52.8325 394.316 52.1705 394.624 51.4407C394.932 50.7107 395.093 49.9272 395.099 49.1347C395.108 47.5393 394.486 46.0044 393.371 44.8653C392.253 43.7262 390.733 43.0757 389.137 43.0551H389.022Z" fill="#EEF0F1"/>
<path d="M140.435 223.121C152.727 223.121 162.692 213.152 162.692 200.854C162.692 188.557 152.727 178.588 140.435 178.588C128.142 178.588 118.177 188.557 118.177 200.854C118.177 213.152 128.142 223.121 140.435 223.121Z" fill="#A3CAD3"/>
<path d="M142.371 211.504C154.663 211.504 164.628 201.535 164.628 189.238C164.628 176.941 154.663 166.972 142.371 166.972C130.078 166.972 120.113 176.941 120.113 189.238C120.113 201.535 130.078 211.504 142.371 211.504Z" fill="white"/>
<path d="M140.435 215.377C135.65 215.377 130.973 213.957 126.995 211.298C123.016 208.638 119.915 204.858 118.084 200.436C116.253 196.013 115.774 191.147 116.708 186.452C117.641 181.758 119.945 177.445 123.328 174.06C126.712 170.676 131.023 168.37 135.716 167.437C140.409 166.503 145.273 166.982 149.694 168.814C154.114 170.646 157.893 173.748 160.551 177.728C163.209 181.708 164.628 186.387 164.628 191.174C164.618 197.59 162.066 203.74 157.531 208.276C152.996 212.813 146.849 215.366 140.435 215.377ZM140.435 170.844C136.416 170.844 132.487 172.036 129.145 174.27C125.803 176.504 123.198 179.679 121.66 183.394C120.122 187.109 119.72 191.197 120.504 195.14C121.288 199.084 123.223 202.706 126.066 205.55C128.908 208.393 132.529 210.329 136.471 211.113C140.413 211.898 144.499 211.495 148.212 209.957C151.926 208.418 155.099 205.812 157.332 202.469C159.565 199.126 160.757 195.195 160.757 191.174C160.752 185.784 158.609 180.616 154.8 176.804C150.989 172.993 145.824 170.849 140.435 170.844Z" fill="#183154"/>
<path d="M330.108 93.3956C342.4 93.3956 352.364 83.4267 352.364 71.1294C352.364 58.8321 342.4 48.8632 330.108 48.8632C317.813 48.8632 307.848 58.8321 307.848 71.1294C307.848 83.4267 317.813 93.3956 330.108 93.3956Z" fill="#BDDFE9"/>
<path d="M332.041 83.7149C344.333 83.7149 354.297 73.7459 354.297 61.4486C354.297 49.1513 344.333 39.1824 332.041 39.1824C319.749 39.1824 309.784 49.1513 309.784 61.4486C309.784 73.7459 319.749 83.7149 332.041 83.7149Z" fill="#8FDAFF"/>
<path d="M352.364 62.2239C352.373 67.1973 350.718 72.0303 347.661 75.9517C344.603 79.8734 340.322 82.6571 335.498 83.8584C330.674 85.0597 325.586 84.6096 321.05 82.5799C316.51 80.55 312.784 77.0576 310.463 72.66C313.67 74.3819 317.253 75.28 320.894 75.2739C324.741 75.2935 328.529 74.3135 331.886 72.43C335.243 70.5464 338.054 67.8237 340.043 64.5279C342.033 61.2324 343.133 57.4769 343.236 53.6282C343.341 49.7796 342.443 45.9701 340.636 42.5719C344.189 44.4718 347.162 47.3057 349.227 50.7682C351.293 54.231 352.379 58.1914 352.364 62.2239Z" fill="#38609B"/>
<path d="M330.088 85.651C325.645 85.6528 321.288 84.4321 317.494 82.1228C313.7 79.8132 310.613 76.504 308.571 72.5571C306.531 68.6099 305.616 64.1776 305.924 59.7445C306.232 55.3117 307.755 51.0493 310.322 47.4237C312.893 43.7981 316.408 40.9495 320.487 39.1893C324.565 37.4287 329.049 36.8248 333.447 37.4434C337.846 38.0616 341.989 39.8788 345.425 42.6954C348.861 45.5124 351.455 49.2201 352.925 53.4135C354.196 57.0643 354.577 60.9663 354.034 64.7941C353.492 68.6219 352.045 72.2645 349.809 75.4186C347.576 78.5726 344.618 81.1469 341.188 82.9268C337.758 84.7068 333.952 85.6407 330.088 85.651ZM330.088 41.1186C325.768 41.1159 321.561 42.4886 318.075 45.0379C314.586 47.5872 312.001 51.1808 310.692 55.2982C309.38 59.4156 309.416 63.8431 310.789 67.9397C312.162 72.0362 314.806 75.5891 318.33 78.0835C321.857 80.5779 326.085 81.8849 330.405 81.8147C334.724 81.7446 338.908 80.3012 342.353 77.6932C345.795 75.0855 348.321 71.4488 349.56 67.31C350.801 63.1712 350.692 58.7448 349.249 54.672C347.84 50.7128 345.243 47.2858 341.813 44.8595C338.383 42.4334 334.29 41.1268 330.088 41.1186Z" fill="#183154"/>
<path d="M257.411 95.3318C256.976 95.3247 256.555 95.1713 256.218 94.8957C255.881 94.6202 255.646 94.239 255.552 93.8136C255.458 93.3881 255.51 92.9436 255.7 92.5512C255.89 92.1592 256.207 91.8426 256.599 91.6528L306.921 67.7023C307.376 67.5233 307.88 67.5236 308.338 67.7031C308.793 67.8824 309.163 68.2278 309.374 68.6697C309.585 69.1113 309.62 69.6166 309.474 70.0837C309.327 70.5509 309.01 70.9452 308.584 71.1873L258.263 95.1381C257.999 95.2707 257.707 95.3373 257.411 95.3318Z" fill="#183154"/>
<path d="M105.597 36.1232L123.229 71.8848L151.08 74.0339L131.725 87.587L143.338 139.864L109.468 122.652L109.449 111.015L73.6627 124.375L77.0498 105.458L79.4691 79.8423L87.9462 71.8848L105.597 36.1232Z" fill="#BDDFE9"/>
<path opacity="0.3" d="M3.96839 145.886C5.24598 144.633 6.7589 143.646 8.41982 142.981C10.0808 142.316 11.8568 141.987 13.6455 142.013H57.7731C61.3664 142.013 64.8122 140.585 67.353 138.043C69.8938 135.502 71.321 132.054 71.321 128.46C71.321 124.865 69.8938 121.418 67.353 118.876C64.8122 116.334 61.3664 114.906 57.7731 114.906H32.1867C28.5937 114.906 25.1477 113.479 22.607 110.937C20.0663 108.395 18.6389 104.948 18.6389 101.353C18.6389 97.7587 20.0663 94.3112 22.607 91.7695C25.1477 89.2279 28.5937 87.7997 32.1867 87.7997H94.8366C97.67 87.7997 100.387 88.9259 102.391 90.9303C104.394 92.9344 105.52 95.6531 105.52 98.4876V239.771C105.52 242.606 104.394 245.324 102.391 247.329C100.387 249.333 97.67 250.459 94.8366 250.459H76.392C79.985 250.459 83.4311 249.031 85.9719 246.49C88.5124 243.948 89.9399 240.5 89.9399 236.906C89.9399 233.311 88.5124 229.864 85.9719 227.322C83.4311 224.78 79.985 223.353 76.392 223.353H13.5487C9.9556 223.353 6.50963 221.925 3.96889 219.383C1.42815 216.841 0.000784778 213.394 0.000784778 209.799C0.000784778 206.205 1.42815 202.757 3.96889 200.216C6.50963 197.674 9.9556 196.246 13.5487 196.246H47.8831C51.4764 196.246 54.9221 194.818 57.4629 192.276C60.0037 189.734 61.431 186.287 61.431 182.692C61.431 179.098 60.0037 175.651 57.4629 173.109C54.9221 170.567 51.4764 169.139 47.8831 169.139H13.5487C9.9556 169.139 6.50963 167.711 3.96889 165.169C1.42815 162.628 0.000784778 159.18 0.000784778 155.586C-0.0186338 153.789 0.322501 152.006 1.004 150.343C1.68551 148.68 2.69352 147.171 3.96839 145.905" fill="#BDDFE9"/>
<path opacity="0.3" d="M364.771 40.1894V181.628C364.768 183.035 365.044 184.428 365.581 185.728C366.118 187.029 366.904 188.21 367.899 189.205C368.893 190.2 370.076 190.988 371.373 191.525C372.673 192.063 374.067 192.338 375.472 192.335H393.976C390.381 192.335 386.936 190.907 384.395 188.365C381.854 185.824 380.428 182.377 380.428 178.782C380.428 175.187 381.854 171.74 384.395 169.198C386.936 166.656 390.381 165.229 393.976 165.229H456.761C460.355 165.229 463.8 163.801 466.341 161.259C468.882 158.717 470.308 155.27 470.308 151.675C470.308 148.081 468.882 144.633 466.341 142.092C463.8 139.55 460.355 138.122 456.761 138.122H422.485C418.891 138.122 415.446 136.694 412.905 134.152C410.364 131.611 408.938 128.163 408.938 124.569C408.938 120.974 410.364 117.527 412.905 114.985C415.446 112.443 418.891 111.015 422.485 111.015H456.761C460.355 111.015 463.8 109.587 466.341 107.046C468.882 104.504 470.308 101.056 470.308 97.4619C470.308 93.8671 468.882 90.42 466.341 87.8783C463.8 85.3366 460.355 83.9085 456.761 83.9085H412.576C408.982 83.9085 405.537 82.4807 402.996 79.939C400.455 77.397 399.029 73.9498 399.029 70.3553C399.029 66.7605 400.455 63.3133 402.996 60.7717C405.537 58.2297 408.982 56.8019 412.576 56.8019H438.181C441.775 56.8019 445.22 55.374 447.761 52.8321C450.302 50.2904 451.728 46.8432 451.728 43.2484C451.728 39.6539 450.302 36.2067 447.761 33.6647C445.22 31.1231 441.775 29.6952 438.181 29.6952H375.472C372.67 29.6896 369.976 30.7868 367.975 32.7501C365.971 34.7132 364.821 37.3851 364.771 40.1894Z" fill="#BDDFE9"/>
<path d="M347.681 140.426C351.079 140.426 353.834 137.669 353.834 134.269C353.834 130.869 351.079 128.112 347.681 128.112C344.28 128.112 341.525 130.869 341.525 134.269C341.525 137.669 344.28 140.426 347.681 140.426Z" fill="#BDDFE9"/>
<path opacity="0.5" d="M336.939 145.035C338.637 145.035 340.017 143.657 340.017 141.957C340.017 140.256 338.637 138.878 336.939 138.878C335.24 138.878 333.86 140.256 333.86 141.957C333.86 143.657 335.24 145.035 336.939 145.035Z" fill="#BDDFE9"/>
<path d="M226.755 155.335C230.154 155.335 232.909 152.578 232.909 149.178C232.909 145.777 230.154 143.021 226.755 143.021C223.356 143.021 220.6 145.777 220.6 149.178C220.6 152.578 223.356 155.335 226.755 155.335Z" fill="#BDDFE9"/>
<path opacity="0.5" d="M215.994 159.943C217.693 159.943 219.071 158.564 219.071 156.864C219.071 155.164 217.693 153.786 215.994 153.786C214.294 153.786 212.916 155.164 212.916 156.864C212.916 158.564 214.294 159.943 215.994 159.943Z" fill="#BDDFE9"/>
<path d="M138.828 153.031C142.227 153.031 144.983 150.274 144.983 146.874C144.983 143.473 142.227 140.717 138.828 140.717C135.429 140.717 132.673 143.473 132.673 146.874C132.673 150.274 135.429 153.031 138.828 153.031Z" fill="#BDDFE9"/>
<path opacity="0.5" d="M128.067 157.639C129.767 157.639 131.145 156.261 131.145 154.56C131.145 152.86 129.767 151.482 128.067 151.482C126.368 151.482 124.99 152.86 124.99 154.56C124.99 156.261 126.368 157.639 128.067 157.639Z" fill="#BDDFE9"/>
<path d="M226.755 57.1893H264.186C264.186 58.319 263.737 59.4023 262.939 60.2013C262.14 61.0001 261.057 61.449 259.928 61.449H231.032C229.903 61.449 228.82 61.0001 228.021 60.2013C227.223 59.4023 226.774 58.319 226.774 57.1893H226.755Z" fill="white"/>
<path d="M169.312 248.291H113.785C111.356 248.291 109.028 247.326 107.311 245.609C105.594 243.891 104.63 241.562 104.63 239.133V107.472C104.63 105.043 105.594 102.714 107.311 100.996C109.028 99.2789 111.356 98.3138 113.785 98.3138H169.312C171.74 98.3138 174.068 99.2789 175.785 100.996C177.502 102.714 178.466 105.043 178.466 107.472V239.133C178.466 241.562 177.502 243.891 175.785 245.609C174.068 247.326 171.74 248.291 169.312 248.291ZM113.785 102.128C112.383 102.128 111.039 102.685 110.048 103.676C109.057 104.668 108.501 106.012 108.501 107.414V239.075C108.493 239.774 108.624 240.468 108.886 241.116C109.148 241.764 109.536 242.353 110.028 242.85C110.519 243.347 111.104 243.742 111.749 244.011C112.394 244.28 113.086 244.419 113.785 244.419H169.312C170.711 244.414 172.052 243.855 173.042 242.865C174.032 241.875 174.59 240.533 174.596 239.133V107.472C174.596 106.07 174.039 104.726 173.048 103.734C172.057 102.743 170.713 102.186 169.312 102.186L113.785 102.128Z" fill="#183154"/>
<path d="M262.947 248.292H207.42C204.992 248.292 202.664 247.327 200.947 245.609C199.23 243.892 198.266 241.562 198.266 239.133V63.1529C198.266 60.7242 199.23 58.3946 200.947 56.6772C202.664 54.9598 204.992 53.9947 207.42 53.9947H262.947C265.375 53.9947 267.704 54.9598 269.421 56.6772C271.137 58.3946 272.102 60.7242 272.102 63.1529V239.133C272.102 241.562 271.137 243.892 269.421 245.609C267.704 247.327 265.375 248.292 262.947 248.292ZM207.42 57.867C206.019 57.867 204.675 58.424 203.684 59.4152C202.693 60.4067 202.136 61.7512 202.136 63.1529V239.133C202.136 240.535 202.693 241.88 203.684 242.871C204.675 243.862 206.019 244.419 207.42 244.419H262.947C264.347 244.414 265.688 243.855 266.678 242.865C267.668 241.875 268.226 240.534 268.231 239.133V63.1529C268.231 61.7512 267.674 60.4067 266.683 59.4152C265.693 58.424 264.349 57.867 262.947 57.867H207.42Z" fill="#1ABEC8"/>
<path d="M294.861 56.6082C294.348 56.6082 293.858 56.4042 293.494 56.041C293.131 55.678 292.927 55.1856 292.927 54.6721V47.2563C292.927 46.7428 293.131 46.2505 293.494 45.8872C293.858 45.5242 294.348 45.3203 294.861 45.3203C295.375 45.3203 295.868 45.5242 296.232 45.8872C296.593 46.2505 296.798 46.7428 296.798 47.2563V54.6721C296.798 55.1856 296.593 55.678 296.232 56.041C295.868 56.4042 295.375 56.6082 294.861 56.6082Z" fill="#183154"/>
<path d="M294.861 65.3026C294.348 65.3026 293.858 65.0986 293.494 64.7357C293.131 64.3724 292.927 63.88 292.927 63.3665V61.7594C292.927 61.2459 293.131 60.7535 293.494 60.3903C293.858 60.0273 294.348 59.8231 294.861 59.8231C295.375 59.8231 295.868 60.0273 296.232 60.3903C296.593 60.7535 296.798 61.2459 296.798 61.7594V63.3665C296.798 63.88 296.593 64.3724 296.232 64.7357C295.868 65.0986 295.375 65.3026 294.861 65.3026Z" fill="#183154"/>
<path d="M357.608 248.291H302.083C299.653 248.291 297.326 247.326 295.61 245.609C293.893 243.891 292.927 241.562 292.927 239.133V69.8905C292.927 69.377 293.131 68.8847 293.494 68.5214C293.858 68.1584 294.348 67.9542 294.861 67.9542C295.375 67.9542 295.868 68.1584 296.232 68.5214C296.593 68.8847 296.798 69.377 296.798 69.8905V239.133C296.804 240.533 297.361 241.875 298.35 242.865C299.342 243.855 300.683 244.414 302.083 244.419H357.608C359.011 244.419 360.355 243.862 361.346 242.871C362.335 241.88 362.893 240.535 362.893 239.133V235.009C362.893 234.495 363.095 234.003 363.459 233.64C363.823 233.277 364.316 233.073 364.829 233.073C365.34 233.073 365.833 233.277 366.197 233.64C366.561 234.003 366.763 234.495 366.763 235.009V239.133C366.763 241.562 365.798 243.891 364.081 245.609C362.365 247.326 360.038 248.291 357.608 248.291Z" fill="#183154"/>
<path d="M364.829 191C364.316 191 363.823 190.795 363.459 190.432C363.095 190.069 362.893 189.577 362.893 189.063V9.61719C362.893 8.21531 362.335 6.87085 361.346 5.87956C360.355 4.88827 359.011 4.33137 357.608 4.33137H302.083C300.683 4.33648 299.342 4.89502 298.35 5.88519C297.361 6.87537 296.804 8.21687 296.798 9.61719V40.1704C296.798 40.6839 296.593 41.1763 296.232 41.5393C295.868 41.9025 295.375 42.1065 294.861 42.1065C294.348 42.1065 293.858 41.9025 293.494 41.5393C293.131 41.1763 292.927 40.6839 292.927 40.1704V9.61719C292.927 7.18828 293.893 4.85887 295.61 3.14137C297.326 1.42388 299.653 0.459 302.083 0.459H357.608C360.038 0.459 362.365 1.42388 364.081 3.14137C365.798 4.85887 366.763 7.18828 366.763 9.61719V189.063C366.763 189.577 366.561 190.069 366.197 190.432C365.833 190.795 365.34 191 364.829 191Z" fill="#183154"/>
<path d="M324.107 46.696C323.849 46.7295 323.591 46.6593 323.385 46.5015C323.18 46.3436 323.045 46.1106 323.013 45.8539C322.981 45.5971 323.051 45.3374 323.206 45.1323C323.365 44.9272 323.6 44.7931 323.855 44.76L324.415 44.6244C324.539 44.5927 324.668 44.5866 324.794 44.6056C324.92 44.6247 325.04 44.669 325.149 44.7359C325.258 44.8028 325.351 44.8908 325.425 44.9947C325.498 45.0986 325.551 45.2163 325.577 45.3407C325.636 45.5898 325.592 45.8515 325.46 46.0692C325.325 46.287 325.111 46.4428 324.861 46.5023L324.357 46.6379L324.107 46.696Z" fill="white"/>
<path d="M313.829 60.2107C313.703 60.2058 313.577 60.1755 313.462 60.1224C313.348 60.069 313.242 59.9933 313.157 59.9C313.072 59.8064 313.004 59.6969 312.96 59.5772C312.916 59.4578 312.896 59.331 312.902 59.2037C312.902 58.8167 313.386 49.7553 321.088 45.8636C321.317 45.7485 321.581 45.7289 321.825 45.8087C322.065 45.8885 322.268 46.0613 322.385 46.2893C322.444 46.402 322.479 46.5255 322.491 46.6526C322.503 46.7796 322.488 46.9073 322.447 47.0285C322.406 47.1497 322.344 47.2615 322.259 47.3574C322.177 47.4531 322.074 47.5311 321.96 47.5866C315.243 50.9944 314.835 59.2037 314.835 59.2037C314.841 59.3375 314.821 59.4707 314.771 59.5954C314.721 59.7201 314.648 59.8334 314.554 59.9279C314.46 60.0224 314.345 60.0966 314.222 60.145C314.096 60.1937 313.964 60.216 313.829 60.2107Z" fill="white"/>
<path d="M235.174 131.713C247.466 131.713 257.431 121.744 257.431 109.447C257.431 97.1499 247.466 87.1809 235.174 87.1809C222.881 87.1809 212.916 97.1499 212.916 109.447C212.916 121.744 222.881 131.713 235.174 131.713Z" fill="#BDDFE9"/>
<path d="M235.174 122.458C247.466 122.458 257.431 112.489 257.431 100.192C257.431 87.8942 247.466 77.9253 235.174 77.9253C222.881 77.9253 212.916 87.8942 212.916 100.192C212.916 112.489 222.881 122.458 235.174 122.458Z" fill="white"/>
<path d="M159.751 182.461C159.323 182.46 158.908 182.317 158.57 182.054C158.367 181.899 158.197 181.705 158.069 181.483C157.942 181.261 157.859 181.016 157.827 180.762C157.794 180.508 157.812 180.25 157.88 180.004C157.948 179.757 158.064 179.526 158.222 179.324L213.42 108.189C213.745 107.818 214.198 107.585 214.689 107.537C215.179 107.49 215.669 107.631 216.059 107.932C216.449 108.233 216.709 108.672 216.787 109.158C216.865 109.645 216.755 110.143 216.478 110.551L161.28 181.784C161.092 182.004 160.857 182.179 160.592 182.296C160.328 182.413 160.04 182.47 159.751 182.461Z" fill="#183154"/>
<path d="M245.974 81.1782C248.115 85.3627 248.875 90.1189 248.144 94.763C247.413 99.4068 245.23 103.699 241.907 107.024C238.584 110.348 234.293 112.532 229.651 113.264C225.009 113.995 220.254 113.234 216.071 111.092C217.658 114.234 219.967 116.955 222.808 119.032C225.65 121.108 228.943 122.481 232.418 123.038C235.892 123.595 239.45 123.319 242.797 122.235C246.145 121.15 249.188 119.286 251.676 116.797C254.164 114.308 256.027 111.264 257.112 107.914C258.196 104.566 258.471 101.007 257.915 97.5309C257.358 94.055 255.986 90.7607 253.91 87.9179C251.834 85.0752 249.115 82.7656 245.974 81.1782Z" fill="#BDDFE9"/>
<path d="M103.662 18.6974L121.294 54.459L160.757 60.1899L132.209 88.0324L138.945 127.337L103.662 108.788L68.3791 127.337L75.1144 88.0324L46.5668 60.1899L86.0109 54.459L103.662 18.6974Z" fill="#8FDAFF"/>
<path d="M132.21 88.8273L138.945 128.248L103.662 109.583L68.3792 128.248L71.9599 107.318C85.487 105.376 98.512 100.84 110.32 93.9582C125.032 85.3543 137.464 73.3425 146.57 58.9326L160.757 61.0045L132.21 88.8273Z" fill="#38609B"/>
<path d="M112.972 41.119C112.611 41.1214 112.257 41.0231 111.949 40.835C111.641 40.6469 111.392 40.3764 111.23 40.0542L108.965 35.4265C108.756 34.9694 108.732 34.4482 108.899 33.9738C109.067 33.4993 109.412 33.1087 109.862 32.8846C110.313 32.6607 110.833 32.6208 111.312 32.7736C111.791 32.9265 112.192 33.2598 112.43 33.7032L114.714 38.3309C114.826 38.5598 114.892 38.8083 114.908 39.0627C114.924 39.3171 114.89 39.5721 114.807 39.813C114.724 40.0542 114.595 40.2763 114.426 40.4673C114.257 40.6581 114.052 40.8139 113.823 40.9254C113.558 41.0539 113.267 41.1202 112.972 41.119Z" fill="#183154"/>
<path d="M141.519 132.488L103.662 112.584L65.8052 132.488L73.0244 90.318L42.4061 60.4813L84.7337 54.3243L103.662 15.9489L109.042 26.869C109.253 27.3262 109.276 27.8473 109.109 28.3217C108.941 28.7962 108.596 29.1868 108.145 29.4108C107.695 29.6349 107.175 29.6747 106.696 29.5219C106.217 29.3691 105.816 29.0356 105.578 28.5922L103.643 24.7198L87.3077 57.848L50.7283 63.1532L77.1855 88.9626L70.9341 125.421L103.662 108.208L136.371 125.421L130.119 88.9626L156.596 63.1532L119.997 57.848L118.217 54.2274C117.988 53.7676 117.952 53.2362 118.115 52.7497C118.278 52.2632 118.628 51.8615 119.087 51.6329C119.316 51.5206 119.565 51.4545 119.819 51.4384C120.073 51.4223 120.328 51.4566 120.569 51.5393C120.81 51.6221 121.032 51.7518 121.223 51.9205C121.414 52.0895 121.57 52.2943 121.681 52.5235L122.571 54.3049L164.918 60.4813L134.281 90.318L141.519 132.488Z" fill="#183154"/>
<path d="M116.997 49.2896C116.64 49.2884 116.29 49.1883 115.986 49.0003C115.682 48.8125 115.436 48.544 115.275 48.2247L114.559 46.7726C114.442 46.5422 114.371 46.2913 114.351 46.034C114.332 45.7767 114.362 45.5179 114.442 45.2725C114.522 45.0272 114.65 44.7998 114.817 44.6038C114.985 44.4075 115.19 44.2464 115.42 44.1296C115.65 44.0126 115.901 43.9421 116.158 43.9222C116.415 43.9022 116.674 43.933 116.919 44.0129C117.165 44.093 117.392 44.2206 117.588 44.3884C117.784 44.5563 117.945 44.7611 118.062 44.9911L118.778 46.4433C119.006 46.9028 119.043 47.4345 118.879 47.9207C118.716 48.4072 118.366 48.8092 117.907 49.0378C117.629 49.1954 117.317 49.282 116.997 49.2896Z" fill="#183154"/>
<g opacity="0.15">
<path opacity="0.15" d="M100.546 84.219C107.344 84.219 112.855 78.7058 112.855 71.9047C112.855 65.1039 107.344 59.5907 100.546 59.5907C93.7477 59.5907 88.2366 65.1039 88.2366 71.9047C88.2366 78.7058 93.7477 84.219 100.546 84.219Z" fill="white"/>
<path opacity="0.15" d="M86.3784 96.2419C89.7775 96.2419 92.5331 93.4855 92.5331 90.0849C92.5331 86.6844 89.7775 83.9279 86.3784 83.9279C82.9793 83.9279 80.2238 86.6844 80.2238 90.0849C80.2238 93.4855 82.9793 96.2419 86.3784 96.2419Z" fill="white"/>
</g>
<path d="M104.262 46.2494C105.032 46.2494 105.77 45.9436 106.315 45.3987C106.859 44.8541 107.165 44.1156 107.165 43.3453C107.165 42.5751 106.859 41.8362 106.315 41.2916C105.77 40.747 105.032 40.441 104.262 40.441C103.492 40.441 102.754 40.747 102.209 41.2916C101.665 41.8362 101.359 42.5751 101.359 43.3453C101.359 44.1156 101.665 44.8541 102.209 45.3987C102.754 45.9436 103.492 46.2494 104.262 46.2494Z" fill="#FDFEFF"/>
<path d="M94.7206 66.289C95.8192 61.7227 97.6705 57.3712 100.198 53.4134C101.688 51.0316 97.914 48.8438 96.443 51.2253C93.7168 55.5011 91.7156 60.1986 90.5208 65.1274C89.9014 67.8574 94.0818 68.9997 94.7206 66.289Z" fill="#FDFEFF"/>
<path d="M235.174 124.376C230.388 124.38 225.708 122.963 221.726 120.305C217.745 117.647 214.641 113.867 212.808 109.444C210.974 105.021 210.493 100.153 211.426 95.4564C212.359 90.7598 214.663 86.4455 218.048 83.0597C221.433 79.6738 225.745 77.3683 230.44 76.4349C235.135 75.5018 240.001 75.9828 244.422 77.817C248.843 79.6512 252.622 82.7563 255.279 86.7393C257.935 90.7222 259.352 95.4042 259.348 100.193C259.332 106.602 256.781 112.744 252.25 117.276C247.721 121.808 241.581 124.36 235.174 124.376ZM235.174 79.8434C231.155 79.8396 227.225 81.028 223.881 83.2589C220.537 85.4895 217.929 88.6621 216.387 92.3754C214.846 96.0888 214.439 100.176 215.22 104.12C216 108.065 217.932 111.689 220.771 114.535C223.611 117.381 227.23 119.321 231.171 120.109C235.113 120.897 239.199 120.498 242.914 118.963C246.629 117.428 249.805 114.825 252.041 111.484C254.277 108.143 255.473 104.214 255.477 100.193C255.477 94.8024 253.339 89.6325 249.533 85.8173C245.726 82.0021 240.563 79.8537 235.174 79.8434Z" fill="#183154"/>
<path d="M364.943 225.58C364.43 225.58 363.937 225.376 363.576 225.013C363.212 224.65 363.007 224.157 363.007 223.644V211.639C363.007 211.126 363.212 210.634 363.576 210.27C363.937 209.907 364.43 209.703 364.943 209.703C365.457 209.703 365.95 209.907 366.311 210.27C366.675 210.634 366.88 211.126 366.88 211.639V223.644C366.88 224.157 366.675 224.65 366.311 225.013C365.95 225.376 365.457 225.58 364.943 225.58Z" fill="#183154"/>
<path d="M364.943 204.32C364.43 204.32 363.937 204.116 363.576 203.753C363.212 203.39 363.007 202.898 363.007 202.384V200.08C363.007 199.567 363.212 199.074 363.576 198.711C363.937 198.348 364.43 198.144 364.943 198.144C365.457 198.144 365.95 198.348 366.311 198.711C366.675 199.074 366.88 199.567 366.88 200.08V202.384C366.88 202.898 366.675 203.39 366.311 203.753C365.95 204.116 365.457 204.32 364.943 204.32Z" fill="#183154"/>
</svg>
